<svg xmlns="http://www.w3.org/2000/svg" width="710" height="740" viewBox="0 0 710 740"><defs><style>.cls-1{fill:#2a6b00;}.cls-2{fill:#207700;}.cls-3{fill:#1a4b00;}</style></defs><title>Beercrate_foreground</title><g id="Layer_2" data-name="Layer 2"><polygon class="cls-1" points="303.43 414.56 303.43 733.09 56.69 389.73 9.66 93.56 303.43 414.56"/><path class="cls-2" d="M337.5,377.65C377,359.08,636.19,248,658.26,239.62c23.93-9.08,7.43-19,7.43-19L352.31,20.29c-5.44-4.6-17.53-4.3-17.53-4.3S56.69,92.73,43.49,95.21s-5,11.55-5,11.55,237.28,261.67,249,270.45c14,10.52,20.88,9.29,20.88,9.29v28.89L302.6,417,9.66,93.56l335-86.65L700.34,233.84l-392,181.55V386.5S318,386.81,337.5,377.65Z"/><path class="cls-3" d="M302.6,417l.83,316.05L618.65,544.51,699.52,233ZM360.36,526V431.89L619.47,308.94l-23.1,100.59Z"/></g></svg>
