<svg xmlns="http://www.w3.org/2000/svg" width="680" height="740" viewBox="0 0 680 740"><defs><style>.cls-1{fill:#173801;}.cls-2{fill:#0d2100;}</style></defs><title>Beercrate_background</title><g id="Layer_2" data-name="Layer 2"><path class="cls-1" d="M637.88,220.64C625.09,211.51,324.31,20.12,324.31,20.12c-1.24-.73-4.82-4.75-17.33-4.13L15.69,95.21s-12.57,1.46-4.95,11.55c1.93,2.57-3.06-4,20.61,22.27h0L275.62,57.55v92L98.53,206c67,74.09,154.66,169.46,154.66,169.46s8.6,12,28.15,11.35c25-.82,356-149.85,356-149.85S650.67,229.77,637.88,220.64Z"/><polygon points="54.31 417.04 314.32 308.61 590.85 537.51 275.62 733.09 54.31 417.04"/><polygon class="cls-2" points="590.85 537.51 314.32 308.61 316.88 6.92 671.72 233.02 590.85 537.51"/></g></svg>
