<svg xmlns="http://www.w3.org/2000/svg" width="220" height="760" viewBox="0 0 220 760"><defs><style>.cls-1{fill:#1f3900;}.cls-2{fill:#f1f0d8;}.cls-3{fill:#4d4d4d;}</style></defs><title>Flaskelight</title><g id="Layer_2" data-name="Layer 2"><line class="cls-1" x1="127.93" y1="28.09" x2="121.36" y2="32.52"/><line class="cls-2" x1="121.36" y1="32.52" x2="127.93" y2="28.09"/><path class="cls-1" d="M52,4.13,46.3,31.68l10.33,9.18L50.89,65l5.74,13.77-5.74,9.19L40.57,271.54,44,275s0,29.84-4.59,35.58S6.13,339.26,5,401.23l-3.45,2.3V684.71L5,690.45l1.14,40.17s2.3,14.92,28.7,25.25H180.58s25.25-3.45,33.29-23V695l4.59-6.89V404.68l-4.59-3.45s9.18-49.35-29.84-90.66L176,275l3.44-4.59L169.11,90.21l-6.89-10.33,8-10.33-6.88-28.69,10.33-8-8-28.7Z"/><polygon class="cls-2" points="4.99 401.23 213.87 401.23 218.46 404.68 218.46 688.15 213.87 695.04 4.99 695.04 4.99 690.45 1.54 684.71 1.54 403.53 4.99 401.23"/><polyline class="cls-2" points="40.56 271.54 44.01 274.99 175.99 274.99 179.44 270.4 169.11 90.21 162.22 79.88 56.63 78.73 50.89 87.92"/><polyline class="cls-3" points="56.63 40.86 163.37 40.86 173.7 32.83 165.66 4.13 52.04 4.13 45.16 33.97"/><path d="M31.84,569.28c0,2.24.23,3.58.69,4a2.2,2.2,0,0,0,1.35.63,34.82,34.82,0,0,0,3.76.12h5c2.64,0,4.39-.35,5.27-1s1.33-2.1,1.33-4.22c0-.56,0-1.22-.06-2-.08-1.47-.12-2.36-.12-2.66q0-2.49,2-2.49c1.61,0,2.41.77,2.41,2.3a7.76,7.76,0,0,1-.06,1.09l-.4,2.92a20.43,20.43,0,0,0-.17,2.64c0,.54.05,1.33.14,2.38s.15,1.85.15,2.39c0,1.72-1,2.58-2.93,2.58-.38,0-1.26-.07-2.64-.2-.92-.07-2.33-.14-4.25-.2H29.89c-.92,0-2.45.07-4.59.23-.31,0-.83,0-1.58.08s-1.33.09-1.75.09c-1.61,0-2.41-.69-2.41-2.07A1.59,1.59,0,0,1,21.34,574a7.82,7.82,0,0,1,1.38.17,8.69,8.69,0,0,0,1.37.17q2.93,0,2.93-4.3v-23q0-4.24-2.93-4.25a5.07,5.07,0,0,0-1.2.11,8.28,8.28,0,0,1-1.55.18,1.67,1.67,0,0,1-1.26-.55,1.86,1.86,0,0,1-.52-1.35c0-1.34.82-2,2.47-2a7.77,7.77,0,0,1,.86.06l3,.35a36.55,36.55,0,0,0,3.73.28,29,29,0,0,0,3.67-.28l2.64-.35a6.14,6.14,0,0,1,.75-.06q2.58,0,2.58,2a1.86,1.86,0,0,1-.52,1.35,1.67,1.67,0,0,1-1.26.55,9.07,9.07,0,0,1-1.55-.18,5.07,5.07,0,0,0-1.2-.11q-2.93,0-2.93,4.22Z"/><path d="M63.52,547.05q0-4.24-2.93-4.25a5.11,5.11,0,0,0-1.21.11,8.19,8.19,0,0,1-1.55.18,1.7,1.7,0,0,1-1.26-.55,1.89,1.89,0,0,1-.51-1.35q0-2,2.52-2a6.17,6.17,0,0,1,.8.06l3,.4a25.62,25.62,0,0,0,3.55.23,29.56,29.56,0,0,0,3.91-.28l2.58-.35a6.17,6.17,0,0,1,.8-.06c1.68,0,2.53.67,2.53,2a1.9,1.9,0,0,1-.52,1.35,1.69,1.69,0,0,1-1.26.55,9,9,0,0,1-1.55-.18,5.11,5.11,0,0,0-1.21-.11q-2.92,0-2.92,4.25v23q0,4.31,2.92,4.3a9.24,9.24,0,0,0,1.21-.11,10.84,10.84,0,0,1,1.55-.18,1.61,1.61,0,0,1,1.78,1.84c0,1.38-.85,2.07-2.53,2.07h-.4a1.62,1.62,0,0,0-.4-.06l-3-.46a21,21,0,0,0-3.15-.23,29.23,29.23,0,0,0-4.31.29l-2.64.4a2.38,2.38,0,0,0-.4.06h-.46q-2.46,0-2.46-2.07c0-1.22.59-1.84,1.77-1.84.2,0,.71,0,1.55.12a4.83,4.83,0,0,0,1.21.17q2.92,0,2.93-4.3Z"/><path d="M96.18,538.15a15,15,0,0,1,10.43,4.31,8.07,8.07,0,0,1-.23-.92c-.08-.77-.11-1.19-.11-1.27a1.67,1.67,0,0,1,1.89-1.89c1.38,0,2.07.82,2.07,2.47a8.42,8.42,0,0,1-.07,1.2l-.44,2.76a17.42,17.42,0,0,0-.18,2.58c0,.73.07,2.28.23,4.65v.52q0,2.58-2.13,2.58c-1.34,0-2-.94-2-2.81V550.6a7.88,7.88,0,0,0-2.6-6.25,11.29,11.29,0,0,0-15.71,2q-3.15,4.3-3.15,11.82,0,8,3.25,12.45a10.48,10.48,0,0,0,9,4.48,8.84,8.84,0,0,0,6.82-2.6c1.61-1.73,2.41-4.18,2.41-7.37a4.38,4.38,0,0,0-.65-2.74,2.93,2.93,0,0,0-2.33-.78c-.31,0-.74,0-1.32.06s-1,.06-1.32.06c-1.84,0-2.75-.65-2.75-2s.78-2,2.35-2a12.83,12.83,0,0,1,1.66.12,43.72,43.72,0,0,0,5.8.51,36.53,36.53,0,0,0,6-.52,9.1,9.1,0,0,1,1.55-.11c1.53,0,2.29.63,2.29,1.89a1.83,1.83,0,0,1-.6,1.38,2,2,0,0,1-1.41.57H113q-2.52,0-2.52,5.59v4.56c0,1,0,1.88.11,2.68s.11,1.42.11,1.88c0,1.56-.68,2.33-2.06,2.33a1.77,1.77,0,0,1-2-2l.12-1.38c0-.35.07-.94.11-1.78a18.84,18.84,0,0,1-2.07,2.47q-3.31,3-9.23,3a14.71,14.71,0,0,1-11.94-5.51q-4.53-5.51-4.53-14.4,0-9.52,4.63-15.21A15.32,15.32,0,0,1,96.18,538.15Z"/><path d="M130.88,555.6h18.37v-8.44q0-4.3-2.93-4.3c-.23,0-.64,0-1.23.11a11.73,11.73,0,0,1-1.52.12,1.64,1.64,0,0,1-1.84-1.87c0-1.36.82-2,2.47-2a20.4,20.4,0,0,1,2.92.38,22.62,22.62,0,0,0,3.91.37,35.72,35.72,0,0,0,5.73-.47,16.55,16.55,0,0,1,2.18-.28c1.69,0,2.53.68,2.53,2s-.59,1.87-1.78,1.87a11.59,11.59,0,0,1-1.38-.12,13.6,13.6,0,0,0-1.37-.11q-2.92,0-2.93,4.3v22.9c0,2.87,1,4.3,2.87,4.3a11.27,11.27,0,0,0,1.4-.14,10.07,10.07,0,0,1,1.41-.15,1.6,1.6,0,0,1,1.78,1.84c0,1.38-.84,2.07-2.53,2.07a15.24,15.24,0,0,1-2.23-.35,22.14,22.14,0,0,0-4.36-.4,34.92,34.92,0,0,0-5.34.34c-1.69.27-2.6.41-2.76.41q-2.52,0-2.52-2a1.64,1.64,0,0,1,1.84-1.87,11.63,11.63,0,0,1,1.37.12,11.12,11.12,0,0,0,1.38.11c1.61,0,2.56-1,2.87-3.15,0-.27.06-2,.06-5.17V559.5H130.88V566q0,4.77.06,5.16c.31,2.11,1.26,3.16,2.87,3.16a11.39,11.39,0,0,0,1.41-.14,10,10,0,0,1,1.4-.15,1.6,1.6,0,0,1,1.78,1.84q0,2.07-2.52,2.07c-.27,0-1.09-.12-2.47-.35a30.53,30.53,0,0,0-4.82-.46,32.26,32.26,0,0,0-5.17.46l-1.37.23-.75.12q-2.64,0-2.64-2a1.8,1.8,0,0,1,.55-1.3,1.72,1.72,0,0,1,1.29-.57,11.93,11.93,0,0,1,1.55.15,5.75,5.75,0,0,0,1.2.14q2.93,0,2.93-4.3v-23q0-4.31-2.93-4.31a7.57,7.57,0,0,0-1.26.17,7.48,7.48,0,0,1-1.49.18,1.69,1.69,0,0,1-1.29-.58,1.83,1.83,0,0,1-.55-1.32q0-2,2.64-2a15.93,15.93,0,0,1,2.12.29,30,30,0,0,0,5.34.4,27.3,27.3,0,0,0,3.59-.34,27.32,27.32,0,0,1,3.53-.35q2.52,0,2.52,2a1.82,1.82,0,0,1-.52,1.33,1.66,1.66,0,0,1-1.26.54,9.88,9.88,0,0,1-1.55-.15,10.7,10.7,0,0,0-1.26-.14q-2.81,0-2.87,4.3Z"/><path d="M183,570.11q0,4.3,2.93,4.31a9.33,9.33,0,0,0,1.38-.15,10.53,10.53,0,0,1,1.38-.14,1.86,1.86,0,0,1,1.83,1.84q0,2-2.58,2h-.34a2.45,2.45,0,0,0-.41-.06l-2.81-.4a24.63,24.63,0,0,0-3.61-.23,27.37,27.37,0,0,0-3.85.23l-2.87.4a1.62,1.62,0,0,0-.4.06h-.4c-1.68,0-2.53-.67-2.53-2a1.63,1.63,0,0,1,1.84-1.84,10.53,10.53,0,0,1,1.38.14,9.33,9.33,0,0,0,1.38.15q2.87,0,2.86-4.31V546.82q0-4.08-4.18-4.08h-1.78q-4.14,0-4.14,4,0,1.44.06,2l.23,2.12a13.4,13.4,0,0,1,.06,1.44c0,2.41-.75,3.61-2.24,3.61s-2.12-.88-2.12-2.64c0-.49,0-1.35.11-2.58.12-1.84.17-3,.17-3.5,0-1,0-1.95-.09-3-.13-2-.19-2.89-.19-2.59,0-1.6.72-2.41,2.18-2.41q.79,0,3.72.18c.19,0,1.76.07,4.7.23h6.53c.76,0,2.8,0,6.13-.1.72,0,2,0,3.72-.16,1.56-.1,2.79-.15,3.67-.15,1.9,0,2.86.79,2.86,2.36v.11c0,.38-.05,1.09-.14,2.12s-.2,2.15-.32,3.33v.63c0,.58.06,1.48.17,2.7.16,1.61.23,2.6.23,3,0,1.56-.74,2.35-2.23,2.35s-2.19-1-2.19-2.88c0-.7.06-1.72.18-3.09s.17-2.39.17-3.08q0-4-4.53-4h-1.61a4.28,4.28,0,0,0-3,.89,4.35,4.35,0,0,0-1,3l-.23,4Z"/></g></svg>
