<svg xmlns="http://www.w3.org/2000/svg" width="230" height="800" viewBox="0 0 230 800"><defs><style>.cls-1{fill:none;}.cls-2{fill:#1f3900;}.cls-3{fill:#f1f0d8;}.cls-4{fill:#4d4d4d;}.cls-5{fill:#8a8a8a;}.cls-6{fill:#a4a4a4;}.cls-7{fill:#fff;}</style></defs><title>Flaskeelefant</title><g id="Layer_2" data-name="Layer 2"><path class="cls-1" d="M194.79,251S218,266.89,218,270.82"/><path class="cls-1" d="M43.48,564.52s9.59,6.51,9.59,8.12"/><path class="cls-2" d="M53.71,2.68,47.64,31.8l10.93,9.71L52.5,67l6.07,14.56L52.5,91.25,41.57,285.35,45.22,289s0,31.55-4.86,37.61S5.16,356.93,4,422.44L.31,424.87V722.1L4,728.16l1.21,42.47s2.43,15.77,30.35,26.69H189.64s26.7-3.64,35.2-24.27V733l4.85-7.28V426.08l-4.85-3.64s9.7-52.16-31.56-95.84L184.78,289l3.65-4.85L177.5,93.67l-7.28-10.92,8.5-10.91-7.29-30.33L182.36,33l-8.5-30.33Z"/><polygon class="cls-3" points="3.95 422.44 224.84 422.44 229.69 426.08 229.69 725.74 224.84 733.02 3.95 733.02 3.95 728.16 0.31 722.1 0.31 424.87 3.95 422.44"/><polyline class="cls-3" points="41.57 285.36 45.22 288.99 184.78 288.99 188.43 284.14 177.5 93.67 170.22 82.75 58.56 81.54 52.5 91.25"/><polyline class="cls-4" points="58.56 41.51 171.44 41.51 182.36 33.01 173.86 2.69 53.71 2.69 46.43 34.23"/><path class="cls-5" d="M123,656.83s-10.45,4-15.28-.81c0,0-1.6-6.43-4-20.89A98.46,98.46,0,0,0,79.59,607s2.41-9.64,4-12S86,580.48,86,578.87s-17.69-8-16.89-11.25-2.41-27.32,24.12-40.18a95.82,95.82,0,0,1,20.1.8,23.06,23.06,0,0,0,8,0c4-.8,12.87-3.21,20.91,3.22S162.39,558,160,567.62c0,0-13,8.77-14.52,10.41s8.09,29,5.68,31.38-12.86,7.23-15.28,10.45-8,12-8,13.66c0,0-4.82,19.29-4,22.5Z"/><path class="cls-6" d="M93.25,527.44S90,518.6,87.63,516.19s-6.44-1.61-6.44-1.61a30.76,30.76,0,0,1-4.82,4c-1.61.8-9.65,5.62-10.45,5.62s-48.24,18.49-49,20.09-3.22,4.83-3.22,8,3.22,51.44,33,65.9c0,0,18.49,4.82,30.55,2.41l5.63-12s-2.41,0-.8-4.82,4-20.1,4-23.31,0-2.41-4-4.82l-4-2.41s-.81.8-4-5.63S78.78,537.08,93.25,527.44Z"/><path class="cls-6" d="M142.3,531.46l-5.63-3.22s3.21-10.45,8.84-13.66a10.39,10.39,0,0,1,8,4.82l9.65,4.82s17.69,6.43,20.9,7.24,26.53,8.84,28.14,12.85c0,0,4.82.81,4,8.85,0,0,.8,23.3-7.24,37,0,0-5.62,15.27-12.86,20.09,0,0-8,12.06-43.41,11.26l-4.83-12.06s2.41,0,1.61-5.62-5.63-20.1-5.63-24.11,12.87-11.26,12.87-11.26,1.6-3.21-.81-13.66S150.33,541.1,142.3,531.46Z"/><path class="cls-7" d="M82.8,608.61s10.55,7,11.31,10.35-13.72,29,3.16,47.51c0,0,.81,0,0,1.61s-12.86.8-17.68-9.65S71.55,631.11,82.8,608.61Z"/><path class="cls-7" d="M135.86,619.86l12.06-10.45s12.06,26.52,7.24,39.38-9.65,21.7-21.71,18.48c0,0,10.45-12.85,8-22.5A51.91,51.91,0,0,0,135.86,619.86Z"/><path class="cls-6" d="M133.45,575.66s-17.69-13.66-37,1.6c0,0-8,9.65.8,49,0,0,2.41,8,9.65,28.93,0,0,5.63,7.23,16.88,1.61l9.09-32.05,3-18.58S138.28,578.07,133.45,575.66Z"/><ellipse class="cls-7" cx="143.1" cy="570.84" rx="4.02" ry="4.82"/><ellipse class="cls-7" cx="86.02" cy="570.84" rx="4.02" ry="4.82"/><ellipse cx="143.5" cy="571.64" rx="1.21" ry="2.41"/><ellipse cx="85.62" cy="571.64" rx="1.21" ry="2.41"/><line class="cls-7" x1="44.96" y1="795.56" x2="63.76" y2="793.26"/></g></svg>
