<svg xmlns="http://www.w3.org/2000/svg" width="310" height="250" viewBox="0 0 310 250"><defs><style>.cls-1{fill:#a3cd67;}.cls-2{fill:#1e8100;}</style></defs><title>Græs</title><g id="Layer_2" data-name="Layer 2"><path class="cls-1" d="M87.34,244.52c-.58-4.58-14-79.49-3.49-115.52,0,0,19.78,57.19,29.66,68.05,0,0,5.24-129.81,22.69-136.1,0,0,4.65,62.33,8.72,62.9,0,0,82-106.93,138.42-114.37,0,0-96.38,118.38-96.17,148.69,0,0,72.91-85.21,111.29-94.93,0,0-75.61,110.83-72.7,152.11,0,0,34.58-60,80.84-69.76,0,0-53.5,53.75-44.78,98.93Z"/><path class="cls-2" d="M10.88,244.52c-.58-4.66-14-80.84-3.49-117.48,0,0,19.77,58.15,29.66,69.21,0,0,5.23-132,22.68-138.42,0,0,4.65,63.39,8.72,64,0,0,82-108.76,138.42-116.32,0,0-96.38,120.39-96.17,151.22,0,0,72.91-86.66,111.29-96.55,0,0-75.6,112.72-72.69,154.71,0,0,34.58-61.07,80.84-71,0,0-53.51,54.67-44.79,100.62Z"/></g></svg>
