<svg xmlns="http://www.w3.org/2000/svg" width="150" height="320" viewBox="0 0 150 320"><defs><style>.cls-1{fill:#1f3900;}.cls-2{fill:#f1f0d8;}.cls-3{fill:#8a8a8a;}.cls-4{fill:#4d4d4d;}</style></defs><title>Halvøl</title><g id="Layer_2" data-name="Layer 2"><path class="cls-1" d="M30.37,160.68c-3.67-1.35-12.48,11.76-16.9,20.86-4.5,9.28-11,27.84-5.19,57.14L10.85,281s-5.32,3.36,63,0c62.12-3,65.06,23,65.06,23l4.89-85.36a92.45,92.45,0,0,0-5-36c-6.37-18.09-13.84-23.91-17.31-23.31-3.7.63-3.33,7-10,14.74-11.49,13.2-29.88,14.26-34.15,14.51-14.4.83-28.66-4-35.76-10.86-6.28-6-8.55-11.21-8.55-11.21C31.52,163,31.61,161.14,30.37,160.68Z"/><path class="cls-2" d="M30.37,160.68s11.12,33.19,47,28,44.5-28.73,44.5-28.73l-15-111.65s-1.12,19.46-31.42,20.41S41,47.94,41,47.94Z"/><path class="cls-2" d="M8,237.13s32.13,34,69.59,28.5,51.18-17.75,65.57-34.92L139,304.07s-20.88,3.36-64.54,10.05S11.2,298.71,11.2,298.71Z"/><path class="cls-3" d="M51.51,52.37l3.1-.59,3.68,2.51.55,2.9,5.94-2.53,1.84,1.26L68,58.17l3.58-1.59,6.2-1.17,2.13,2.8,2.51-3.69,4.65-.88,1.84,1.25,2.51-3.68,8,.08-.88-4.65,5.75-1.35,1.11-4.77,3.09-.58-1.17-6.2,2.8-2.14-2.73-5.9-3-7.44s-11.28-17.12-33-13-25.15,11.2-25.15,11.2-5.6,4.27-6.64,15.7l-1,3.39,1.84,1.26-.67,4.94,4.65-.89-.37,6.49,3.09-.59,3.4,1Z"/><path class="cls-4" d="M104.4,18.26s6.62,18-25.9,24.17-35.68-18.9-35.68-18.9S42,10.85,69.12,5.7C94.67.85,104.4,18.26,104.4,18.26Z"/><path class="cls-1" d="M41,47.94s4.12,21.68,34.43,20.74,31.42-20.41,31.42-20.41l-1.47-7.75-1,3.4-5.9,2.72.88,4.65-8-.08-2.51,3.68-1.84-1.25-4.65.88-2.51,3.69-2.13-2.8-6.2,1.17-3.09.59-3.69-2.51-6.19,1.18-.3-1.55-3.68-2.51-3.1.59-.88-4.65-3.4-1-3.09.59.37-6.49-3,.57Z"/></g></svg>
