<svg xmlns="http://www.w3.org/2000/svg" xmlns:xlink="http://www.w3.org/1999/xlink" width="210" height="180" viewBox="0 0 210 180"><defs><style>.cls-1{fill:url(#linear-gradient);}</style><linearGradient id="linear-gradient" x1="5.37" y1="90" x2="204.63" y2="90" gradientUnits="userSpaceOnUse"><stop offset="0" stop-color="#3d1300"/><stop offset="1" stop-color="red"/></linearGradient></defs><title>Hjerte</title><g id="Layer_2" data-name="Layer 2"><path class="cls-1" d="M109.21,174.37c19.93-11.68,132-81.56,83.23-149a6.12,6.12,0,0,0-.45-.56c-3.27-3.58-37.1-38.53-81.75-3.05a5.91,5.91,0,0,1-7.61-.17C93.14,13.13,65.9-6.16,32.24,13.07-.86,32,3.24,69.07,10.1,84.6c1.73,3.91,3.05,8,5.52,11.45,9.4,13.25,38.46,50.21,87.68,78.36A5.91,5.91,0,0,0,109.21,174.37Z"/></g></svg>
