<svg id="Layer_1" data-name="Layer 1" xmlns="http://www.w3.org/2000/svg" width="350" height="720" viewBox="0 0 350 720"><defs><style>.cls-1{fill:#a4a4a4;}.cls-2{fill:#806239;}.cls-3{fill:#b78d6d;}.cls-4{fill:gray;}.cls-5{fill:#facdc0;}.cls-6{fill:#3b2608;}.cls-7{fill:#e3bcb2;}.cls-8{fill:#fff;}.cls-9{fill:#b2272d;}.cls-10{fill:#e3e3e3;}.cls-11{fill:#1f3900;}.cls-12{fill:#f1f0d8;}.cls-13{fill:#333;}.cls-14{fill:#a88d86;}.cls-15{fill:#ff1d25;}.cls-16{fill:#ff9479;}.cls-17{fill:#bdbdbd;}</style></defs><title>Karakteren</title><path class="cls-1" d="M109.26,577l.79,137.72,38.14.27.53-77.6A186,186,0,0,0,185,640.78a205.38,205.38,0,0,0,37.34-4.5l-.26,78.92,38.14-.26.26-138.79Z"/><rect class="cls-2" x="105.8" y="553.9" width="157.82" height="25.43"/><rect class="cls-3" x="158.86" y="549.88" width="49.56" height="36.52"/><rect class="cls-2" x="166.22" y="555.45" width="34.84" height="25.37"/><path class="cls-4" d="M157.09,610.19c8.21,7.32,28.72,17.79,38.29,11s-1.82,7.32-14.13,6.8S157.09,610.19,157.09,610.19Z"/><polygon class="cls-5" points="138.66 232.49 138.66 270.81 85.87 270.81 90.95 334.15 143.74 375.21 214.91 379.12 256.75 345.49 267.7 269.63 212.95 270.02 211.78 231.71 138.66 232.49"/><path class="cls-6" d="M177.76,369c11.41-5.63,18.84-10.71,22.42-24.48s-.26,19.72-16.2,23.15S177.76,369,177.76,369Z"/><path class="cls-6" d="M231.61,363.1c3.72-12.17,5.1-21.07-2.49-33.1s14.2,13.69,5.79,27.66S231.61,363.1,231.61,363.1Z"/><path class="cls-6" d="M196.82,365.45c7.81-10,12.28-17.86,9.49-31.81s8.37,17.86-4.47,27.9S196.82,365.45,196.82,365.45Z"/><path class="cls-6" d="M169.49,361.54c-3.57-10-7.15-16.74-5.87-30.69s-3.83,17.86,2,27.9S169.49,361.54,169.49,361.54Z"/><path class="cls-6" d="M177.62,363.3c-1.56-12.82-4-21.67,1.09-37.92s-9,20.25-4.81,33.65S177.62,363.3,177.62,363.3Z"/><path class="cls-6" d="M224.28,355.64c-.61-17.18,1.25-29.89-11.53-47.11s18,18.33,14.21,38S224.28,355.64,224.28,355.64Z"/><path class="cls-6" d="M122.81,357.47c-10.27-6.53-9.87-29.37-1-48.94s-16.54,23.57-6.88,42.26S122.81,357.47,122.81,357.47Z"/><path class="cls-7" d="M138.21,226.85l.38,12.28a83.41,83.41,0,0,0,28.27,10c16.38,2.61,45-7.44,45-7.44V226.85Z"/><path class="cls-5" d="M219,23.69c-19.72-6.33-56.93-7.45-74.05-1.87s-28.06,7-37.29,24-8.1,119.28-8.1,119.28.74,16.37,4.83,26.42,6,26.79,23.44,36.09,33.49,13.4,52.84,12.65S219,235,229,227.59s17.86-16.37,21.59-27.91S256.17,88.8,256.17,88.8s0-29.77-5.58-39.44S219,23.69,219,23.69Z"/><path class="cls-6" d="M152.62,68.8c3-4,2-12-10-19s-20-11-25-8-7,6-4,8,13,3,19,7,10,7,14,10S152.62,68.8,152.62,68.8Z"/><path class="cls-6" d="M191.46,63.14c-.09-5.25,5.42-12.17,19.24-12.53s22.66,0,25,5.36,2.15,9.15-1.45,9.47-12.29-3.86-19.5-3.22-12.21,1.39-17.21,2.13S191.46,63.14,191.46,63.14Z"/><path class="cls-5" d="M101.14,115.59c-2.6-7.07-9.81-11.16-16.51-12.65s-13.39-2.23-14.51,2.61-1.86,11.53,3.72,21.2,11.54,20.47,12.28,29,13.4,6.7,13.4,6.7Z"/><path class="cls-5" d="M252.82,115.59c2.65-7.07,10-11.16,16.8-12.65s13.63-2.23,14.77,2.61,1.89,11.53-3.79,21.2-11.74,20.47-12.49,29-13.64,6.7-13.64,6.7Z"/><path class="cls-6" d="M171.62,10.8c-2-3-2-3-5-3s-7,2-7,2-7,0-8,6,2,14,6,13a17,17,0,0,0,7-4,3.1,3.1,0,0,0,4,2c3-1,3-2,6-1s5,2,6,0l2-4s-2,3,2,3h5s-3,2-3,4-6.09-2.41-10.09.59-2.91,4.41-2.91,4.41-15,1-12,7,9,5,12,4a12.68,12.68,0,0,1,6-1c3,0,6-3,6-3a5,5,0,0,0,5,1,11,11,0,0,0,4-2,12.68,12.68,0,0,0,6,2,12.13,12.13,0,0,0,5-1,5,5,0,0,0,5,1,42,42,0,0,0,5-2s2,3,5,3h4a6.83,6.83,0,0,0,4,4,17.5,17.5,0,0,0,5,1s0,2,3,3a15.77,15.77,0,0,0,4,1s-2,3,2,5l6,3a4.83,4.83,0,0,0,0,4c1,2-4,4-4,6s-2,7,3,11c-2,5-3,8-2,10s5,4,5,4-6,1-5,3,2,4,5,4a12.68,12.68,0,0,0,6-2s2,4,5,4,6-2,5-4a3.38,3.38,0,0,1,3-5c3,0,8,0,7-2a7.47,7.47,0,0,0-3-3s4-4,3-6-4-4-4-4a4.33,4.33,0,0,0,2-4c0-3-3-7-3-7s4-3,3-7-7-6-7-6,1-1-2-4a9.29,9.29,0,0,0-6-3s4-5,2-7-8-5-8-5a4.45,4.45,0,0,0-2-5l-3-2s-1-6-4-7a26.39,26.39,0,0,0-7-1s1-5-2-7-8-2-10,0c-2-2-3-5-7-5a8.76,8.76,0,0,0-6,2s0-3-4-4a13.05,13.05,0,0,0-8,1s-2-4-5-4a12.68,12.68,0,0,0-6,2h-3c-2,0-4,2-4,2s-3-2-5-2S171.62,10.8,171.62,10.8Z"/><path class="cls-6" d="M108.66,43c-5.18-2.68-11,.7-11.84,2.76l-1.74,4.12s-6.86,2.45-6.6,6.44l.38,6s-4.92,1.32-5.67,5.37a7.92,7.92,0,0,0,2.45,6.86s-2.8,3.18-1.61,6.11a32.17,32.17,0,0,0,4.44,6.73s-2.74,4.19-.61,6.06L91,96.27s-2.54,7.17,1.58,8.91,16.9-2.08,10.4-9.68c3.8-3.25,2.67-5.18,1.48-8.11a15.56,15.56,0,0,1-1.25-3.93,3.55,3.55,0,0,0,2.86-2.19c.87-2.06-.32-5-.32-5s2.87-2.19,2.67-5.18A8.4,8.4,0,0,0,104,64.37c1.81-3.12,2.8-3.19,2.61-6.18a21.75,21.75,0,0,0-1.38-5.92S109.18,51,110,48A5,5,0,0,0,108.66,43Z"/><ellipse class="cls-8" cx="173.93" cy="180.74" rx="52.47" ry="19.68"/><path class="cls-9" d="M194.82,162.68V178H179.23v-16.8c-1.74-.07-3.51-.1-5.3-.1h-1.41V175.3H159.47V161.82c-21.94,2.36-38,9.94-38,18.92,0,6,7.22,11.41,18.57,15V183.66h11.79V198.6q3.84.66,8,1.1V185.15h13.95v15.28h.15c1.37,0,2.72,0,4.07-.07v-16h11.78v15.11c3-.36,5.92-.82,8.68-1.36v-14h11.79V195c9.95-3.59,16.15-8.62,16.15-14.21C226.4,172.66,213.4,165.71,194.82,162.68Z"/><path class="cls-10" d="M90.23,270l-18.8,1-2,104.14S60.14,417,61.4,444s-1.32,59.55,9.37,77.79,35.11,32.67,35.11,32.67l157.5-.19s26.28-16,31.31-26.73,7.39-45.09,5.5-72.13-12.76-66.15-16.53-78.72-3.55-107.1-3.55-107.1l-18.26-.89s2.51,36.47-7.55,53.44-39.6,39-68.52,39.6-62.77-8.48-75.44-21.37C100.2,330,91.71,314.07,90.85,298.24,90.45,290.71,90.23,270,90.23,270Z"/><path class="cls-11" d="M127.16,331.9l-1.41,6.77,2.53,2.25-1.41,5.92,1.41,3.38-1.41,2.25-2.53,45.09.84.84s0,7.33-1.12,8.74-8.18,7-8.46,22.26l-.84.56v69l.84,1.41.28,9.87s.57,3.66,7.05,6.19h35.78s6.2-.84,8.17-5.63v-9.3l1.13-1.69v-69.6l-1.13-.84a27.34,27.34,0,0,0-7.32-22.26l-2-8.74.84-1.13L155.9,353l-1.69-2.54,2-2.54-1.69-7,2.53-2-2-7.05Z"/><polygon class="cls-12" points="115.6 429.4 166.88 429.4 168.01 430.24 168.01 499.84 166.88 501.53 115.6 501.53 115.6 500.4 114.76 498.99 114.76 429.96 115.6 429.4"/><polyline class="cls-12" points="124.34 397.56 125.18 398.4 157.59 398.4 158.43 397.27 155.9 353.04 154.21 350.5 128.28 350.22 126.87 352.47"/><polyline class="cls-13" points="128.28 340.92 154.49 340.92 157.02 338.95 155.05 331.9 127.16 331.9 125.46 339.23"/><path class="cls-14" d="M101.38,122.66s-3.91-4.46-7.26-6.14S83,112.06,83.52,118.2s2.75,9.89,6.69,15.07c4.38,5.73,8.18,14.53,8.18,14.53l4.1,8.91Z"/><path class="cls-14" d="M256,122.66s3.78-4.46,7-6.14,10.82-4.46,10.28,1.68S271,130,267,134.93a65.22,65.22,0,0,0-8.18,12.87l-3.43,8.95Z"/><path class="cls-6" d="M200.62,132.8c-6-2-9-2-11,0a14.63,14.63,0,0,0-3,5s-8,0-10,4,0,11,6,12,6,0,6,0-4,5,0,9,4,4,11,3c1,7,1,10,4,11s6,1,10-2c-1,10-1,8,2,11s4,3,4,3-2,4,0,6,7,3,7,3-4,8,3,12a14.44,14.44,0,0,0,13,1s-3,8,3,11,8,1,12,0c1,2,1,3,4,3a4.33,4.33,0,0,0,4-2s-2,9,5,10a12.36,12.36,0,0,0,11-4s-1,1,2,3,5,0,5,0-3,8,3,10,9,1,11-1,3-7,3-7,2,2,5,0a6.46,6.46,0,0,0,3-5,3.1,3.1,0,0,0,4,2c3-1,8-1,8-8s-5-8-5-8a22.28,22.28,0,0,0,2-9,12,12,0,0,0-3-8s4-2,4-6-7-8-7-8,3-5,1-7-10-4-10-4-1-5-4-6-10,1-10,1a14.09,14.09,0,0,0-5-3,6.93,6.93,0,0,0-5,0s0-7-5-8a9.13,9.13,0,0,0-8,2,7.81,7.81,0,0,0-2-5c-2-2-10-4-12,0-1-4,0-5-3-6s-4,0-4,0,1-4-1-5a13.38,13.38,0,0,0-5-1s3-4,0-6-14-2-17,0c-3-3-1-3-6-4s-7,0-7,0-1-6-7-5S200.62,132.8,200.62,132.8Z"/><path class="cls-6" d="M151.21,132.8c6-2,9-2,11,0a14.7,14.7,0,0,1,3,5s8,0,10,4,0,11-6,12-6,0-6,0,4,5,0,9-4,4-11,3c-1,7-1,10-4,11s-6,1-10-2c1,10,1,8-2,11s-4,3-4,3,2,4,0,6-7,3-7,3,4,8-3,12a14.36,14.36,0,0,1-13,1s3,8-3,11-8,1-12,0c-1,2-1,3-4,3a4.32,4.32,0,0,1-4-2s2,9-5,10a12.32,12.32,0,0,1-11-4s1,1-2,3-5,0-5,0,3,8-3,10-9,1-11-1-3-7-3-7-2,2-5,0a6.47,6.47,0,0,1-3-5,3.09,3.09,0,0,1-4,2c-3-1-8-1-8-8s5-8,5-8a22.37,22.37,0,0,1-2-9,12,12,0,0,1,3-8s-4-2-4-6,7-8,7-8-3-5-1-7,10-4,10-4,1-5,4-6,10,1,10,1a14.11,14.11,0,0,1,5-3,6.87,6.87,0,0,1,5,0s0-7,5-8a9.09,9.09,0,0,1,8,2,7.83,7.83,0,0,1,2-5c2-2,10-4,12,0,1-4,0-5,3-6s4,0,4,0-1-4,1-5a13.28,13.28,0,0,1,5-1s-3-4,0-6,14-2,17,0c3-3,1-3,6-4s7,0,7,0,1-6,7-5S151.21,132.8,151.21,132.8Z"/><circle class="cls-7" cx="137.28" cy="94.89" r="20.42"/><circle class="cls-8" cx="137.28" cy="90.8" r="18.5"/><circle cx="137.62" cy="90.8" r="6.5"/><path class="cls-15" d="M139.62,73.8c-2,1-3.77,1.81-3,3,1.11,1.69,2.87,1.69,3.21,3.65.17,1-.21,2.35-1.21,2.35s-1,1.27,0,1c1.73-.49,2.45-2.83,1.69-4.59-.66-1.5-2.77-1.87-2.77-2.87s1.33-1.43,1.33-1.43C140.87,73.91,139.62,73.8,139.62,73.8Z"/><circle class="cls-7" cx="215.09" cy="94.89" r="20.42"/><circle class="cls-8" cx="215.01" cy="91.3" r="18.5"/><circle cx="215.01" cy="91.3" r="6.5"/><path class="cls-15" d="M220.14,98.15c1.43,1.71,2.63,3.25,3.61,2.22,1.39-1.46,1-3.18,2.81-4,.92-.39,2.34-.35,2.57.63s1.45.64,1-.23c-.87-1.57-3.31-1.73-4.85-.58-1.31,1-1.18,3.12-2.16,3.35s-1.7-1-1.7-1C220,96.9,220.14,98.15,220.14,98.15Z"/><path class="cls-15" d="M214.06,83.13c-1.75,1.81-3.21,3.44-4.35,2.24-1.63-1.71-1.11-3.6-3.28-4.58-1.08-.49-2.77-.53-3.06.54s-1.75.62-1.16-.32c1.07-1.69,4-1.71,5.79-.33,1.54,1.17,1.35,3.55,2.5,3.87s2.05-1,2.05-1C214.29,81.77,214.06,83.13,214.06,83.13Z"/><path class="cls-15" d="M210.64,78.94c-.24-.63-2-.27-2.31.27a7.43,7.43,0,0,0-.38,2.37l.54.49a7.61,7.61,0,0,1,.29-1.87c.26-.63.44-1.12,1.13-1S210.64,78.94,210.64,78.94Z"/><ellipse class="cls-16" cx="176.62" cy="119.8" rx="24" ry="20"/><path class="cls-17" d="M264.48,405.63c-21.3,12-56,13.14-60.78,11-15.19-6.8,2.89,7.32,22.43,6.8S264.48,405.63,264.48,405.63Z"/><path class="cls-17" d="M268.53,511.31C212,538,193.19,547.93,103.21,520.73c-1.59-.48,36.69,22.34,84.23,21.45S268.53,511.31,268.53,511.31Z"/><path class="cls-17" d="M67.63,303.09s5.76,13.61,11.51,39.76,10.47,46.57,3.14,66.45S66.59,436,65.54,449.06a215.52,215.52,0,0,1-3.66,25.11L37.81,387.32Z"/><path class="cls-5" d="M71.43,271.94s-22.31,2.63-34.25,16.46S5.78,314.8,3.89,338.06s4.37,32.06,6.26,54.07-4.4,56.58,2.51,74.81,6.92,27.66,26.41,33.31,24.38,10.89,38.37,8.51c15.13-2.58,19-9.34,28-6.76,6.51,1.86,24.14.77,29.17-1.75s10.69-2.51,18.86-3.77,15.78-2.64,16.38-7c1-7.09-13.24-4.9-13.24-4.9s11.44-1.6,12.58-5.66c2.27-8.12-17-4.4-17-4.4s16.35-8.17,18.23-11.32.63-6.91-5.65-6.91-19.49,2.51-19.49,2.51,21.37-6.91,22-11.31.3-6.64-10.06-6.29c-14.45.49-37.72,6.29-39.6,4.4s-2.52-10.68-1.89-17.6-1.26-10.06-7.54-17-18.15-7.69-15-.78,9.93,12.18,8,22.87.66,26.94-15.06,29.46-22,13.83-23.26-5,4.81-36.68,10.62-48.26c10.53-21,1.91-64.83,1.91-64.83Z"/><path class="cls-17" d="M277.94,326.64s-10.89,35.05-10.89,51.27-1.57,22,4.19,33,16.64,24.58,19.78,37.66,5.76,26.68,5.76,37.15S291,516.54,291,516.54l1.05,17.27L313,482l-4.19-91.56Z"/><path class="cls-5" d="M340,391.41c1.77-22,8-30.8,6.18-54.06s-22.34-35.83-33.55-49.66-32.48-16.14-32.48-16.14l-5.83,79.15s-5.73,36.87,4.15,57.84c5.46,11.58,16.54,30.16,18.87,54.64,1.05,11,3.26,28.69-3.14,45.52-.32,4.05-20.69,34.27-23.38,41.54-1.74,4.68-7.08,13.84-.32,17.39,3.61,1.89,6.76-2.58,8.37-6.44s8.38-15.46,8.38-15.46-5.45,38.36-5.48,43.15c0,5.58.53,9.19,5.15,10,9.34,1.61,9.66-46.06,10.95-46.7s-4.14,43-.59,46.25,7,1.73,8.32-.52,4.19-48.63,4.19-48.63,1.93,44.44,3.86,48.31,3.07,4,5.48,3.22c7.7-2.38.32-52.17.32-52.17s2.25,29,7.08,35.42,7.41,3.54,8.38.32S330,551.85,330,547.66c0-3.36,3.93-46.85,5.82-82.22C339.28,433.9,338.22,413.11,340,391.41Z"/><path class="cls-7" d="M159.44,263.75s3.1,11.35,14.1,11.7,15.14-5.5,16.17-9.29-2.41-4.81-3.44-3.09-6.19,7.91-12,6.88-8.25-2.76-11-5.51S159.44,263.75,159.44,263.75Z"/><circle cx="137.85" cy="201.46" r="1.19"/><circle cx="133.25" cy="200.95" r="1.19"/><circle cx="135.85" cy="209.46" r="1.19"/><circle cx="132.85" cy="213.79" r="1.19"/><circle cx="143.15" cy="209.77" r="1.19"/><circle cx="144.37" cy="203.49" r="1.19"/><circle cx="138.99" cy="213.5" r="1.19"/><circle cx="129.41" cy="208.04" r="1.19"/><circle cx="128.24" cy="223.36" r="1.19"/><circle cx="141.18" cy="206.41" r="1.19"/><circle cx="160.17" cy="212.55" r="1.19"/><circle cx="154.91" cy="206.12" r="1.19"/><circle cx="174.57" cy="216.2" r="1.19"/><circle cx="180.56" cy="221.98" r="1.19"/><circle cx="185.6" cy="219.86" r="1.19"/><circle cx="180.92" cy="215.04" r="1.19"/><circle cx="183.99" cy="210.21" r="1.19"/><circle cx="178.95" cy="206.63" r="1.19"/><circle cx="187.57" cy="205.61" r="1.19"/><circle cx="190.86" cy="209.12" r="1.19"/><circle cx="190.86" cy="215.18" r="1.19"/><circle cx="205.26" cy="214.16" r="1.19"/><circle cx="209.27" cy="218.25" r="1.19"/><circle cx="207.45" cy="224.31" r="1.19"/><circle cx="214.53" cy="224.31" r="1.19"/><circle cx="210.74" cy="231.4" r="1.19"/><circle cx="221.91" cy="225.34" r="1.19"/><circle cx="222.65" cy="220.59" r="1.19"/><circle cx="229.22" cy="217.74" r="1.19"/><circle cx="227.83" cy="223.15" r="1.19"/><circle cx="224.69" cy="209.04" r="1.19"/><circle cx="217.17" cy="217.52" r="1.19"/><circle cx="221.33" cy="214.89" r="1.19"/><circle cx="212.05" cy="213.52" r="1.19"/><circle cx="216.29" cy="209.5" r="1.19"/><circle cx="218.99" cy="201.9" r="1.19"/><circle cx="204.82" cy="229.58" r="1.19"/><circle cx="204.96" cy="232.94" r="1.19"/><circle cx="202.77" cy="224.68" r="1.19"/><circle cx="199.7" cy="234.69" r="1.19"/><circle cx="195.54" cy="220.81" r="1.19"/><circle cx="201.51" cy="220.81" r="1.19"/><circle cx="193.57" cy="224.61" r="1.19"/><circle cx="188.6" cy="224.31" r="1.19"/><circle cx="192.1" cy="233.01" r="1.19"/><circle cx="186.4" cy="236.37" r="1.19"/><circle cx="203.65" cy="207.8" r="1.19"/><circle cx="211.1" cy="203.56" r="1.19"/><circle cx="213" cy="207.07" r="1.19"/><circle cx="195.25" cy="209.41" r="1.19"/><circle cx="197.58" cy="203.49" r="1.19"/><circle cx="198.39" cy="212.4" r="1.19"/><circle cx="174.42" cy="224.17" r="1.19"/><circle cx="176.18" cy="227.6" r="1.19"/><circle cx="171.79" cy="229.63" r="1.19"/><circle cx="171.57" cy="234.82" r="1.19"/><circle cx="179.54" cy="231.97" r="1.19"/><circle cx="184.8" cy="231.68" r="1.19"/><circle cx="198.24" cy="228.24" r="1.19"/><circle cx="167.63" cy="232.92" r="1.19"/><circle cx="166.68" cy="227.31" r="1.19"/><circle cx="163.46" cy="206.92" r="1.19"/><circle cx="151.7" cy="215.11" r="1.19"/><circle cx="156.16" cy="215.47" r="1.19"/><circle cx="143.15" cy="216.79" r="1.19"/><circle cx="136.87" cy="218.18" r="1.19"/><circle cx="139.42" cy="223.8" r="1.19"/><circle cx="127.66" cy="216.11" r="1.19"/><circle cx="132.27" cy="221.28" r="1.19"/><circle cx="138.33" cy="228.7" r="1.19"/><circle cx="153.53" cy="224.02" r="1.19"/><circle cx="159.22" cy="224.39" r="1.19"/><circle cx="156.52" cy="219.57" r="1.19"/><circle cx="161.34" cy="228.11" r="1.19"/><circle cx="164.05" cy="217.74" r="1.19"/><circle cx="166.95" cy="206.63" r="1.19"/><circle cx="166.82" cy="222.49" r="1.19"/><circle cx="168.5" cy="214.67" r="1.19"/><circle cx="165.29" cy="212.19" r="1.19"/><circle cx="173.62" cy="210.14" r="1.19"/><circle cx="155.35" cy="229.5" r="1.19"/><circle cx="149.51" cy="221.1" r="1.19"/><circle cx="145.73" cy="222.78" r="1.19"/><circle cx="150.82" cy="231.84" r="1.19"/><circle cx="143.3" cy="231.33" r="1.19"/><circle cx="150.38" cy="209.34" r="1.19"/><circle cx="151.84" cy="205.17" r="1.19"/></svg>
