<svg xmlns="http://www.w3.org/2000/svg" width="1600" height="900" viewBox="0 0 1600 900"><defs><style>.cls-1{fill:#80c34a;}.cls-2{fill:#a3cd67;}.cls-3{fill:#1e8100;}.cls-4{fill:#1f3900;}.cls-5{fill:#f1f0d8;}.cls-6{fill:#fff;}.cls-7{fill:#8a8a8a;}.cls-8{fill:#e3e3e3;}</style></defs><title>Settings2</title><g id="Layer_2" data-name="Layer 2"><polyline class="cls-1" points="1610.06 -13.12 1610.06 902.12 -11.31 914.71 -24.38 -16.95"/><path class="cls-2" d="M483.79,804.21c-.58-4.58-14-79.49-3.49-115.52,0,0,19.77,57.19,29.66,68,0,0,5.23-129.81,22.68-136.1,0,0,4.65,62.34,8.72,62.91,0,0,82-106.94,138.42-114.37,0,0-96.38,118.37-96.17,148.68,0,0,72.91-85.21,111.3-94.93,0,0-75.61,110.83-72.7,152.11,0,0,34.58-60,80.84-69.76,0,0-53.51,53.75-44.79,98.93Z"/><path class="cls-3" d="M407.32,804.21c-.58-4.65-14-80.84-3.49-117.48,0,0,19.78,58.16,29.66,69.21,0,0,5.24-132,22.69-138.42,0,0,4.65,63.39,8.72,64,0,0,82-108.75,138.42-116.31,0,0-96.38,120.38-96.17,151.21,0,0,72.9-86.66,111.29-96.55,0,0-75.61,112.72-72.7,154.71,0,0,34.58-61.07,80.84-71,0,0-53.5,54.67-44.78,100.62Z"/><path class="cls-2" d="M592.42,263.67c-.58-4.58-14-79.49-3.49-115.52,0,0,19.78,57.19,29.66,68,0,0,5.24-129.81,22.68-136.1,0,0,4.66,62.33,8.73,62.9,0,0,82-106.93,138.42-114.37,0,0-96.38,118.38-96.17,148.69,0,0,72.9-85.21,111.29-94.93,0,0-75.61,110.83-72.7,152.11,0,0,34.58-60,80.84-69.77,0,0-53.51,53.76-44.78,98.94Z"/><path class="cls-3" d="M516,263.67c-.59-4.66-14-80.84-3.49-117.49,0,0,19.77,58.16,29.66,69.21,0,0,5.23-132,22.68-138.41,0,0,4.65,63.39,8.72,64,0,0,82-108.76,138.42-116.32,0,0-96.38,120.39-96.17,151.22,0,0,72.91-86.66,111.29-96.55,0,0-75.6,112.72-72.7,154.71,0,0,34.58-61.07,80.85-71,0,0-53.51,54.67-44.79,100.62Z"/><path class="cls-2" d="M1128.59,363.22c-.58-4.57-14-79.49-3.49-115.51,0,0,19.78,57.18,29.66,68,0,0,5.24-129.81,22.69-136.11,0,0,4.65,62.34,8.72,62.91,0,0,82-106.94,138.42-114.37,0,0-96.38,118.37-96.17,148.68,0,0,72.9-85.21,111.29-94.93,0,0-75.61,110.83-72.7,152.12,0,0,34.58-60.05,80.84-69.77,0,0-53.5,53.75-44.78,98.93Z"/><path class="cls-3" d="M1052.13,363.22c-.58-4.65-14-80.84-3.49-117.48,0,0,19.77,58.16,29.66,69.21,0,0,5.23-132,22.68-138.42,0,0,4.65,63.39,8.72,64,0,0,82-108.76,138.42-116.32,0,0-96.38,120.39-96.17,151.21,0,0,72.91-86.66,111.29-96.54,0,0-75.6,112.71-72.69,154.7,0,0,34.58-61.07,80.84-70.95,0,0-53.51,54.67-44.79,100.61Z"/><path class="cls-2" d="M1215,878.48c.59-4.58,14-79.49,3.49-115.52,0,0-19.77,57.19-29.66,68,0,0-5.23-129.81-22.68-136.1,0,0-4.65,62.33-8.72,62.9,0,0-82-106.93-138.42-114.37,0,0,96.38,118.38,96.17,148.69,0,0-72.91-85.21-111.29-94.93,0,0,75.6,110.82,72.7,152.11,0,0-34.58-60-80.85-69.77,0,0,53.51,53.76,44.79,98.94Z"/><path class="cls-3" d="M1291.44,878.48c.58-4.66,14-80.85,3.49-117.49,0,0-19.77,58.16-29.66,69.21,0,0-5.24-132-22.68-138.42,0,0-4.66,63.4-8.73,64,0,0-82-108.76-138.42-116.32,0,0,96.38,120.39,96.18,151.22,0,0-72.91-86.66-111.3-96.55,0,0,75.61,112.72,72.7,154.7,0,0-34.58-61.06-80.84-70.95,0,0,53.51,54.67,44.78,100.62Z"/><path class="cls-2" d="M148.2,885c-.58-4.58-14-79.49-3.49-115.52,0,0,19.78,57.19,29.66,68,0,0,5.24-129.81,22.69-136.1,0,0,4.65,62.34,8.72,62.91,0,0,82-106.94,138.42-114.37,0,0-96.38,118.37-96.17,148.68,0,0,72.9-85.21,111.29-94.93,0,0-75.61,110.83-72.7,152.11,0,0,34.58-60,80.84-69.76,0,0-53.5,53.75-44.78,98.93Z"/><path class="cls-3" d="M71.74,885c-.59-4.65-14-80.84-3.49-117.48,0,0,19.77,58.16,29.66,69.21,0,0,5.23-132,22.68-138.42,0,0,4.65,63.39,8.72,64,0,0,82-108.75,138.42-116.31,0,0-96.38,120.38-96.17,151.21,0,0,72.91-86.66,111.29-96.55,0,0-75.6,112.72-72.69,154.71,0,0,34.58-61.07,80.84-71,0,0-53.51,54.67-44.79,100.62Z"/><path class="cls-2" d="M262.18,587.81c.58-4.58,14-79.49,3.49-115.52,0,0-19.78,57.19-29.66,68.05,0,0-5.24-129.81-22.69-136.1,0,0-4.65,62.33-8.72,62.9,0,0-82-106.93-138.42-114.37,0,0,96.38,118.38,96.17,148.68,0,0-72.9-85.2-111.29-94.92,0,0,75.61,110.82,72.7,152.11,0,0-34.58-60-80.84-69.77,0,0,53.5,53.76,44.78,98.94Z"/><path class="cls-3" d="M338.64,587.81c.59-4.66,14-80.85,3.49-117.49,0,0-19.77,58.16-29.66,69.21,0,0-5.23-132-22.68-138.42,0,0-4.65,63.4-8.72,64,0,0-82-108.76-138.42-116.32,0,0,96.38,120.39,96.17,151.22,0,0-72.91-86.66-111.29-96.55,0,0,75.6,112.72,72.69,154.7,0,0-34.57-61.06-80.84-70.95,0,0,53.51,54.67,44.79,100.62Z"/><path class="cls-2" d="M1355.33,640.32c-.58-4.58-14-79.49-3.49-115.52,0,0,19.78,57.19,29.66,68.05,0,0,5.24-129.81,22.69-136.1,0,0,4.65,62.33,8.72,62.91,0,0,82-106.94,138.42-114.38,0,0-96.38,118.38-96.17,148.69,0,0,72.9-85.21,111.29-94.93,0,0-75.61,110.83-72.7,152.11,0,0,34.58-60,80.84-69.76,0,0-53.5,53.75-44.78,98.93Z"/><path class="cls-3" d="M1278.87,640.32c-.59-4.66-14-80.84-3.49-117.48,0,0,19.77,58.16,29.66,69.21,0,0,5.23-132,22.68-138.42,0,0,4.65,63.39,8.72,64,0,0,82-108.76,138.42-116.32,0,0-96.38,120.39-96.17,151.22,0,0,72.91-86.66,111.29-96.55,0,0-75.6,112.72-72.7,154.71,0,0,34.58-61.07,80.85-71,0,0-53.51,54.67-44.79,100.62Z"/><path class="cls-4" d="M537.56,900c-18.21-17.45-20.5-32.21-20.5-32.21l-2.94-50.16-8.8-14.52V91.22l8.8-5.81c.62-33,4.36-61.25,10-85.41h521c10.62,49.68,3.39,85.41,3.39,85.41l11.74,8.72V811.82l-11.74,17.44v44.35A78.81,78.81,0,0,1,1032,898.35Z"/><polygon class="cls-5" points="514.12 68.42 1048.45 68.42 1060.19 77.32 1060.19 809.98 1048.45 827.78 514.12 827.78 514.12 815.92 505.32 801.09 505.32 74.36 514.12 68.42"/><path d="M696.21,305.57h22.25l11.86,32.52c1.45,4.4,2.66,9.3,4.11,13.94h.48c1.45-4.64,2.66-9.54,4.12-13.94l11.37-32.52h22.25V385H753.78V361.57c0-8.07,1.7-20.42,2.66-28.37H756l-6.53,19.07-9.68,26.29H728.62L719,352.27l-6.29-19.07h-.49c1,7.95,2.66,20.3,2.66,28.37V385H696.21Z"/><path d="M787.89,361.57V323.91h20.8v35c0,7.82,1.94,9.78,6,9.78,3.87,0,6-1.47,8.71-5.38V323.91h20.8V385H827.32L825.87,377h-.49c-4.84,5.87-10.4,9.54-18.62,9.54C793.45,386.51,787.89,376.73,787.89,361.57Z"/><path d="M853.44,378l9.19-13c5.57,4.16,10.53,6.11,14.76,6.11s6.05-1.22,6.05-3.67c0-3.17-5.57-4.64-11.61-7.09-7-2.81-15.24-8.07-15.24-18.09,0-12,9.67-19.8,23.94-19.8,9.92,0,16.94,4,22.26,8.06L893.6,343c-4.36-3.17-8.59-5.13-12.34-5.13-3.51,0-5.32,1-5.32,3.42,0,3.18,5.32,4.4,11.37,6.6,7.26,2.69,15.48,7.34,15.48,18.34,0,11.49-8.95,20.3-25.88,20.3C869.16,386.51,859.73,383.08,853.44,378Z"/><path d="M911.74,305.82c0-6.11,4.84-10.51,11.61-10.51S935,299.71,935,305.82s-4.84,10.51-11.61,10.51S911.74,311.93,911.74,305.82ZM913,323.91h20.8V385H913Z"/><path d="M944.64,354.48c0-20.3,15.24-32,32.41-32a26.42,26.42,0,0,1,17.66,6.35L985,342.25c-2.67-2.2-4.6-2.93-6.78-2.93-7.74,0-12.34,5.86-12.34,15.16s5.08,15.16,11.62,15.16c3.38,0,6.77-1.72,9.67-3.92l8,13.7c-6.05,5.37-13.79,7.09-20.08,7.09C957.94,386.51,944.64,374.77,944.64,354.48Z"/><path d="M751.7,603.63l11.86-14.43c5.56,4.53,12.57,7.71,18.38,7.71,6.29,0,8.95-2.08,8.95-5.63,0-3.79-4-5-10.64-7.7l-9.8-4.16C762,576,754.6,568.79,754.6,557.3c0-13.57,12.1-24.7,29.28-24.7A37.54,37.54,0,0,1,810,543.24l-10.4,13.2c-5.32-3.79-9.92-5.75-15.72-5.75-5.08,0-8.23,1.84-8.23,5.38,0,3.79,4.48,5.14,11.61,7.95l9.56,3.79c9.8,3.91,15.36,10.76,15.36,21.76,0,13.45-11.13,25.43-30.72,25.43A45.28,45.28,0,0,1,751.7,603.63Z"/><path d="M824.76,534.07H876v17.6H845.56v15.16h26.13v17.61H845.56v29.09h-20.8Z"/><path d="M899.75,572.7l-20.08-38.63h23.22l5.32,13c1.7,3.66,3.39,8.07,5.57,13.2h.48c1.69-5.13,3.39-9.54,4.84-13.2l4.59-13H946l-20.08,39.61,21.29,39.85H923.94l-6.29-14.18c-1.94-4.16-3.63-8.31-5.57-13.2h-.48c-1.69,4.89-3.39,9-5.08,13.2l-5.81,14.18H878.46Z"/><rect class="cls-6" x="526.15" y="262.06" width="128.29" height="175.93" rx="16.45"/><rect class="cls-6" x="526.15" y="486.09" width="128.29" height="175.93" rx="16.45"/><ellipse class="cls-7" cx="83.39" cy="68.42" rx="47.18" ry="44.32"/><rect class="cls-8" x="43.98" y="64.55" width="78.53" height="6.81" transform="translate(-23.66 78.89) rotate(-45.07)"/><rect class="cls-8" x="43.98" y="64.55" width="78.53" height="6.81" transform="translate(72.31 -38.94) rotate(44.93)"/></g></svg>
