<svg xmlns="http://www.w3.org/2000/svg" width="560" height="910" viewBox="0 0 560 910"><defs><style>.cls-1{fill:#1f3900;}.cls-2{fill:#f1f0d8;}.cls-3{fill:#fff;}</style></defs><title>Settings</title><g id="Layer_2" data-name="Layer 2"><path class="cls-1" d="M34.8,905c-18.2-17.45-20.49-32.21-20.49-32.21l-2.94-50.16L2.56,808.11V96.22l8.81-5.81c.62-33,4.35-61.25,10-85.41h521c10.62,49.68,3.38,85.41,3.38,85.41l11.75,8.72V816.82l-11.75,17.44v44.35a78.48,78.48,0,0,1-16.48,24.74Z"/><polygon class="cls-2" points="11.37 73.42 545.7 73.42 557.44 82.32 557.44 814.98 545.7 832.78 11.37 832.78 11.37 820.92 2.56 806.09 2.56 79.36 11.37 73.42"/><path d="M193.45,310.57h22.26l11.85,32.52c1.45,4.4,2.66,9.3,4.11,13.94h.49c1.45-4.64,2.66-9.54,4.11-13.94l11.37-32.52H269.9V390H251V366.57c0-8.07,1.69-20.42,2.66-28.37h-.48l-6.54,19.07L237,383.56H225.87l-9.68-26.29L209.9,338.2h-.48c1,7.95,2.66,20.3,2.66,28.37V390H193.45Z"/><path d="M285.13,366.57V328.91h20.81v35c0,7.82,1.93,9.78,6,9.78,3.88,0,6-1.47,8.71-5.38V328.91H341.5V390H324.56L323.11,382h-.48c-4.84,5.87-10.4,9.54-18.63,9.54C290.7,391.51,285.13,381.73,285.13,366.57Z"/><path d="M350.69,383l9.19-13c5.56,4.16,10.52,6.11,14.76,6.11s6-1.22,6-3.67c0-3.17-5.56-4.64-11.61-7.09-7-2.81-15.24-8.07-15.24-18.09,0-12,9.68-19.8,23.95-19.8,9.92,0,16.93,4,22.26,8.06L390.84,348c-4.35-3.17-8.58-5.13-12.33-5.13-3.51,0-5.33,1-5.33,3.42,0,3.18,5.33,4.4,11.37,6.6,7.26,2.69,15.49,7.34,15.49,18.34,0,11.49-9,20.3-25.89,20.3C366.41,391.51,357,388.08,350.69,383Z"/><path d="M409,310.82c0-6.11,4.84-10.51,11.62-10.51s11.61,4.4,11.61,10.51-4.84,10.51-11.61,10.51S409,316.93,409,310.82Zm1.21,18.09H431V390H410.19Z"/><path d="M441.88,359.48c0-20.3,15.24-32,32.42-32A26.46,26.46,0,0,1,492,333.8l-9.68,13.45c-2.66-2.2-4.6-2.93-6.77-2.93-7.74,0-12.34,5.86-12.34,15.16s5.08,15.16,11.61,15.16c3.39,0,6.77-1.72,9.68-3.92l8,13.7c-6.05,5.37-13.79,7.09-20.08,7.09C455.19,391.51,441.88,379.77,441.88,359.48Z"/><path d="M249,608.63,260.8,594.2c5.56,4.53,12.58,7.71,18.39,7.71,6.29,0,8.95-2.08,8.95-5.63,0-3.79-4-5-10.65-7.7l-9.79-4.16c-8.47-3.42-15.85-10.63-15.85-22.12,0-13.57,12.1-24.7,29.27-24.7a37.57,37.57,0,0,1,26.13,10.64l-10.4,13.2c-5.33-3.79-9.92-5.75-15.73-5.75-5.08,0-8.22,1.84-8.22,5.38,0,3.79,4.47,5.14,11.61,7.95l9.55,3.79c9.8,3.91,15.36,10.76,15.36,21.76C309.42,608,298.3,620,278.7,620A45.23,45.23,0,0,1,249,608.63Z"/><path d="M322,539.07h51.29v17.6H342.81v15.16h26.12v17.61H342.81v29.09H322Z"/><path d="M397,577.7l-20.08-38.63h23.23l5.32,13c1.69,3.66,3.38,8.07,5.56,13.2h.49c1.69-5.13,3.38-9.54,4.83-13.2l4.6-13H443.2l-20.08,39.61,21.29,39.85H421.18l-6.29-14.18c-1.93-4.16-3.63-8.31-5.56-13.2h-.49c-1.69,4.89-3.38,9-5.08,13.2L398,618.53H375.7Z"/><rect class="cls-3" x="23.39" y="267.06" width="128.29" height="175.93" rx="16.45"/><rect class="cls-3" x="23.39" y="491.09" width="128.29" height="175.93" rx="16.45"/></g></svg>
