<svg xmlns="http://www.w3.org/2000/svg" width="110" height="110" viewBox="0 0 110 110"><defs><style>.cls-1{fill:#666;}.cls-2{fill:#8a8a8a;}.cls-3{fill:none;}.cls-4{fill:#e3e3e3;}</style></defs><title>settingsikon</title><g id="Layer_2" data-name="Layer 2"><polygon class="cls-1" points="37.09 19.3 43.62 16.59 48.8 2.4 62.55 2.4 67.05 16.59 74.03 19.3 87.33 13.44 96.56 22.45 91.16 36.64 93.63 42.95 107.38 48.35 107.38 61.42 94.53 66.6 91.16 74.26 96.56 87.1 87.78 96.34 74.03 90.93 67.28 93.86 62.55 107.6 48.58 107.6 43.85 93.86 37.09 91.16 22.9 97.01 13.66 87.33 19.52 74.49 16.37 67.05 2.63 61.87 2.63 49.03 16.59 42.95 19.75 36.87 13.66 23.35 23.57 13.89 37.09 19.3"/><circle class="cls-2" cx="55.34" cy="55.11" r="30.41"/><circle class="cls-3" cx="55.56" cy="55.34" r="19.37"/><ellipse class="cls-4" cx="55.56" cy="54.66" rx="11.26" ry="10.32"/></g></svg>
