<svg xmlns="http://www.w3.org/2000/svg" xmlns:xlink="http://www.w3.org/1999/xlink" width="1600" height="900" viewBox="0 0 1600 900"><defs><style>.cls-1{fill:#80c34a;}.cls-2{fill:#a3cd67;}.cls-3{fill:#1e8100;}.cls-4{fill:#80b73f;}.cls-5{fill:#1a6a00;}.cls-6{fill:#1f3900;}.cls-7{fill:#f1f0d8;}.cls-8{fill:gray;}.cls-9{fill:#4d4d4d;}.cls-10{fill:#8a8a8a;}.cls-11{fill:#1a4b00;}.cls-12{fill:#333;}.cls-13{fill:#a4a4a4;}.cls-14{fill:#fff;}.cls-15{fill:url(#linear-gradient);}.cls-16{fill:url(#linear-gradient-2);}.cls-17{fill:url(#linear-gradient-3);}</style><linearGradient id="linear-gradient" x1="25.25" y1="74.34" x2="141.53" y2="74.34" gradientUnits="userSpaceOnUse"><stop offset="0" stop-color="#3d1300"/><stop offset="1" stop-color="red"/></linearGradient><linearGradient id="linear-gradient-2" x1="148.06" y1="74.34" x2="264.33" y2="74.34" xlink:href="#linear-gradient"/><linearGradient id="linear-gradient-3" x1="270.86" y1="74.34" x2="387.13" y2="74.34" xlink:href="#linear-gradient"/></defs><title>Spilskærm</title><g id="Layer_2" data-name="Layer 2"><polyline class="cls-1" points="1610.06 -26.82 1610.06 901.93 -11.31 914.71 -24.38 -30.7"/><path class="cls-2" d="M592.42,263.67c-.58-4.58-14-79.49-3.49-115.52,0,0,19.78,57.19,29.66,68,0,0,5.24-129.81,22.68-136.1,0,0,4.66,62.33,8.73,62.9,0,0,82-106.93,138.42-114.37,0,0-96.38,118.38-96.17,148.69,0,0,72.9-85.21,111.29-94.93,0,0-75.61,110.83-72.7,152.11,0,0,34.58-60,80.84-69.77,0,0-53.51,53.76-44.78,98.94Z"/><path class="cls-3" d="M516,263.67c-.59-4.66-14-80.84-3.49-117.49,0,0,19.77,58.16,29.66,69.21,0,0,5.23-132,22.68-138.41,0,0,4.65,63.39,8.72,64,0,0,82-108.76,138.42-116.32,0,0-96.38,120.39-96.17,151.22,0,0,72.91-86.66,111.29-96.55,0,0-75.6,112.72-72.7,154.71,0,0,34.58-61.07,80.85-71,0,0-53.51,54.67-44.79,100.62Z"/><path class="cls-2" d="M1128.59,363.22c-.58-4.57-14-79.49-3.49-115.51,0,0,19.78,57.18,29.66,68,0,0,5.24-129.81,22.69-136.11,0,0,4.65,62.34,8.72,62.91,0,0,82-106.94,138.42-114.37,0,0-96.38,118.37-96.17,148.68,0,0,72.9-85.21,111.29-94.93,0,0-75.61,110.83-72.7,152.12,0,0,34.58-60.05,80.84-69.77,0,0-53.5,53.75-44.78,98.93Z"/><path class="cls-3" d="M1052.13,363.22c-.58-4.65-14-80.84-3.49-117.48,0,0,19.77,58.16,29.66,69.21,0,0,5.23-132,22.68-138.42,0,0,4.65,63.39,8.72,64,0,0,82-108.76,138.42-116.32,0,0-96.38,120.39-96.17,151.21,0,0,72.91-86.66,111.29-96.54,0,0-75.6,112.71-72.69,154.7,0,0,34.58-61.07,80.84-70.95,0,0-53.51,54.67-44.79,100.61Z"/><polygon class="cls-4" points="1050.71 500.48 1062.52 514.14 1076.54 454.85 1046.31 468.84 1050.71 500.48"/><path class="cls-5" d="M537.81,393.64l57-30.31c-20.74-22.93-40.59-44.92-57-63.18Z"/><path class="cls-4" d="M1122.75,366.55C1110,357.42,809.17,166,809.17,166c-1.23-.73-4.81-4.74-17.32-4.13l-291.3,79.22s-12.56,1.46-4.95,11.56c1.94,2.56-3.06-4,20.62,22.27l4.68,5.43,259.31-82.69-6.4,70.52-179,95.12c67,74.09,143.22,158,143.22,158s8.61,12,28.16,11.35c25-.82,356-149.85,356-149.85S1135.54,375.68,1122.75,366.55Z"/><polygon points="804.98 155.25 801.79 153 802.2 473.38 806.33 470.9 804.98 155.25"/><polygon points="801.98 153.09 798.36 154.12 799.18 468.52 802.48 473.47 801.98 153.09"/><path class="cls-6" d="M735.14,305.73c-3-1.11-10.3,9.7-13.95,17.21-3.71,7.67-9,23-4.28,47.16l6.82,112.57s-3,46.91,53.4,44.14c51.27-2.52,44.32-45.49,44.32-45.49l7.32-127.71a76.21,76.21,0,0,0-4.08-29.7c-5.26-14.93-11.42-19.73-14.29-19.24-3,.52-2.75,5.81-8.28,12.17-9.48,10.89-24.65,11.77-28.18,12-11.88.69-23.65-3.34-29.5-9a32.7,32.7,0,0,1-7.06-9.25C736.09,307.64,736.16,306.11,735.14,305.73Z"/><path class="cls-7" d="M735.14,305.73s9.17,27.39,38.8,23.08,36.73-23.71,36.73-23.71L798.28,213s-.92,16.06-25.93,16.84-28.41-17.11-28.41-17.11Z"/><path class="cls-7" d="M716.67,368.82s26.51,28.06,57.43,23.52,42.23-14.65,54.1-28.82l-6.75,117.8s-8.83,16.24-44.85,21.76-53.9-18.89-53.9-18.89Z"/><path class="cls-8" d="M752.58,216.35l2.56-.48,3,2.07.45,2.4,4.9-2.09,1.52,1,1.12,1.86,3-1.31,5.11-1,1.77,2.31,2.07-3,3.83-.73,1.52,1,2.07-3,6.63.06-.73-3.83,4.75-1.12.92-3.93,2.55-.49-1-5.11,2.31-1.76-2.25-4.87-2.49-6.15s-9.3-14.12-27.19-10.72-20.75,9.24-20.75,9.24-4.63,3.53-5.49,13l-.79,2.8,1.52,1-.55,4.08,3.84-.73-.31,5.35,2.55-.48,2.8.79Z"/><path class="cls-9" d="M796.22,188.2s5.47,14.85-21.36,20-29.45-15.59-29.45-15.59-.66-10.47,21.7-14.72C788.2,173.84,796.22,188.2,796.22,188.2Z"/><path class="cls-6" d="M743.94,212.7s3.4,17.89,28.41,17.11S798.28,213,798.28,213l-1.21-6.39-.8,2.8-4.87,2.25.73,3.83-6.63-.06-2.07,3-1.52-1-3.83.73-2.07,3-1.77-2.31-5.11,1-2.56.49-3-2.07-5.11,1-.24-1.28-3-2.07-2.56.48-.73-3.83-2.8-.79-2.55.48.31-5.35-2.48.47Z"/><path class="cls-6" d="M788.14,350.37c-3-1.11-10.3,9.7-13.94,17.22s-9,23-4.29,47.15l6.82,112.57s-3,46.91,53.41,44.14C881.4,568.93,874.46,526,874.46,526l7.31-127.7a76.26,76.26,0,0,0-4.08-29.71c-5.25-14.93-11.42-19.72-14.28-19.24-3,.52-2.75,5.81-8.28,12.17-9.49,10.89-24.66,11.77-28.18,12-11.88.69-23.65-3.33-29.51-9a32.52,32.52,0,0,1-7.05-9.25C789.09,352.28,789.16,350.75,788.14,350.37Z"/><path class="cls-7" d="M788.14,350.37s9.17,27.39,38.81,23.08,36.72-23.71,36.72-23.71l-12.39-92.13s-.92,16.06-25.93,16.84S797,257.34,797,257.34Z"/><path class="cls-7" d="M769.67,413.46S796.19,441.53,827.1,437s42.23-14.65,54.11-28.82L874.46,526s-8.84,16.24-44.86,21.76-53.9-18.89-53.9-18.89Z"/><path class="cls-8" d="M805.58,261l2.56-.49,3,2.07.46,2.4,4.9-2.09,1.52,1,1.12,1.86,3-1.31,5.11-1,1.77,2.31,2.07-3,3.83-.73,1.52,1,2.07-3,6.64.06-.73-3.83,4.74-1.11.92-3.94,2.55-.48-1-5.12,2.32-1.76L851.72,239l-2.49-6.14s-9.31-14.13-27.2-10.73-20.75,9.24-20.75,9.24-4.63,3.53-5.48,13l-.8,2.8,1.52,1-.55,4.08,3.84-.73-.31,5.36,2.56-.49,2.8.79Z"/><path class="cls-9" d="M849.23,232.85s5.46,14.84-21.37,19.94-29.44-15.59-29.44-15.59-.67-10.46,21.69-14.71C841.2,218.48,849.23,232.85,849.23,232.85Z"/><path class="cls-6" d="M797,257.34s3.39,17.89,28.4,17.11,25.93-16.84,25.93-16.84l-1.21-6.39-.79,2.8-4.87,2.25.73,3.83L838.5,260l-2.07,3-1.52-1-3.83.73-2.07,3-1.77-2.31-5.11,1-2.55.49-3-2.07-5.12,1-.24-1.28-3-2.07-2.56.49-.72-3.84-2.8-.79-2.56.49.31-5.36-2.48.47Z"/><path class="cls-6" d="M845.05,397.35c-3-1.11-10.3,9.71-13.94,17.22-3.72,7.66-9,23-4.29,47.15l6.82,112.57s-3,46.92,53.41,44.14c51.26-2.51,44.32-45.49,44.32-45.49l7.32-127.7a76.48,76.48,0,0,0-4.09-29.71c-5.25-14.92-11.42-19.72-14.28-19.23-3.05.52-2.75,5.81-8.28,12.16-9.48,10.9-24.66,11.77-28.18,12-11.88.69-23.65-3.33-29.51-8.95a32.63,32.63,0,0,1-7.05-9.26C846,399.26,846.08,397.73,845.05,397.35Z"/><path class="cls-7" d="M845.05,397.35s9.17,27.39,38.81,23.08,36.72-23.7,36.72-23.7l-12.39-92.14s-.92,16.07-25.93,16.85-28.4-17.12-28.4-17.12Z"/><path class="cls-7" d="M826.58,460.44S853.1,488.51,884,484s42.24-14.64,54.11-28.82l-6.75,117.8s-8.83,16.24-44.86,21.76-53.9-18.89-53.9-18.89Z"/><path class="cls-8" d="M862.5,308l2.55-.49,3,2.07.46,2.4,4.9-2.09,1.52,1,1.12,1.86,2.95-1.31,5.12-1,1.76,2.32,2.07-3,3.83-.73,1.52,1,2.07-3,6.64.06-.73-3.83,4.74-1.11.92-3.94,2.56-.48-1-5.11,2.32-1.77L908.63,286l-2.49-6.14s-9.31-14.12-27.2-10.73-20.75,9.24-20.75,9.24-4.63,3.53-5.48,13l-.8,2.8,1.53,1-.55,4.08,3.83-.73-.31,5.36,2.56-.49,2.8.79Z"/><path class="cls-9" d="M906.14,279.83s5.47,14.85-21.37,19.94-29.44-15.59-29.44-15.59-.67-10.46,21.7-14.71C898.11,265.46,906.14,279.83,906.14,279.83Z"/><path class="cls-6" d="M853.86,304.32s3.4,17.89,28.4,17.12,25.93-16.85,25.93-16.85L907,298.2l-.79,2.8-4.87,2.25.73,3.83-6.64-.06-2.07,3-1.52-1-3.83.73-2.07,3-1.76-2.32-5.12,1-2.55.49-3-2.07-5.11,1-.25-1.28-3-2.07-2.55.49-.73-3.84-2.8-.79-2.56.49.31-5.36-2.48.47Z"/><path class="cls-6" d="M906.09,449.34c-3-1.11-10.3,9.7-14,17.21-3.71,7.67-9,23-4.28,47.16l6.82,112.57s-3,46.91,53.4,44.14c51.27-2.52,44.32-45.49,44.32-45.49l7.32-127.7a76.26,76.26,0,0,0-4.08-29.71c-5.25-14.93-11.42-19.73-14.28-19.24-3.06.52-2.76,5.81-8.29,12.17-9.48,10.89-24.65,11.77-28.17,12-11.89.69-23.66-3.33-29.51-9a32.52,32.52,0,0,1-7-9.25C907,451.25,907.11,449.72,906.09,449.34Z"/><path class="cls-7" d="M906.09,449.34s9.17,27.39,38.81,23.08,36.72-23.71,36.72-23.71l-12.39-92.13s-.92,16.06-25.93,16.84-28.41-17.11-28.41-17.11Z"/><path class="cls-7" d="M887.62,512.43S914.13,540.5,945.05,536s42.23-14.65,54.1-28.82l-6.75,117.8s-8.83,16.24-44.85,21.76-53.9-18.89-53.9-18.89Z"/><path class="cls-8" d="M923.53,360l2.56-.49,3,2.07.45,2.4,4.9-2.09,1.52,1,1.12,1.86,3-1.31,5.11-1,1.77,2.31,2.07-3,3.83-.73,1.52,1,2.07-3,6.63.06-.72-3.83,4.74-1.11.92-3.94,2.55-.48-1-5.12,2.31-1.76L969.67,338l-2.5-6.15s-9.3-14.12-27.19-10.72-20.75,9.24-20.75,9.24-4.63,3.53-5.49,13l-.79,2.8,1.52,1-.55,4.08,3.84-.73-.31,5.35,2.56-.48,2.79.79Z"/><path class="cls-9" d="M967.17,331.81s5.47,14.85-21.36,19.95-29.45-15.59-29.45-15.59-.66-10.47,21.7-14.71C959.15,317.45,967.17,331.81,967.17,331.81Z"/><path class="cls-6" d="M914.89,356.31s3.4,17.89,28.41,17.11,25.93-16.84,25.93-16.84L968,350.19l-.8,2.8-4.86,2.25.72,3.83-6.63-.06-2.07,3-1.52-1-3.83.73-2.07,3-1.77-2.31-5.11,1-2.55.49-3-2.07-5.11,1-.24-1.28-3-2.07-2.56.49-.73-3.84-2.79-.79-2.56.48.31-5.35-2.48.47Z"/><path class="cls-6" d="M975.19,501.11c-3-1.11-10.3,9.7-14,17.22s-9,23-4.28,47.15l6.82,112.57s-21.72,16.87,34.69,14.1c51.26-2.52,63-15.45,63-15.45l7.32-127.7a76.26,76.26,0,0,0-4.08-29.71c-5.26-14.93-11.42-19.73-14.29-19.24-3,.52-2.75,5.81-8.28,12.17-9.48,10.89-24.65,11.77-28.18,12-11.88.69-23.65-3.33-29.5-9a32.7,32.7,0,0,1-7.06-9.25C976.14,503,976.21,501.49,975.19,501.11Z"/><path class="cls-7" d="M975.19,501.11s9.17,27.39,38.8,23.08,36.73-23.71,36.73-23.71l-12.39-92.13s-.92,16.06-25.93,16.84S984,408.08,984,408.08Z"/><path class="cls-7" d="M956.72,564.2s26.51,28.07,57.43,23.52,42.23-14.65,54.1-28.82l-6.75,117.8s-8.83,16.24-44.85,21.76-53.9-18.89-53.9-18.89Z"/><path class="cls-10" d="M992.63,411.74l2.56-.49,3,2.07.45,2.4,4.9-2.09,1.52,1,1.12,1.86,3-1.31,5.11-1,1.77,2.31,2.07-3,3.83-.73,1.52,1,2.07-3,6.63.06-.73-3.83,4.75-1.11.92-3.94,2.55-.48-1-5.12,2.31-1.76-2.25-4.87-2.49-6.15s-9.3-14.12-27.19-10.72-20.75,9.24-20.75,9.24-4.63,3.53-5.49,13l-.79,2.8,1.52,1L983,403l3.84-.73-.31,5.35,2.55-.48,2.8.79Z"/><path class="cls-9" d="M1036.27,383.58s5.47,14.85-21.36,19.95-29.45-15.59-29.45-15.59-.66-10.47,21.7-14.71C1028.25,369.22,1036.27,383.58,1036.27,383.58Z"/><path class="cls-6" d="M984,408.08s3.4,17.89,28.41,17.11,25.93-16.84,25.93-16.84l-1.21-6.39-.8,2.8-4.87,2.25.73,3.83-6.63-.06-2.07,3-1.52-1-3.83.73-2.07,3-1.77-2.31-5.11,1-2.56.49-3-2.07-5.11,1-.24-1.28-3-2.07-2.56.49-.73-3.84-2.8-.79-2.55.48.31-5.35-2.48.47Z"/><path class="cls-6" d="M669.24,331.35c-3-1.12-10.29,9.7-13.94,17.21-3.72,7.66-9,23-4.28,47.15l6.82,112.58s-3,46.91,53.4,44.14c51.27-2.52,44.32-45.5,44.32-45.5l7.32-127.7a76.29,76.29,0,0,0-4.08-29.71c-5.26-14.92-11.42-19.72-14.29-19.23-3,.52-2.75,5.81-8.28,12.16-9.48,10.9-24.65,11.77-28.18,12-11.88.68-23.65-3.34-29.5-9a32.7,32.7,0,0,1-7.06-9.25C670.2,333.25,670.27,331.73,669.24,331.35Z"/><path class="cls-7" d="M669.24,331.35s9.18,27.38,38.81,23.08,36.72-23.71,36.72-23.71l-12.38-92.13s-.92,16.06-25.93,16.84-28.41-17.11-28.41-17.11Z"/><path class="cls-7" d="M650.78,394.44S677.29,422.5,708.21,418s42.23-14.64,54.1-28.81l-6.75,117.79s-8.83,16.25-44.85,21.77-53.9-18.89-53.9-18.89Z"/><path class="cls-8" d="M686.69,242l2.56-.48,3,2.07.45,2.39,4.9-2.09,1.52,1,1.12,1.85,3-1.3,5.11-1,1.76,2.31,2.08-3L716,243l1.52,1,2.07-3,6.63.07-.73-3.84,4.75-1.11.92-3.93,2.55-.49-1-5.11,2.31-1.76L732.82,220l-2.49-6.15S721,199.7,703.14,203.1s-20.75,9.24-20.75,9.24-4.63,3.52-5.49,12.95l-.79,2.8,1.52,1-.55,4.07,3.84-.72-.31,5.35,2.55-.49,2.8.8Z"/><path class="cls-9" d="M730.33,213.82s5.47,14.85-21.36,20-29.45-15.59-29.45-15.59-.66-10.47,21.7-14.72C722.31,199.46,730.33,213.82,730.33,213.82Z"/><path class="cls-6" d="M678.05,238.32s3.4,17.89,28.41,17.11,25.93-16.84,25.93-16.84l-1.21-6.39-.8,2.79-4.87,2.25.73,3.84-6.63-.07-2.07,3L716,243l-3.83.73-2.08,3-1.76-2.31-5.11,1-2.56.48-3-2.07-5.11,1-.24-1.27-3-2.07-2.56.48-.73-3.83-2.8-.8-2.55.49.31-5.35-2.48.47Z"/><path class="cls-6" d="M716.28,373.43c-3-1.11-10.3,9.7-13.94,17.22s-9,23-4.28,47.15l6.82,112.57s-3,46.91,53.4,44.14C809.54,592,802.6,549,802.6,549l7.32-127.7a76.45,76.45,0,0,0-4.08-29.71c-5.26-14.93-11.42-19.73-14.29-19.24-3,.52-2.75,5.81-8.28,12.17-9.48,10.89-24.65,11.77-28.18,12-11.88.69-23.65-3.33-29.51-9a32.52,32.52,0,0,1-7.05-9.25C717.23,375.34,717.31,373.81,716.28,373.43Z"/><path class="cls-7" d="M716.28,373.43s9.18,27.39,38.81,23.08,36.72-23.71,36.72-23.71l-12.38-92.13s-.93,16.06-25.93,16.84-28.41-17.11-28.41-17.11Z"/><path class="cls-7" d="M697.81,436.52s26.52,28.07,57.43,23.52,42.24-14.65,54.11-28.82L802.6,549s-8.83,16.24-44.86,21.76-53.9-18.89-53.9-18.89Z"/><path class="cls-8" d="M733.73,284.06l2.55-.49,3,2.07.46,2.4,4.9-2.09,1.52,1,1.12,1.86,3-1.31,5.11-1,1.76,2.31,2.07-3,3.83-.73,1.53,1,2.07-3,6.63.06-.73-3.83,4.74-1.11.92-3.94,2.56-.48-1-5.12,2.31-1.76-2.25-4.87-2.49-6.15s-9.3-14.12-27.2-10.72-20.75,9.24-20.75,9.24-4.62,3.53-5.48,13l-.79,2.8,1.52,1-.55,4.08,3.83-.73-.31,5.35,2.56-.48,2.8.79Z"/><path class="cls-9" d="M777.37,255.9s5.47,14.85-21.37,20-29.44-15.59-29.44-15.59-.67-10.47,21.7-14.71C769.34,241.54,777.37,255.9,777.37,255.9Z"/><path class="cls-6" d="M725.09,280.4s3.4,17.89,28.41,17.11,25.93-16.84,25.93-16.84l-1.22-6.39-.79,2.8-4.87,2.25.73,3.83-6.63-.06-2.07,3-1.53-1-3.83.73-2.07,3-1.76-2.31-5.11,1-2.56.49-3-2.07-5.11,1-.25-1.28-3-2.07-2.55.49-.73-3.84-2.8-.79-2.56.48.31-5.35-2.48.47Z"/><path class="cls-6" d="M774,422.12c-3-1.12-10.29,9.7-13.94,17.21-3.72,7.66-9,23-4.28,47.16l6.82,112.57s-3,46.91,53.4,44.14c51.27-2.52,44.32-45.49,44.32-45.49L867.68,470a76.21,76.21,0,0,0-4.08-29.7c-5.26-14.93-11.42-19.73-14.29-19.24-3,.52-2.75,5.81-8.28,12.17-9.48,10.89-24.65,11.77-28.18,12-11.88.68-23.65-3.34-29.5-9a32.7,32.7,0,0,1-7.06-9.25C775,424,775.07,422.5,774,422.12Z"/><path class="cls-7" d="M774,422.12s9.18,27.38,38.81,23.08,36.72-23.71,36.72-23.71l-12.38-92.13s-.92,16.06-25.93,16.84-28.41-17.11-28.41-17.11Z"/><path class="cls-7" d="M755.58,485.21s26.51,28.06,57.43,23.51,42.23-14.64,54.1-28.81l-6.75,117.8s-8.83,16.24-44.85,21.76-53.91-18.89-53.91-18.89Z"/><path class="cls-8" d="M791.49,332.74l2.56-.48,3,2.07.45,2.39,4.9-2.09,1.52,1,1.12,1.85,3-1.3,5.11-1,1.76,2.31,2.07-3,3.84-.73,1.52,1,2.07-3.05,6.63.07-.73-3.84,4.75-1.11L836,323l2.56-.49-1-5.11,2.31-1.76-2.25-4.87-2.49-6.15s-9.3-14.12-27.19-10.72-20.76,9.24-20.76,9.24-4.62,3.52-5.48,12.95l-.79,2.8,1.52,1-.55,4.08,3.83-.73-.3,5.35,2.55-.48,2.8.79Z"/><path class="cls-9" d="M835.13,304.59s5.47,14.85-21.37,20S784.32,309,784.32,309s-.66-10.47,21.7-14.72C827.11,290.23,835.13,304.59,835.13,304.59Z"/><path class="cls-6" d="M782.85,329.09s3.4,17.89,28.41,17.11,25.93-16.84,25.93-16.84L836,323l-.79,2.8L830.31,328l.73,3.84-6.63-.07-2.07,3.05-1.52-1-3.84.73-2.07,3-1.76-2.31-5.11,1-2.56.48-3-2.07-5.11,1-.24-1.27-3-2.07-2.56.48-.73-3.83-2.8-.79-2.55.48.3-5.35-2.47.47Z"/><path class="cls-6" d="M835.93,474.11c-3-1.12-10.29,9.7-13.94,17.21-3.72,7.66-9,23-4.28,47.15L824.53,651s-3,46.92,53.4,44.15c51.27-2.52,44.32-45.5,44.32-45.5L929.57,522a76.29,76.29,0,0,0-4.08-29.71c-5.26-14.92-11.42-19.72-14.29-19.23-3.05.52-2.75,5.81-8.28,12.16-9.48,10.9-24.65,11.77-28.18,12-11.88.68-23.65-3.34-29.5-9a32.81,32.81,0,0,1-7.06-9.26C836.89,476,837,474.48,835.93,474.11Z"/><path class="cls-7" d="M835.93,474.11s9.18,27.38,38.81,23.08,36.72-23.71,36.72-23.71l-12.38-92.14s-.92,16.07-25.93,16.85-28.41-17.12-28.41-17.12Z"/><path class="cls-7" d="M817.47,537.2s26.51,28.06,57.42,23.51S917.13,546.07,929,531.9l-6.75,117.79s-8.83,16.25-44.85,21.76-53.91-18.88-53.91-18.88Z"/><path class="cls-8" d="M853.38,384.73l2.56-.49,3,2.07.45,2.4,4.9-2.09,1.52,1,1.12,1.85,3-1.3,5.11-1,1.76,2.32,2.07-3,3.84-.73,1.52,1,2.07-3,6.63.07L892.2,380l4.75-1.11.91-3.94,2.56-.48-1-5.11,2.31-1.77-2.25-4.87L897,356.58s-9.3-14.12-27.19-10.72-20.76,9.23-20.76,9.23-4.62,3.53-5.48,13l-.79,2.8,1.52,1-.55,4.07,3.83-.73-.3,5.36,2.55-.49,2.8.8Z"/><path class="cls-9" d="M897,356.58s5.47,14.85-21.37,19.95-29.44-15.6-29.44-15.6-.66-10.46,21.7-14.71C889,342.21,897,356.58,897,356.58Z"/><path class="cls-6" d="M844.74,381.07s3.4,17.89,28.41,17.12,25.93-16.85,25.93-16.85L897.86,375l-.79,2.8L892.2,380l.73,3.84-6.63-.07-2.07,3-1.52-1-3.84.73-2.07,3L875,387.23l-5.11,1-2.56.48-3-2.07-5.11,1-.24-1.28-3-2.07-2.56.49-.73-3.83-2.8-.8-2.55.49.3-5.36-2.48.48Z"/><path class="cls-6" d="M911.85,532.69c-3-1.11-10.3,9.71-13.94,17.22-3.72,7.66-9,23-4.28,47.15l6.82,112.57s-16.13,19.34,40.33,20.8,59-20.93,57.39-22.15l7.32-127.7a76.29,76.29,0,0,0-4.08-29.71C996.15,536,990,531.15,987.12,531.64c-3,.52-2.75,5.81-8.28,12.16-9.48,10.9-24.65,11.77-28.18,12-11.88.69-23.65-3.33-29.51-8.95a32.87,32.87,0,0,1-7-9.26C912.8,534.6,912.88,533.07,911.85,532.69Z"/><path class="cls-7" d="M911.85,532.69s9.18,27.39,38.81,23.08,36.72-23.7,36.72-23.7L975,439.93s-.92,16.07-25.93,16.84-28.41-17.11-28.41-17.11Z"/><path class="cls-7" d="M893.38,595.78s26.52,28.07,57.43,23.52,42.24-14.64,54.11-28.82l-6.75,117.8s-8.83,16.24-44.86,21.76-53.9-18.89-53.9-18.89Z"/><path class="cls-10" d="M929.3,443.32l2.55-.49,3,2.07.45,2.4,4.9-2.09,1.52,1,1.12,1.86,3-1.31,5.11-1,1.76,2.32,2.07-3,3.84-.73,1.52,1,2.07-3,6.63.06-.73-3.83,4.75-1.11.91-3.94,2.56-.48-1-5.11,2.31-1.77-2.25-4.87-2.49-6.14s-9.3-14.12-27.19-10.73S925,413.68,925,413.68s-4.62,3.53-5.48,13l-.79,2.8,1.52,1-.55,4.08,3.83-.73-.3,5.36,2.55-.49,2.8.79Z"/><path class="cls-9" d="M972.94,415.17s5.47,14.85-21.37,19.94-29.44-15.59-29.44-15.59-.66-10.46,21.7-14.71C964.91,400.8,972.94,415.17,972.94,415.17Z"/><path class="cls-6" d="M920.66,439.66s3.4,17.89,28.41,17.11S975,439.93,975,439.93l-1.22-6.39-.79,2.8-4.87,2.25.73,3.83-6.63-.06-2.07,3-1.52-1-3.84.73-2.07,3L951,445.82l-5.11,1-2.56.49-3-2.07-5.11,1-.24-1.28-3-2.07-2.55.49-.73-3.84-2.8-.79-2.55.49.3-5.36-2.48.47Z"/><path class="cls-6" d="M594.71,360.28c-3-1.12-10.29,9.7-13.94,17.21s-9,23-4.28,47.15l6.82,112.58s-3,46.91,53.4,44.14C688,578.84,681,535.86,681,535.86l7.32-127.7a76.29,76.29,0,0,0-4.08-29.71C679,363.53,672.85,358.73,670,359.22c-3.05.52-2.75,5.81-8.28,12.16-9.48,10.9-24.65,11.77-28.18,12-11.88.68-23.65-3.34-29.5-9a32.65,32.65,0,0,1-7.06-9.26C595.67,362.18,595.74,360.65,594.71,360.28Z"/><path class="cls-7" d="M594.71,360.28s9.18,27.38,38.81,23.08,36.72-23.71,36.72-23.71l-12.38-92.14s-.92,16.07-25.93,16.85-28.41-17.12-28.41-17.12Z"/><path class="cls-7" d="M576.25,423.37s26.51,28.06,57.43,23.51,42.23-14.64,54.1-28.81L681,535.86s-8.83,16.25-44.85,21.76-53.91-18.88-53.91-18.88Z"/><path class="cls-8" d="M612.16,270.9l2.56-.49,3,2.07.45,2.4,4.9-2.09,1.52,1,1.12,1.85,3-1.3,5.11-1,1.76,2.32,2.07-3,3.84-.73,1.52,1,2.07-3,6.63.07-.73-3.84,4.75-1.11.91-3.94,2.56-.48-1-5.11,2.31-1.77-2.25-4.86-2.49-6.15s-9.3-14.12-27.19-10.72-20.76,9.23-20.76,9.23-4.62,3.53-5.48,13l-.79,2.8,1.52,1-.55,4.07,3.83-.73-.3,5.36,2.55-.49,2.8.8Z"/><path class="cls-9" d="M655.8,242.75s5.47,14.85-21.37,19.95S605,247.1,605,247.1s-.66-10.46,21.7-14.71C647.78,228.38,655.8,242.75,655.8,242.75Z"/><path class="cls-6" d="M603.52,267.24s3.4,17.9,28.41,17.12,25.93-16.85,25.93-16.85l-1.22-6.39-.79,2.8L651,266.17l.73,3.84-6.63-.07L643,273l-1.52-1-3.84.73-2.07,3-1.76-2.32-5.11,1-2.56.48-3-2.07-5.11,1-.24-1.28-3-2.07-2.56.49-.73-3.83-2.8-.8-2.55.49.3-5.36-2.47.48Z"/><path class="cls-6" d="M641.75,402.36c-3-1.11-10.3,9.7-13.94,17.21-3.72,7.67-9,23-4.28,47.16l6.82,112.57s-3,46.91,53.4,44.14C735,620.92,728.07,578,728.07,578l7.32-127.71a76.41,76.41,0,0,0-4.09-29.7c-5.25-14.93-11.41-19.73-14.28-19.24-3,.52-2.75,5.81-8.28,12.17-9.48,10.89-24.65,11.77-28.18,12-11.88.69-23.65-3.34-29.51-9a32.52,32.52,0,0,1-7-9.25C642.7,404.27,642.78,402.74,641.75,402.36Z"/><path class="cls-7" d="M641.75,402.36s9.17,27.39,38.81,23.08,36.72-23.71,36.72-23.71L704.89,309.6S704,325.66,679,326.44s-28.41-17.11-28.41-17.11Z"/><path class="cls-7" d="M623.28,465.45S649.8,493.51,680.71,489s42.24-14.65,54.11-28.82L728.07,578s-8.83,16.24-44.86,21.76-53.9-18.89-53.9-18.89Z"/><path class="cls-8" d="M659.2,313l2.55-.48,3,2.07.46,2.4,4.9-2.09,1.52,1,1.12,1.86,3-1.31,5.11-1,1.76,2.31,2.07-3,3.83-.73,1.53,1,2.07-3,6.63.06-.73-3.83,4.74-1.12.92-3.93,2.56-.49-1-5.11,2.31-1.76L705.33,291l-2.49-6.15s-9.3-14.12-27.2-10.72-20.75,9.24-20.75,9.24-4.63,3.53-5.48,13l-.79,2.8,1.52,1-.55,4.08,3.83-.73-.31,5.35,2.56-.48,2.8.79Z"/><path class="cls-9" d="M702.84,284.83s5.47,14.85-21.37,19.95S652,289.19,652,289.19s-.67-10.47,21.7-14.71C694.81,270.47,702.84,284.83,702.84,284.83Z"/><path class="cls-6" d="M650.56,309.33S654,327.22,679,326.44s25.92-16.84,25.92-16.84l-1.21-6.39-.79,2.8L698,308.26l.73,3.83-6.63-.06-2.07,3-1.53-1-3.83.73-2.07,3-1.76-2.31-5.11,1-2.56.49-3-2.07-5.11,1-.25-1.28-3-2.07-2.55.48-.73-3.83-2.8-.79-2.56.48.31-5.35-2.48.47Z"/><path class="cls-6" d="M528.7,385c-3-1.11-10.3,9.7-13.94,17.21-3.72,7.67-9,23-4.29,47.16L574,520.86S538.22,555,594.62,552.22c51.27-2.52,20.4,8.4,20.4,8.4l7.32-127.7a76.46,76.46,0,0,0-4.09-29.71C613,388.28,606.83,383.48,604,384c-3.05.52-2.75,5.81-8.28,12.17-9.48,10.89-24.66,11.77-28.18,12-11.88.69-23.65-3.33-29.51-9a32.52,32.52,0,0,1-7-9.25C529.65,386.94,529.72,385.41,528.7,385Z"/><path class="cls-7" d="M528.7,385s9.17,27.39,38.81,23.08,36.72-23.71,36.72-23.71l-12.39-92.13s-.92,16.06-25.93,16.84S537.51,292,537.51,292Z"/><path class="cls-7" d="M510.23,448.12s26.52,28.07,57.43,23.52S609.9,457,621.77,442.82L615,560.62s-3.35-24.65-39.37-19.13.82-28.88.82-28.88Z"/><path class="cls-8" d="M546.14,295.66l2.56-.49,3,2.07.46,2.4,4.9-2.09,1.52,1,1.12,1.86,3-1.31,5.12-1,1.76,2.31,2.07-3,3.83-.73,1.52,1,2.07-3,6.64.06-.73-3.83,4.74-1.11.92-3.94,2.56-.48-1-5.12,2.32-1.76-2.25-4.87-2.49-6.15s-9.31-14.12-27.2-10.72S541.84,266,541.84,266s-4.63,3.53-5.48,13l-.8,2.8,1.52,1-.54,4.08,3.83-.73-.31,5.35,2.56-.48,2.8.79Z"/><path class="cls-9" d="M589.79,267.5s5.47,14.85-21.37,19.95S539,271.86,539,271.86s-.67-10.47,21.7-14.71C581.76,253.14,589.79,267.5,589.79,267.5Z"/><path class="cls-6" d="M537.51,292s3.4,17.89,28.4,17.11,25.93-16.84,25.93-16.84l-1.21-6.39-.79,2.8L585,290.93l.73,3.83-6.64-.06-2.07,3-1.52-1-3.83.73-2.07,3-1.76-2.31-5.12,1-2.55.49-3-2.07-5.12,1-.24-1.28-3-2.07-2.56.49-.72-3.84-2.8-.79-2.56.48.31-5.35-2.48.47Z"/><path class="cls-6" d="M575.73,434.54c-3-1.11-10.29,9.7-13.94,17.22s-9,23-4.28,47.15l28,83s-15.15,44,41.26,41.26c51.26-2.52,35.24-13.06,35.24-13.06l7.32-127.7a76.29,76.29,0,0,0-4.08-29.71C660,437.79,653.87,433,651,433.49c-3,.52-2.75,5.81-8.28,12.16-9.48,10.89-24.65,11.77-28.18,12-11.88.69-23.65-3.33-29.5-9a32.7,32.7,0,0,1-7.06-9.25C576.69,436.45,576.76,434.92,575.73,434.54Z"/><path class="cls-7" d="M575.73,434.54s9.18,27.39,38.81,23.08,36.72-23.71,36.72-23.71l-12.38-92.13S638,357.85,613,358.62s-28.41-17.11-28.41-17.11Z"/><path class="cls-7" d="M557.27,497.63s26.51,28.07,57.43,23.52,42.23-14.64,54.1-28.82l-6.75,117.8s-8.83,16.24-44.85,21.76-37.43-50-37.43-50Z"/><path class="cls-8" d="M593.18,345.17l2.56-.49,3,2.07.45,2.4,4.9-2.09,1.52,1,1.12,1.86,3-1.31,5.11-1L616.6,350l2.08-3.05,3.83-.72,1.52,1,2.07-3,6.63.06-.73-3.83,4.75-1.11.92-3.94,2.55-.48-1-5.11,2.31-1.77-2.25-4.87L636.82,317s-9.3-14.13-27.19-10.73-20.75,9.24-20.75,9.24-4.63,3.53-5.49,13l-.79,2.8,1.52,1-.55,4.08,3.84-.73L587.1,341l2.55-.49,2.8.79Z"/><path class="cls-9" d="M636.82,317s5.47,14.85-21.36,19.94S586,321.37,586,321.37s-.66-10.46,21.7-14.71C628.8,302.65,636.82,317,636.82,317Z"/><path class="cls-6" d="M584.54,341.51s3.4,17.89,28.41,17.11,25.93-16.84,25.93-16.84l-1.21-6.39-.8,2.8L632,340.44l.73,3.83-6.63-.06-2.07,3-1.52-1-3.83.72L616.6,350l-1.76-2.32-5.11,1-2.56.49-3-2.07L599,348l-.24-1.28-3-2.07-2.56.49-.73-3.84-2.8-.79-2.55.49.31-5.36-2.48.47Z"/><path class="cls-6" d="M622.77,486.53c-3-1.11-10.3,9.7-13.94,17.21s-9,23-4.28,47.16L616.9,654.55s-4.42,28.35,52,25.58c51.27-2.52,40.2-18,40.2-18l7.32-127.71a76.4,76.4,0,0,0-4.08-29.7C707.07,489.78,700.91,485,698,485.47c-3,.52-2.75,5.81-8.28,12.17-9.48,10.89-24.65,11.77-28.18,12-11.88.69-23.65-3.34-29.51-9A32.77,32.77,0,0,1,625,491.4C623.72,488.44,623.8,486.91,622.77,486.53Z"/><path class="cls-7" d="M622.77,486.53s9.18,27.39,38.81,23.08S698.3,485.9,698.3,485.9l-12.38-92.13S685,409.83,660,410.61s-28.41-17.11-28.41-17.11Z"/><path class="cls-7" d="M604.3,549.62s26.52,28.06,57.43,23.52,42.24-14.65,54.11-28.82l-6.75,117.8s-8.83,16.24-44.86,21.76S610.33,665,610.33,665Z"/><path class="cls-8" d="M640.22,397.15l2.55-.48,3,2.07.46,2.4,4.9-2.09,1.52,1,1.12,1.86,3-1.31,5.11-1,1.76,2.31,2.07-3,3.84-.73,1.52,1,2.07-3,6.63.06-.73-3.83,4.74-1.12.92-3.93,2.56-.49-1-5.11L688.6,380l-2.25-4.87L683.86,369s-9.3-14.12-27.2-10.72-20.75,9.24-20.75,9.24-4.62,3.53-5.48,13l-.79,2.8,1.52,1-.55,4.08,3.83-.73-.31,5.35,2.56-.48,2.8.79Z"/><path class="cls-9" d="M683.86,369s5.47,14.85-21.37,19.95-29.44-15.59-29.44-15.59-.67-10.47,21.7-14.72C675.83,354.64,683.86,369,683.86,369Z"/><path class="cls-6" d="M631.58,393.5S635,411.39,660,410.61s25.93-16.84,25.93-16.84l-1.22-6.39-.79,2.8L679,392.43l.73,3.83-6.63-.06-2.07,3-1.52-1-3.84.73-2.07,3-1.76-2.31-5.11,1-2.56.49-3-2.07-5.11,1-.25-1.28-3-2.07-2.55.48-.73-3.83-2.8-.79-2.56.48.31-5.35-2.48.47Z"/><path class="cls-6" d="M699.51,451.05c-3-1.12-10.29,9.7-13.94,17.21-3.72,7.66-9,23-4.28,47.16L688.11,628s-3,46.91,53.4,44.14c51.27-2.52,44.32-45.5,44.32-45.5l7.32-127.7a76.21,76.21,0,0,0-4.08-29.7c-5.26-14.93-11.42-19.73-14.29-19.24-3,.52-2.75,5.81-8.28,12.16-9.48,10.9-24.65,11.77-28.18,12-11.88.68-23.65-3.34-29.5-9a32.7,32.7,0,0,1-7.06-9.25C700.47,453,700.54,451.43,699.51,451.05Z"/><path class="cls-7" d="M699.51,451.05s9.18,27.38,38.81,23.08S775,450.42,775,450.42l-12.38-92.13s-.92,16.06-25.93,16.84S708.32,358,708.32,358Z"/><path class="cls-7" d="M681.05,514.14s26.51,28.06,57.42,23.51,42.24-14.64,54.11-28.81l-6.75,117.79S777,642.88,741,648.4s-53.91-18.89-53.91-18.89Z"/><path class="cls-8" d="M717,361.67l2.56-.48,3,2.07.45,2.39,4.9-2.09,1.52,1,1.12,1.85,3-1.3,5.11-1,1.76,2.31,2.07-3,3.84-.73,1.52,1,2.07-3,6.63.07-.73-3.84,4.75-1.11.91-3.93,2.56-.49-1-5.11,2.31-1.76-2.25-4.87-2.49-6.15s-9.3-14.12-27.19-10.72S712.65,332,712.65,332,708,335.56,707.17,345l-.79,2.8,1.52,1-.55,4.07,3.83-.72-.3,5.35,2.55-.49,2.8.8Z"/><path class="cls-9" d="M760.6,333.52s5.47,14.85-21.37,20-29.44-15.59-29.44-15.59-.66-10.47,21.7-14.72C752.58,319.16,760.6,333.52,760.6,333.52Z"/><path class="cls-6" d="M708.32,358s3.4,17.89,28.41,17.11,25.93-16.84,25.93-16.84l-1.22-6.39-.79,2.79-4.87,2.25.73,3.84-6.63-.07-2.07,3-1.52-1-3.84.73-2.07,3-1.76-2.31-5.11,1-2.56.48-3-2.07-5.11,1-.24-1.27-3-2.07-2.56.48-.73-3.83-2.8-.8-2.55.49.3-5.35-2.48.47Z"/><path class="cls-6" d="M761.4,503c-3-1.11-10.29,9.71-13.94,17.22s-9,23-4.28,47.15L750,680s-3,46.92,53.4,44.14c51.27-2.51,44.32-45.49,44.32-45.49L855,550.92A76.29,76.29,0,0,0,851,521.21c-5.26-14.92-11.42-19.72-14.29-19.23-3,.52-2.75,5.81-8.28,12.16-9.48,10.9-24.65,11.77-28.18,12-11.88.69-23.65-3.33-29.5-9a32.81,32.81,0,0,1-7.06-9.26C762.35,504.94,762.43,503.41,761.4,503Z"/><path class="cls-7" d="M761.4,503s9.18,27.39,38.81,23.08,36.72-23.7,36.72-23.7l-12.38-92.14s-.92,16.07-25.93,16.85S770.21,410,770.21,410Z"/><path class="cls-7" d="M742.94,566.12s26.51,28.07,57.42,23.52S842.6,575,854.47,560.82l-6.75,117.8s-8.83,16.24-44.85,21.76S749,681.49,749,681.49Z"/><path class="cls-8" d="M778.85,413.66l2.56-.49,3,2.07.45,2.4,4.9-2.09,1.52,1,1.12,1.86,3-1.31,5.11-1,1.76,2.32,2.07-3,3.84-.73,1.52,1,2.07-3,6.63.06-.73-3.83,4.75-1.11.91-3.94,2.56-.48-1-5.11,2.31-1.77L825,391.65l-2.49-6.14s-9.3-14.12-27.19-10.73S774.54,384,774.54,384s-4.62,3.53-5.48,13l-.79,2.8,1.52,1-.55,4.08,3.83-.73-.3,5.36,2.55-.49,2.8.79Z"/><path class="cls-9" d="M822.49,385.51s5.47,14.85-21.37,19.94-29.44-15.59-29.44-15.59-.66-10.46,21.7-14.71C814.47,371.14,822.49,385.51,822.49,385.51Z"/><path class="cls-6" d="M770.21,410s3.4,17.89,28.41,17.12,25.93-16.85,25.93-16.85l-1.22-6.39-.79,2.8-4.87,2.25.73,3.83-6.63-.06-2.07,3-1.52-1-3.84.73-2.07,3-1.76-2.32-5.11,1-2.56.49-3-2.07-5.11,1-.24-1.28-3-2.07-2.56.49-.73-3.84-2.8-.79-2.55.49.3-5.36-2.48.47Z"/><path class="cls-6" d="M837.32,561.62c-3-1.11-10.3,9.7-13.94,17.22s-9,23-4.28,47.15l6.82,112.57s-3,46.91,53.4,44.14c51.26-2.52,44.32-45.49,44.32-45.49L931,609.51a76.47,76.47,0,0,0-4.08-29.71c-5.26-14.93-11.42-19.72-14.29-19.24-3.05.53-2.75,5.82-8.28,12.17-9.48,10.89-24.65,11.77-28.18,12-11.88.69-23.65-3.33-29.51-9a32.77,32.77,0,0,1-7-9.25C838.27,563.53,838.35,562,837.32,561.62Z"/><path class="cls-7" d="M837.32,561.62S846.5,589,876.13,584.7,912.85,561,912.85,561l-12.38-92.13s-.92,16.07-25.93,16.84-28.41-17.11-28.41-17.11Z"/><path class="cls-7" d="M818.85,624.71s26.52,28.07,57.43,23.52,42.24-14.65,54.11-28.82l-6.75,117.8s-8.83,16.24-44.86,21.76-53.9-18.89-53.9-18.89Z"/><path class="cls-10" d="M854.77,472.25l2.55-.49,3,2.07.46,2.4,4.9-2.09,1.52,1,1.12,1.86,3-1.31,5.11-1,1.76,2.32,2.07-3.05,3.84-.72,1.52,1,2.07-3,6.63.06-.73-3.83,4.75-1.11.91-3.94,2.56-.48-1-5.12,2.31-1.76-2.25-4.87-2.49-6.14s-9.3-14.13-27.19-10.73-20.76,9.24-20.76,9.24-4.62,3.53-5.48,13l-.79,2.8,1.52,1-.55,4.08,3.83-.73-.31,5.36,2.56-.49,2.8.79Z"/><path class="cls-9" d="M898.41,444.1S903.88,459,877,464s-29.44-15.59-29.44-15.59-.67-10.46,21.7-14.71C890.38,429.73,898.41,444.1,898.41,444.1Z"/><path class="cls-6" d="M846.13,468.59s3.4,17.89,28.41,17.11,25.93-16.84,25.93-16.84l-1.22-6.39-.79,2.8-4.87,2.25.73,3.83-6.63-.06-2.07,3-1.52-1-3.84.72-2.07,3.05-1.76-2.32-5.11,1-2.56.49-3-2.07-5.11,1-.25-1.28-3-2.07-2.55.49-.73-3.84-2.8-.79-2.56.49.31-5.36-2.48.47Z"/><path class="cls-6" d="M671.46,544.29c-3-1.11-10.3,9.71-14,17.22s-9,23-4.28,47.15l6.82,112.57s-3,46.92,53.41,44.14c51.26-2.51,44.31-45.49,44.31-45.49l7.32-127.7A76.29,76.29,0,0,0,761,562.47c-5.25-14.93-11.42-19.72-14.28-19.23-3.05.52-2.75,5.81-8.28,12.16-9.49,10.9-24.66,11.77-28.18,12-11.88.69-23.65-3.33-29.51-9a32.63,32.63,0,0,1-7-9.26C672.41,546.2,672.48,544.67,671.46,544.29Z"/><path class="cls-7" d="M671.46,544.29s9.17,27.39,38.81,23.08S747,543.67,747,543.67L734.6,451.53s-.92,16.07-25.93,16.84-28.41-17.11-28.41-17.11Z"/><path class="cls-7" d="M653,607.38s26.52,28.07,57.43,23.52,42.23-14.64,54.11-28.82l-6.76,117.8s-8.83,16.24-44.85,21.76S659,722.75,659,722.75Z"/><path class="cls-8" d="M688.9,454.92l2.56-.49,3,2.07.46,2.4,4.9-2.09,1.52,1,1.12,1.86,3-1.31,5.11-1,1.77,2.32,2.07-3.05,3.83-.72,1.52,1,2.07-3,6.63.06-.72-3.83,4.74-1.11.92-3.94,2.55-.48-1-5.11,2.32-1.77L735,432.91l-2.49-6.14s-9.31-14.12-27.2-10.73-20.75,9.24-20.75,9.24-4.63,3.53-5.48,13l-.8,2.8,1.52,1-.55,4.08,3.84-.73-.31,5.36,2.56-.49,2.8.79Z"/><path class="cls-9" d="M732.55,426.77s5.46,14.85-21.37,19.94-29.44-15.59-29.44-15.59-.67-10.46,21.69-14.71C724.52,412.4,732.55,426.77,732.55,426.77Z"/><path class="cls-6" d="M680.26,451.26s3.4,17.89,28.41,17.11,25.93-16.84,25.93-16.84l-1.21-6.39-.79,2.8-4.87,2.25.72,3.83-6.63-.06-2.07,3-1.52-1-3.83.72-2.07,3.05-1.77-2.32-5.11,1-2.55.49-3-2.07-5.12,1-.24-1.28-3-2.07-2.56.49-.72-3.84-2.8-.79-2.56.49.31-5.36-2.48.47Z"/><path class="cls-6" d="M736.65,605.36c-3-1.12-10.3,9.7-13.94,17.21s-9,23-4.29,47.16l6.82,112.57s-3,46.91,53.41,44.14C829.91,823.92,823,781,823,781l7.31-127.71a76.21,76.21,0,0,0-4.08-29.7c-5.25-14.93-11.42-19.73-14.28-19.24-3,.52-2.75,5.81-8.28,12.17-9.49,10.89-24.66,11.77-28.18,12-11.88.68-23.65-3.34-29.51-9a32.52,32.52,0,0,1-7.05-9.25C737.6,607.27,737.67,605.74,736.65,605.36Z"/><path class="cls-7" d="M736.65,605.36s9.17,27.38,38.81,23.08,36.72-23.71,36.72-23.71L799.79,512.6s-.92,16.06-25.93,16.84-28.4-17.11-28.4-17.11Z"/><path class="cls-7" d="M718.18,668.45S744.7,696.51,775.61,692s42.23-14.64,54.11-28.81L823,781s-8.84,16.24-44.86,21.76-53.9-18.89-53.9-18.89Z"/><path class="cls-10" d="M754.09,516l2.56-.48,3,2.07.46,2.39,4.9-2.09,1.52,1,1.12,1.85,2.95-1.3,5.11-1,1.77,2.31,2.07-3,3.83-.73,1.52,1L787,515l6.64.07-.73-3.83,4.74-1.12.92-3.93,2.55-.49-1-5.11,2.32-1.76L800.23,494l-2.49-6.15s-9.31-14.12-27.2-10.72-20.75,9.24-20.75,9.24-4.63,3.52-5.48,13l-.8,2.79,1.52,1-.55,4.08,3.84-.73-.31,5.35,2.56-.48,2.8.79Z"/><path class="cls-9" d="M797.74,487.83s5.46,14.85-21.37,19.95-29.44-15.59-29.44-15.59-.67-10.47,21.69-14.72C789.71,473.47,797.74,487.83,797.74,487.83Z"/><path class="cls-6" d="M745.46,512.33s3.39,17.89,28.4,17.11,25.93-16.84,25.93-16.84l-1.21-6.39-.79,2.8-4.87,2.25.73,3.83L787,515l-2.07,3.05-1.52-1-3.83.73-2.07,3-1.77-2.31-5.11,1-2.55.48-3-2.07-5.12,1-.24-1.27-3-2.07-2.56.48-.72-3.83-2.8-.79-2.56.48.31-5.35-2.48.47Z"/><polygon class="cls-11" points="760.49 560.47 760.49 879 513.76 526.64 466.72 239.47 760.49 560.47"/><path class="cls-5" d="M765.44,532.42s-23.11,4.12-71-67.67L495.6,252.68s-8.25-9.08,4.95-11.56,291.3-79.22,291.3-79.22,12.08-.3,17.52,4.31l313.38,200.34s16.5,9.9-7.43,19S789.37,525.81,789.37,525.81l-23.93,6.61V561.3l392-181.54L801.75,152.83l-335,86.64L759.66,563l5.78-1.65Z"/><path class="cls-11" d="M759.66,563l.83,316,315.22-195.57,80.87-304.5Zm57.77,108.92V577.8l259.11-122.95-23.11,91.59Z"/><polygon points="762.96 561.3 759.66 562.95 760.49 879 764.62 876.52 762.96 561.3"/><polygon points="759.69 563 756.36 559.65 757.19 874.05 760.49 879 759.69 563"/><path class="cls-6" d="M73.5,153l-1,5,1.89,1.68-1,4.42,1,2.52-1,1.68L71.4,201.94l.63.63s0,5.46-.84,6.52-6.09,5.25-6.31,16.59l-.63.42v51.48l.63,1.05L65.1,286s.42,2.73,5.25,4.62H97s4.63-.63,6.1-4.2v-6.93l.84-1.26v-51.9l-.84-.63a20.37,20.37,0,0,0-5.47-16.59l-1.47-6.52.63-.84-1.89-33-1.26-1.89L95.15,165l-1.26-5.26,1.89-1.47L94.31,153Z"/><polygon class="cls-7" points="64.89 225.68 103.14 225.68 103.98 226.31 103.98 278.21 103.14 279.47 64.89 279.47 64.89 278.63 64.25 277.58 64.25 226.1 64.89 225.68"/><polyline class="cls-7" points="71.4 201.94 72.03 202.57 96.2 202.57 96.83 201.73 94.94 168.75 93.68 166.86 74.34 166.65 73.29 168.33"/><polyline class="cls-12" points="74.34 159.71 93.89 159.71 95.78 158.24 94.31 152.99 73.5 152.99 72.24 158.45"/><path class="cls-10" d="M85.5,266.27s-1.81.7-2.64-.14c0,0-.28-1.11-.7-3.62A17,17,0,0,0,78,257.64a11.64,11.64,0,0,1,.7-2.08,10.39,10.39,0,0,0,.42-2.79c0-.28-3.07-1.39-2.93-2s-.41-4.73,4.18-6.95a16.92,16.92,0,0,1,3.48.13,4,4,0,0,0,1.39,0,4.09,4.09,0,0,1,3.62.56c1.4,1.11,3.48,4.59,3.07,6.26,0,0-2.25,1.52-2.52,1.81s1.4,5,1,5.43-2.22,1.25-2.64,1.81a11.27,11.27,0,0,0-1.39,2.37,22,22,0,0,0-.7,3.89Z"/><path class="cls-13" d="M80.35,243.87a8.3,8.3,0,0,0-1-2,1.37,1.37,0,0,0-1.12-.28,5.14,5.14,0,0,1-.83.69c-.28.14-1.67,1-1.81,1s-8.36,3.2-8.5,3.48a3.2,3.2,0,0,0-.55,1.39c0,.56.55,8.91,5.7,11.41a14.92,14.92,0,0,0,5.3.42l1-2.09s-.42,0-.14-.83a24.53,24.53,0,0,0,.7-4c0-.56,0-.42-.7-.83l-.7-.42s-.13.14-.69-1S77.84,245.54,80.35,243.87Z"/><path class="cls-13" d="M88.84,244.56l-1-.56a4.92,4.92,0,0,1,1.53-2.36,1.79,1.79,0,0,1,1.39.83l1.67.84s3.07,1.11,3.62,1.25,4.6,1.53,4.88,2.23c0,0,.83.14.69,1.53,0,0,.14,4-1.25,6.4,0,0-1,2.65-2.23,3.48,0,0-1.39,2.09-7.52,1.95l-.83-2.09s.42,0,.28-1-1-3.48-1-4.18S91.35,251,91.35,251s.28-.55-.14-2.36S90.24,246.23,88.84,244.56Z"/><path class="cls-14" d="M78.54,257.92s1.83,1.22,2,1.79-2.38,5,.55,8.23c0,0,.14,0,0,.28s-2.23.14-3.07-1.67S76.59,261.82,78.54,257.92Z"/><path class="cls-14" d="M87.73,259.87l2.09-1.81s2.09,4.59,1.25,6.82-1.67,3.76-3.76,3.2c0,0,1.81-2.22,1.39-3.9A9,9,0,0,0,87.73,259.87Z"/><path class="cls-13" d="M87.31,252.22a5.22,5.22,0,0,0-6.4.27s-1.4,1.67.14,8.49c0,0,.41,1.4,1.67,5,0,0,1,1.26,2.92.28l1.57-5.55.52-3.22S88.15,252.63,87.31,252.22Z"/><ellipse class="cls-14" cx="88.98" cy="251.38" rx="0.7" ry="0.84"/><ellipse class="cls-14" cx="79.1" cy="251.38" rx="0.7" ry="0.84"/><ellipse cx="89.05" cy="251.52" rx="0.21" ry="0.42"/><ellipse cx="79.03" cy="251.52" rx="0.21" ry="0.42"/><path class="cls-14" d="M138.27,216.33h-.14l-7.79,4.21-1.18-4.62,9.8-5.25h5.18v44.85h-5.87Z"/><path class="cls-15" d="M85.85,123.56c11.63-6.81,77-47.59,48.56-86.95a2.91,2.91,0,0,0-.26-.33c-1.91-2.09-21.65-22.48-47.7-1.78A3.46,3.46,0,0,1,82,34.4c-5.54-4.92-21.43-16.18-41.07-4.95C21.62,40.48,24,62.12,28,71.18a36.8,36.8,0,0,0,3.22,6.69A165.15,165.15,0,0,0,82.4,123.59,3.43,3.43,0,0,0,85.85,123.56Z"/><path class="cls-16" d="M208.65,123.56c11.63-6.81,77-47.59,48.56-86.95a2.91,2.91,0,0,0-.26-.33C255,34.19,235.3,13.8,209.25,34.5a3.46,3.46,0,0,1-4.44-.1c-5.54-4.92-21.43-16.18-41.07-4.95-19.32,11-16.92,32.67-12.92,41.73A37.47,37.47,0,0,0,154,77.87a165.15,165.15,0,0,0,51.16,45.72A3.43,3.43,0,0,0,208.65,123.56Z"/><path class="cls-17" d="M331.45,123.56c11.63-6.81,77-47.59,48.57-86.95a3,3,0,0,0-.27-.33c-1.91-2.09-21.64-22.48-47.7-1.78a3.46,3.46,0,0,1-4.44-.1c-5.54-4.92-21.43-16.18-41.07-4.95-19.31,11-16.92,32.67-12.92,41.73a37.47,37.47,0,0,0,3.22,6.69A165.28,165.28,0,0,0,328,123.59,3.43,3.43,0,0,0,331.45,123.56Z"/><path class="cls-2" d="M1215,878.48c.59-4.58,14-79.49,3.49-115.52,0,0-19.77,57.19-29.66,68,0,0-5.23-129.81-22.68-136.1,0,0-4.65,62.33-8.72,62.9,0,0-82-106.93-138.42-114.37,0,0,96.38,118.38,96.17,148.69,0,0-72.91-85.21-111.29-94.93,0,0,75.6,110.82,72.7,152.11,0,0-34.58-60-80.85-69.77,0,0,53.51,53.76,44.79,98.94Z"/><path class="cls-3" d="M1291.44,878.48c.58-4.66,14-80.85,3.49-117.49,0,0-19.77,58.16-29.66,69.21,0,0-5.24-132-22.68-138.42,0,0-4.66,63.4-8.73,64,0,0-82-108.76-138.42-116.32,0,0,96.38,120.39,96.18,151.22,0,0-72.91-86.66-111.3-96.55,0,0,75.61,112.72,72.7,154.7,0,0-34.58-61.06-80.84-70.95,0,0,53.51,54.67,44.78,100.62Z"/><path class="cls-2" d="M148.2,885c-.58-4.58-14-79.49-3.49-115.52,0,0,19.78,57.19,29.66,68,0,0,5.24-129.81,22.69-136.1,0,0,4.65,62.34,8.72,62.91,0,0,82-106.94,138.42-114.37,0,0-96.38,118.37-96.17,148.68,0,0,72.9-85.21,111.29-94.93,0,0-75.61,110.83-72.7,152.11,0,0,34.58-60,80.84-69.76,0,0-53.5,53.75-44.78,98.93Z"/><path class="cls-3" d="M71.74,885c-.59-4.65-14-80.84-3.49-117.48,0,0,19.77,58.16,29.66,69.21,0,0,5.23-132,22.68-138.42,0,0,4.65,63.39,8.72,64,0,0,82-108.75,138.42-116.31,0,0-96.38,120.38-96.17,151.21,0,0,72.91-86.66,111.29-96.55,0,0-75.6,112.72-72.69,154.71,0,0,34.58-61.07,80.84-71,0,0-53.51,54.67-44.79,100.62Z"/><path d="M1291.92,68.73c0-20.83,9.21-31.29,22.65-31.29s22.65,10.56,22.65,31.29-9.21,31.87-22.65,31.87S1291.92,89.56,1291.92,68.73Zm29.75,0c0-16.13-3.26-18.62-7.1-18.62s-7.1,2.49-7.1,18.62,3.26,19.2,7.1,19.2S1321.67,84.86,1321.67,68.73Z"/><path d="M1343.75,68.73c0-20.83,9.22-31.29,22.66-31.29s22.65,10.56,22.65,31.29-9.21,31.87-22.65,31.87S1343.75,89.56,1343.75,68.73Zm29.76,0c0-16.13-3.26-18.62-7.1-18.62s-7.1,2.49-7.1,18.62,3.26,19.2,7.1,19.2S1373.51,84.86,1373.51,68.73Z"/><path d="M1398.09,60.86c0-5.57,4-10,9.6-10s9.6,4.41,9.6,10-4,10-9.6,10S1398.09,66.43,1398.09,60.86Zm0,29.76c0-5.57,4-10,9.6-10s9.6,4.42,9.6,10-4,10-9.6,10S1398.09,96.18,1398.09,90.62Z"/><path d="M1426.51,90C1440.9,76.79,1452,66.62,1452,58.36c0-5.47-3.07-8.06-7.49-8.06-4,0-7.1,2.88-10,5.76l-8.83-8.83c6.33-6.72,12.09-9.79,21.12-9.79,12.28,0,20.92,7.87,20.92,20,0,9.8-9.21,20.55-17.47,29a99,99,0,0,1,10.18-.76h10.17V99.45h-44.15Z"/><path d="M1477,92l7.3-10.37c3.64,3.27,7.87,5.76,12.28,5.76,5.76,0,9-2.49,9-7.87,0-5.18-3.46-7.87-8.26-7.87-3.26,0-4.8.58-8.45,2.88l-7.1-4.61,1.54-31.29h36.09V52.41h-21.89l-.76,8.83a15.59,15.59,0,0,1,5.76-1c10.55,0,19.58,6,19.58,18.82,0,13.63-10.66,21.5-23,21.5C1489.1,100.6,1482,97,1477,92Z"/><path class="cls-2" d="M262.18,587.81c.58-4.58,14-79.49,3.49-115.52,0,0-19.78,57.19-29.66,68.05,0,0-5.24-129.81-22.69-136.1,0,0-4.65,62.33-8.72,62.9,0,0-82-106.93-138.42-114.37,0,0,96.38,118.38,96.17,148.68,0,0-72.9-85.2-111.29-94.92,0,0,75.61,110.82,72.7,152.11,0,0-34.58-60-80.84-69.77,0,0,53.5,53.76,44.78,98.94Z"/><path class="cls-3" d="M338.64,587.81c.59-4.66,14-80.85,3.49-117.49,0,0-19.77,58.16-29.66,69.21,0,0-5.23-132-22.68-138.42,0,0-4.65,63.4-8.72,64,0,0-82-108.76-138.42-116.32,0,0,96.38,120.39,96.17,151.22,0,0-72.91-86.66-111.29-96.55,0,0,75.6,112.72,72.69,154.7,0,0-34.57-61.06-80.84-70.95,0,0,53.51,54.67,44.79,100.62Z"/><path class="cls-2" d="M1355.33,640.32c-.58-4.58-14-79.49-3.49-115.52,0,0,19.78,57.19,29.66,68.05,0,0,5.24-129.81,22.69-136.1,0,0,4.65,62.33,8.72,62.91,0,0,82-106.94,138.42-114.38,0,0-96.38,118.38-96.17,148.69,0,0,72.9-85.21,111.29-94.93,0,0-75.61,110.83-72.7,152.11,0,0,34.58-60,80.84-69.76,0,0-53.5,53.75-44.78,98.93Z"/><path class="cls-3" d="M1278.87,640.32c-.59-4.66-14-80.84-3.49-117.48,0,0,19.77,58.16,29.66,69.21,0,0,5.23-132,22.68-138.42,0,0,4.65,63.39,8.72,64,0,0,82-108.76,138.42-116.32,0,0-96.38,120.39-96.17,151.22,0,0,72.91-86.66,111.29-96.55,0,0-75.6,112.72-72.7,154.71,0,0,34.58-61.07,80.85-71,0,0-53.51,54.67-44.79,100.62Z"/><path class="cls-2" d="M483.79,804.21c-.58-4.58-14-79.49-3.49-115.52,0,0,19.77,57.19,29.66,68,0,0,5.23-129.81,22.68-136.1,0,0,4.65,62.34,8.72,62.91,0,0,82-106.94,138.42-114.37,0,0-96.38,118.37-96.17,148.68,0,0,72.91-85.21,111.3-94.93,0,0-75.61,110.83-72.7,152.11,0,0,34.58-60,80.84-69.76,0,0-53.51,53.75-44.79,98.93Z"/><path class="cls-3" d="M407.32,804.21c-.58-4.65-14-80.84-3.49-117.48,0,0,19.78,58.16,29.66,69.21,0,0,5.24-132,22.69-138.42,0,0,4.65,63.39,8.72,64,0,0,82-108.75,138.42-116.31,0,0-96.38,120.38-96.17,151.21,0,0,72.9-86.66,111.29-96.55,0,0-75.61,112.72-72.7,154.71,0,0,34.58-61.07,80.84-71,0,0-53.5,54.67-44.78,100.62Z"/></g></svg>
