<svg xmlns="http://www.w3.org/2000/svg" width="1600" height="900" viewBox="0 0 1600 900"><defs><style>.cls-1{fill:#80c34a;}.cls-2{fill:#a3cd67;}.cls-3{fill:#1e8100;}</style></defs><title>Spilskærmbaggrund2</title><g id="Layer_2" data-name="Layer 2"><polyline class="cls-1" points="1600 -0.59 1600 902.29 -11.39 914.71 -24.38 -4.36"/><path class="cls-2" d="M592.42,263.67c-.58-4.58-14-79.49-3.49-115.52,0,0,19.78,57.19,29.66,68,0,0,5.24-129.81,22.68-136.1,0,0,4.66,62.33,8.73,62.9,0,0,82-106.93,138.42-114.37,0,0-96.38,118.38-96.17,148.69,0,0,72.9-85.21,111.29-94.93,0,0-75.61,110.83-72.7,152.11,0,0,34.58-60,80.84-69.77,0,0-53.51,53.76-44.78,98.94Z"/><path class="cls-3" d="M516,263.67c-.59-4.66-14-80.84-3.49-117.49,0,0,19.77,58.16,29.66,69.21,0,0,5.23-132,22.68-138.41,0,0,4.65,63.39,8.72,64,0,0,82-108.76,138.42-116.32,0,0-96.38,120.39-96.17,151.22,0,0,72.91-86.66,111.29-96.55,0,0-75.6,112.72-72.7,154.71,0,0,34.58-61.07,80.85-71,0,0-53.51,54.67-44.79,100.62Z"/><path class="cls-2" d="M1128.59,363.22c-.58-4.57-14-79.49-3.49-115.51,0,0,19.78,57.18,29.66,68,0,0,5.24-129.81,22.69-136.11,0,0,4.65,62.34,8.72,62.91,0,0,82-106.94,138.42-114.37,0,0-96.38,118.37-96.17,148.68,0,0,72.9-85.21,111.29-94.93,0,0-75.61,110.83-72.7,152.12,0,0,34.58-60.05,80.84-69.77,0,0-53.5,53.75-44.78,98.93Z"/><path class="cls-3" d="M1052.13,363.22c-.58-4.65-14-80.84-3.49-117.48,0,0,19.77,58.16,29.66,69.21,0,0,5.23-132,22.68-138.42,0,0,4.65,63.39,8.72,64,0,0,82-108.76,138.42-116.32,0,0-96.38,120.39-96.17,151.21,0,0,72.91-86.66,111.29-96.54,0,0-75.6,112.71-72.69,154.7,0,0,34.58-61.07,80.84-70.95,0,0-53.51,54.67-44.79,100.61Z"/><path class="cls-2" d="M1215,878.48c.59-4.58,14-79.49,3.49-115.52,0,0-19.77,57.19-29.66,68,0,0-5.23-129.81-22.68-136.1,0,0-4.65,62.33-8.72,62.9,0,0-82-106.93-138.42-114.37,0,0,96.38,118.38,96.17,148.69,0,0-72.91-85.21-111.29-94.93,0,0,75.6,110.82,72.7,152.11,0,0-34.58-60-80.85-69.77,0,0,53.51,53.76,44.79,98.94Z"/><path class="cls-3" d="M1291.44,878.48c.58-4.66,14-80.85,3.49-117.49,0,0-19.77,58.16-29.66,69.21,0,0-5.24-132-22.68-138.42,0,0-4.66,63.4-8.73,64,0,0-82-108.76-138.42-116.32,0,0,96.38,120.39,96.18,151.22,0,0-72.91-86.66-111.3-96.55,0,0,75.61,112.72,72.7,154.7,0,0-34.58-61.06-80.84-70.95,0,0,53.51,54.67,44.78,100.62Z"/><path class="cls-2" d="M148.2,885c-.58-4.58-14-79.49-3.49-115.52,0,0,19.78,57.19,29.66,68,0,0,5.24-129.81,22.69-136.1,0,0,4.65,62.34,8.72,62.91,0,0,82-106.94,138.42-114.37,0,0-96.38,118.37-96.17,148.68,0,0,72.9-85.21,111.29-94.93,0,0-75.61,110.83-72.7,152.11,0,0,34.58-60,80.84-69.76,0,0-53.5,53.75-44.78,98.93Z"/><path class="cls-3" d="M71.74,885c-.59-4.65-14-80.84-3.49-117.48,0,0,19.77,58.16,29.66,69.21,0,0,5.23-132,22.68-138.42,0,0,4.65,63.39,8.72,64,0,0,82-108.75,138.42-116.31,0,0-96.38,120.38-96.17,151.21,0,0,72.91-86.66,111.29-96.55,0,0-75.6,112.72-72.69,154.71,0,0,34.58-61.07,80.84-71,0,0-53.51,54.67-44.79,100.62Z"/><path class="cls-2" d="M262.18,587.81c.58-4.58,14-79.49,3.49-115.52,0,0-19.78,57.19-29.66,68.05,0,0-5.24-129.81-22.69-136.1,0,0-4.65,62.33-8.72,62.9,0,0-82-106.93-138.42-114.37,0,0,96.38,118.38,96.17,148.68,0,0-72.9-85.2-111.29-94.92,0,0,75.61,110.82,72.7,152.11,0,0-34.58-60-80.84-69.77,0,0,53.5,53.76,44.78,98.94Z"/><path class="cls-3" d="M338.64,587.81c.59-4.66,14-80.85,3.49-117.49,0,0-19.77,58.16-29.66,69.21,0,0-5.23-132-22.68-138.42,0,0-4.65,63.4-8.72,64,0,0-82-108.76-138.42-116.32,0,0,96.38,120.39,96.17,151.22,0,0-72.91-86.66-111.29-96.55,0,0,75.6,112.72,72.69,154.7,0,0-34.57-61.06-80.84-70.95,0,0,53.51,54.67,44.79,100.62Z"/><path class="cls-2" d="M1355.33,640.32c-.58-4.58-14-79.49-3.49-115.52,0,0,19.78,57.19,29.66,68.05,0,0,5.24-129.81,22.69-136.1,0,0,4.65,62.33,8.72,62.91,0,0,82-106.94,138.42-114.38,0,0-96.38,118.38-96.17,148.69,0,0,72.9-85.21,111.29-94.93,0,0-75.61,110.83-72.7,152.11,0,0,34.58-60,80.84-69.76,0,0-53.5,53.75-44.78,98.93Z"/><path class="cls-3" d="M1278.87,640.32c-.59-4.66-14-80.84-3.49-117.48,0,0,19.77,58.16,29.66,69.21,0,0,5.23-132,22.68-138.42,0,0,4.65,63.39,8.72,64,0,0,82-108.76,138.42-116.32,0,0-96.38,120.39-96.17,151.22,0,0,72.91-86.66,111.29-96.55,0,0-75.6,112.72-72.7,154.71,0,0,34.58-61.07,80.85-71,0,0-53.51,54.67-44.79,100.62Z"/><path class="cls-2" d="M483.79,804.21c-.58-4.58-14-79.49-3.49-115.52,0,0,19.77,57.19,29.66,68,0,0,5.23-129.81,22.68-136.1,0,0,4.65,62.34,8.72,62.91,0,0,82-106.94,138.42-114.37,0,0-96.38,118.37-96.17,148.68,0,0,72.91-85.21,111.3-94.93,0,0-75.61,110.83-72.7,152.11,0,0,34.58-60,80.84-69.76,0,0-53.51,53.75-44.79,98.93Z"/><path class="cls-3" d="M407.32,804.21c-.58-4.65-14-80.84-3.49-117.48,0,0,19.78,58.16,29.66,69.21,0,0,5.24-132,22.69-138.42,0,0,4.65,63.39,8.72,64,0,0,82-108.75,138.42-116.31,0,0-96.38,120.38-96.17,151.21,0,0,72.9-86.66,111.29-96.55,0,0-75.61,112.72-72.7,154.71,0,0,34.58-61.07,80.84-71,0,0-53.5,54.67-44.78,100.62Z"/></g></svg>
