<svg xmlns="http://www.w3.org/2000/svg" xmlns:xlink="http://www.w3.org/1999/xlink" width="310" height="130" viewBox="0 0 310 130"><defs><style>.cls-1{fill:url(#linear-gradient);}.cls-2{fill:#fff;}</style><linearGradient id="linear-gradient" x1="155" y1="127.12" x2="155" y2="2.88" gradientUnits="userSpaceOnUse"><stop offset="0" stop-color="#3d1300"/><stop offset="1" stop-color="red"/></linearGradient></defs><title>Startknap</title><g id="Layer_2" data-name="Layer 2"><ellipse class="cls-1" cx="155" cy="65" rx="152.3" ry="62.12"/><path class="cls-2" d="M65.05,81.55l7.65-9.21c3.6,2.88,8.12,4.91,11.87,4.91,4.06,0,5.78-1.32,5.78-3.59s-2.58-3.2-6.87-4.91l-6.33-2.66C71.69,63.91,66.93,59.3,66.93,52c0-8.66,7.8-15.77,18.89-15.77A24.4,24.4,0,0,1,102.68,43L96,51.42c-3.44-2.42-6.4-3.67-10.15-3.67-3.28,0-5.31,1.17-5.31,3.43,0,2.42,2.89,3.28,7.5,5.08l6.16,2.42c6.33,2.49,9.92,6.87,9.92,13.89,0,8.59-7.19,16.24-19.83,16.24A29.41,29.41,0,0,1,65.05,81.55Z"/><path class="cls-2" d="M110.48,72.88V59.3h-5.15v-10l5.93-.47,1.57-10.15h11.08V48.84h8.9V59.3h-8.9V72.65c0,4.29,2.19,5.7,4.68,5.7a11,11,0,0,0,3.44-.63l2,9.68a29.3,29.3,0,0,1-9.21,1.41C114.7,88.81,110.48,82.41,110.48,72.88Z"/><path class="cls-2" d="M136.87,76.79c0-8.12,6.24-12.65,21.23-14.21-.31-2.81-2-4.06-5.46-4.06-2.81,0-5.78,1.09-9.84,3.28l-4.68-8.75a32.94,32.94,0,0,1,17.17-5.15c10.15,0,16.24,5.47,16.24,18.27v21.7H160.6l-.94-3.75h-.31c-3.12,2.81-6.56,4.69-10.77,4.69C141.24,88.81,136.87,83.19,136.87,76.79Zm21.23-.94V70.54c-6.4.94-8.43,3-8.43,5.15,0,1.8,1.25,2.81,3.59,2.81C155.45,78.5,156.7,77.41,158.1,75.85Z"/><path class="cls-2" d="M180.27,48.84H191.2l.93,6.71h.32c2.88-5.31,7.26-7.65,11.08-7.65a11.57,11.57,0,0,1,4.84.78l-2.19,11.56a18,18,0,0,0-4.37-.63c-2.81,0-6.24,1.72-8.12,6.56v21.7H180.27Z"/><path class="cls-2" d="M214.61,72.88V59.3h-5.15v-10l5.93-.47L217,38.69H228V48.84h8.9V59.3H228V72.65c0,4.29,2.19,5.7,4.68,5.7a11,11,0,0,0,3.44-.63l2,9.68A29.3,29.3,0,0,1,229,88.81C218.83,88.81,214.61,82.41,214.61,72.88Z"/></g></svg>
