<svg xmlns="http://www.w3.org/2000/svg" xmlns:xlink="http://www.w3.org/1999/xlink" width="1600" height="900" viewBox="0 0 1600 900"><defs><style>.cls-1{fill:#8abcd3;}.cls-2{fill:#bdbdbd;}.cls-3{fill:#a4a4a4;}.cls-4{fill:#8a8a8a;}.cls-5{fill:#a8cd67;}.cls-6{fill:#80c34a;}.cls-7{fill:#936239;}.cls-8{fill:#1a6a00;}.cls-9{fill:#806239;}.cls-10{fill:#b78d6d;}.cls-11{fill:gray;}.cls-12{fill:#facdc0;}.cls-13{fill:#3b2608;}.cls-14{fill:#e3bcb2;}.cls-15{fill:#fff;}.cls-16{fill:#b2272d;}.cls-17{fill:#e3e3e3;}.cls-18{fill:#1f3900;}.cls-19{fill:#f1f0d8;}.cls-20{fill:#333;}.cls-21{fill:#a88d86;}.cls-22{fill:#ff1d25;}.cls-23{fill:#ff9479;}.cls-24{fill:#cc3500;}.cls-25{fill:#4d4d4d;}.cls-26{fill:url(#linear-gradient);}.cls-27{fill:#666;}.cls-28{fill:none;}</style><linearGradient id="linear-gradient" x1="615.55" y1="881.27" x2="615.55" y2="757.03" gradientUnits="userSpaceOnUse"><stop offset="0" stop-color="#3d1300"/><stop offset="1" stop-color="red"/></linearGradient></defs><title>titelscreen</title><g id="Layer_1" data-name="Layer 1"><rect class="cls-1" width="1599.98" height="424.24"/><polygon class="cls-2" points="1412.31 379.72 1257.82 379.72 1257.82 152.15 1328.73 152.15 1328.73 252.13 1414 250.69 1412.31 379.72"/><rect class="cls-3" x="1538.39" y="165.58" width="61.61" height="189.94"/><polyline class="cls-4" points="1515.57 238.52 1553.57 238.52 1553.57 363.46 1465.78 363.46 1465.78 278.38"/><rect class="cls-3" x="869.72" y="91.63" width="86.95" height="291.58"/><polygon class="cls-4" points="1041.51 267.22 961.75 269.13 924.59 301.6 924.59 383.72 1041.51 383.72 1041.51 267.22"/><polygon class="cls-2" points="1147.88 383.72 993.39 383.72 993.39 156.15 1064.31 156.15 1064.31 256.13 1149.57 254.69 1147.88 383.72"/><rect class="cls-3" x="235.22" y="140.56" width="132.09" height="350.41"/><rect class="cls-4" x="358.26" y="326.43" width="100.42" height="164.54"/><polygon class="cls-4" points="246.53 488.94 0.45 488.94 0 160.87 105.28 160.36 185.01 252.17 246.53 324.65 246.53 488.94"/><path class="cls-5" d="M1600,539.45c0-35.45,0-77.66-.51-189.52,0,0-138.61-78.26-1127.48,75.54-7.89,12.12-12.21,32.21-6.82,50.31C511.34,630.54,1599.81,765.64,1600,539.45Z"/><path class="cls-6" d="M-10.45,373.1S79.3,271.49,543,442.9c0,0,418.81,123.69,608.28,116.62S1600,451.73,1600,451.73V902.34L-10.45,914.71Z"/><rect class="cls-7" x="1212.04" y="158.32" width="27.86" height="303.06"/><rect class="cls-7" x="1122.38" y="180.48" width="117.09" height="25.08" transform="translate(413.83 -725.35) rotate(40.85)"/><path class="cls-8" d="M1326.63,91.08c.07-.3.16-.6.22-.9,4.25-20.55-14.88-41.87-42.73-47.64-21.73-4.49-42.34,1.81-52.37,14.56a59.16,59.16,0,0,0-22-9.25c-14.33-3-27.89-.86-36.56,4.75a21,21,0,0,0-14.31-11c-9.09-1.88-18.09,2.61-22.82,10.52a30.79,30.79,0,0,0-18.4-11.29c-15.3-3.16-29.88,4.82-32.57,17.83a20.7,20.7,0,0,0-.15,7.56,38.1,38.1,0,0,0-4.2-1.13c-16.66-3.45-32.51,5-35.39,19a23.19,23.19,0,0,0,3.3,17,23.33,23.33,0,0,0-9.88,14.8c-2.55,12.33,4.82,24.27,16.46,26.68.45.09.9.16,1.34.23A25.33,25.33,0,0,0,1088,179.9a23.77,23.77,0,0,0,16.84,12.61c12.17,2.52,23.81-3.91,26.24-14.41,9.49,1.83,17,8.5,23.81,5.81,5.38,5.31,15.56,2.35,25.8,4.47,18.72,3.87,35.66-1.5,37.83-12a13.36,13.36,0,0,0-2.25-9.95c7.3,1.44,14.25,1,19.6-.78A31.67,31.67,0,0,0,1255.9,179c16.43,3.4,32.28-6.06,35.4-21.13a25.74,25.74,0,0,0-.86-13.6q4.85,1.49,10,2.57c31.5,6.52,59.8-1.52,63.2-18C1366.56,114.92,1350.68,99.46,1326.63,91.08Zm-92.6,48a44.14,44.14,0,0,0-11.7-4.16c-14.84-3.07-28.32,1.48-30.11,10.15a10.48,10.48,0,0,0,.77,6.37c-1.45-.41-2.93-.78-4.45-1.1-8.94-1.85-17.47-1.58-24.18.34-5.12-6.39-14.36-11.76-25.57-14.08-17.3-3.58-33.2,1.38-37.37,11.17a25.26,25.26,0,0,0-23-16.35,24,24,0,0,0,2.74-15.28c12.22-1.2,22.31-8.74,24.55-19.57.64-3.09-35.64,20-36.29,17.06-18.41,60.93,22.92,47.84,23.69,48,11.88,2.46,14.06,12.24,19.84,4.11,3,4.12,12.54-12.06,17.79-11,6.76,1.4-3.09-.34,1.85-4.79,5.92,8.22,27.71,21.25,41.56,24.12,12.93,2.67,46.8-17.72,55.45-22.15,4.07,5.34,15.75-12,22.4-8.29.35,4.79,14.69-18.35,10.86-15C1253.28,130,1238.16,130.94,1234,139.09Z"/><rect class="cls-9" x="80.55" y="252.98" width="48.25" height="413" transform="translate(209.36 918.95) rotate(-180)"/><polygon class="cls-9" points="120.19 365.36 273.62 261 245.21 235.15 91.79 339.51 120.19 365.36"/><path class="cls-8" d="M-6,257.94c5.4,20.53,30.36,27.77,58.83,23.14,15-2.44,27.24-9.24,34.72-18.12,9.28,2.48,21.31,3,34,1.06-3.59,4.42-5.08,9.07-3.89,13.56,3.76,14.31,33.1,21.63,65.52,16.36,17.74-2.89,35.37,1.14,44.69-6.1,11.82,3.66,24.8-5.43,41.24-7.91,4.21,14.3,24.38,23.07,45.46,19.64,13.51-2.2,24.15-8.88,29.17-17.2a54.75,54.75,0,0,0,29.17,1.77c21-4.43,34.82-20.62,32.11-37.58a30.37,30.37,0,0,0-6.88-14.7c.77-.09,1.55-.18,2.32-.31,20.17-3.28,32.94-19.56,28.52-36.36-2.28-8.67-8.69-15.77-17.13-20.17,5.55-7,7.85-15.13,5.72-23.2-5-19-32.43-30.55-61.3-25.86q-3.75.62-7.26,1.55a22.5,22.5,0,0,0-.27-10.31C344,99.47,318.78,88.59,292.29,92.91c-13.53,2.2-24.75,7.94-31.88,15.38C252.22,97.5,236.62,91.39,220.89,94c-11,1.79-19.79,7.46-24.8,15-15-7.65-38.5-10.52-63.32-6.48-14.75,2.4-27.83,6.9-38.11,12.61C77.28,97.66,41.58,89.07,4,95.2c-3.39.55-10-.69-9.95,2m3.22,119.41,43.56-4C35.7,208.93,59,239.53,59.6,233c11.53-5.12,31.75,18.57,38.81,11.3,15,6,73.64,33.83,96,30.18,24-3.9,61.74-21.66,72-32.86,8.56,6.06-8.51,8.43,3.21,6.53,9.09-1.48,25.62,20.57,30.81,14.95,10,11.08,13.78-2.24,34.37-5.59,1.33-.22,72.92,17.62,41-65.42-1.12,4.06-64-27.45-62.86-23.25,3.88,14.77,21.36,25,42.52,26.67a25.73,25.73,0,0,0,.39,11.58,28.83,28.83,0,0,0,4.36,9.24,56.5,56.5,0,0,0-7.72.7c-15.25,2.48-27,10.92-32.13,21.58-7.23-13.33-34.77-20.09-64.74-15.21-19.41,3.16-35.42,10.48-44.28,19.18-11.63-2.62-26.4-3-41.89-.45-2.63.42-5.2.93-7.71,1.49a11.54,11.54,0,0,0,1.34-8.68c-3.11-11.82-26.46-18-52.17-13.83a89.86,89.86,0,0,0-20.26,5.67C83.56,215.66,57.37,214.38,40.78,212.55Z"/><path class="cls-3" d="M995.9,770.38l.75,129.12,35.75.25.5-72.75a174.55,174.55,0,0,0,34,3.23,192.16,192.16,0,0,0,35-4.22l-.25,74,35.76-.25.24-130.11Z"/><rect class="cls-9" x="992.66" y="748.78" width="147.96" height="23.84"/><rect class="cls-10" x="1042.4" y="745.01" width="46.47" height="34.24"/><rect class="cls-9" x="1049.3" y="750.23" width="32.67" height="23.78"/><path class="cls-11" d="M1040.75,801.55c7.69,6.87,26.92,16.68,35.89,10.3s-1.71,6.87-13.24,6.38S1040.75,801.55,1040.75,801.55Z"/><polygon class="cls-12" points="1023.46 447.45 1023.46 483.38 973.98 483.38 978.74 542.76 1028.23 581.26 1094.95 584.92 1134.17 553.4 1144.44 482.28 1093.12 482.64 1092.02 446.72 1023.46 447.45"/><path class="cls-13" d="M1060.12,575.44c10.7-5.28,17.67-10,21-23S1080.89,571,1066,574.2,1060.12,575.44,1060.12,575.44Z"/><path class="cls-13" d="M1110.61,569.9c3.48-11.41,4.78-19.75-2.34-31s13.31,12.84,5.43,25.93S1110.61,569.9,1110.61,569.9Z"/><path class="cls-13" d="M1078,572.11c7.33-9.42,11.51-16.75,8.9-29.83s7.84,16.75-4.19,26.16S1078,572.11,1078,572.11Z"/><path class="cls-13" d="M1052.37,568.44c-3.35-9.41-6.7-15.69-5.5-28.77s-3.59,16.74,1.91,26.16S1052.37,568.44,1052.37,568.44Z"/><path class="cls-13" d="M1060,570.09c-1.46-12-3.73-20.32,1-35.55s-8.46,19-4.5,31.55S1060,570.09,1060,570.09Z"/><path class="cls-13" d="M1103.74,562.91c-.58-16.1,1.17-28-10.81-44.17s16.85,17.18,13.32,35.58S1103.74,562.91,1103.74,562.91Z"/><path class="cls-13" d="M1008.61,564.63c-9.63-6.13-9.25-27.54-.94-45.89s-15.51,22.1-6.45,39.62S1008.61,564.63,1008.61,564.63Z"/><path class="cls-14" d="M1023.05,442.17l.35,11.51a78.46,78.46,0,0,0,26.51,9.42c15.35,2.44,42.21-7,42.21-7V442.17Z"/><path class="cls-12" d="M1098.75,251.7c-18.49-5.93-53.38-7-69.42-1.74s-26.31,6.57-35,22.47-7.6,111.83-7.6,111.83.7,15.35,4.53,24.77,5.59,25.11,22,33.83,31.4,12.56,49.54,11.86,35.93-4.88,45.34-11.86,16.75-15.35,20.24-26.16,5.23-103.95,5.23-103.95,0-27.91-5.23-37S1098.75,251.7,1098.75,251.7Z"/><path class="cls-13" d="M1036.56,294c2.81-3.75,1.87-11.25-9.38-17.81s-18.75-10.31-23.43-7.5-6.57,5.63-3.75,7.5,12.18,2.81,17.81,6.56,9.37,6.57,13.12,9.38S1036.56,294,1036.56,294Z"/><path class="cls-13" d="M1073,288.69c-.08-4.92,5.07-11.41,18-11.75s21.24,0,23.39,5,2,8.58-1.36,8.89-11.53-3.62-18.28-3-11.45,1.3-16.14,2S1073,288.69,1073,288.69Z"/><path class="cls-12" d="M988.29,337.86c-2.44-6.62-9.2-10.46-15.47-11.86s-12.56-2.09-13.61,2.44-1.74,10.82,3.49,19.89,10.81,19.18,11.51,27.21,12.56,6.28,12.56,6.28Z"/><path class="cls-12" d="M1130.49,337.86c2.48-6.62,9.36-10.46,15.75-11.86s12.78-2.09,13.85,2.44,1.77,10.82-3.55,19.89-11,19.18-11.72,27.21-12.78,6.28-12.78,6.28Z"/><path class="cls-13" d="M1054.37,239.62c-1.87-2.81-1.87-2.81-4.69-2.81s-6.56,1.87-6.56,1.87-6.56,0-7.5,5.63,1.88,13.12,5.63,12.18a15.86,15.86,0,0,0,6.56-3.75,2.9,2.9,0,0,0,3.75,1.88c2.81-.94,2.81-1.88,5.62-.94s4.69,1.88,5.63,0l1.87-3.75s-1.87,2.81,1.88,2.81h4.69s-2.82,1.88-2.82,3.75-5.71-2.26-9.46.56-2.72,4.13-2.72,4.13-14.07.94-11.25,6.56,8.43,4.69,11.25,3.75a12,12,0,0,1,5.62-.93c2.81,0,5.63-2.82,5.63-2.82a4.69,4.69,0,0,0,4.68.94,10.27,10.27,0,0,0,3.75-1.87,12,12,0,0,0,5.63,1.87,11.38,11.38,0,0,0,4.69-.94,4.69,4.69,0,0,0,4.68.94,40,40,0,0,0,4.69-1.87s1.88,2.81,4.69,2.81h3.75a6.42,6.42,0,0,0,3.75,3.75,16.36,16.36,0,0,0,4.69.94s0,1.87,2.81,2.81a14.72,14.72,0,0,0,3.75.94s-1.88,2.81,1.87,4.68l5.63,2.82a4.51,4.51,0,0,0,0,3.75c.94,1.87-3.75,3.75-3.75,5.62s-1.88,6.56,2.81,10.31c-1.87,4.69-2.81,7.5-1.87,9.38s4.68,3.75,4.68,3.75-5.62.94-4.68,2.81,1.87,3.75,4.68,3.75a11.9,11.9,0,0,0,5.63-1.87s1.87,3.75,4.69,3.75,5.62-1.88,4.68-3.75a3.17,3.17,0,0,1,2.82-4.69c2.81,0,7.5,0,6.56-1.88a7,7,0,0,0-2.81-2.81s3.75-3.75,2.81-5.62-3.75-3.75-3.75-3.75a4.07,4.07,0,0,0,1.87-3.75c0-2.82-2.81-6.57-2.81-6.57s3.75-2.81,2.81-6.56-6.56-5.62-6.56-5.62.94-.94-1.87-3.75a8.72,8.72,0,0,0-5.63-2.82s3.75-4.68,1.88-6.56-7.5-4.69-7.5-4.69a4.17,4.17,0,0,0-1.88-4.68l-2.81-1.88s-.94-5.62-3.75-6.56a24.65,24.65,0,0,0-6.56-.94s.93-4.69-1.88-6.56-7.5-1.88-9.37,0c-1.88-1.88-2.82-4.69-6.57-4.69a8.18,8.18,0,0,0-5.62,1.88s0-2.82-3.75-3.75a12.24,12.24,0,0,0-7.5.93s-1.88-3.75-4.69-3.75a11.85,11.85,0,0,0-5.62,1.88h-2.82c-1.87,0-3.75,1.87-3.75,1.87s-2.81-1.87-4.68-1.87S1054.37,239.62,1054.37,239.62Z"/><path class="cls-13" d="M995.35,269.83c-4.86-2.5-10.3.67-11.11,2.6l-1.63,3.86s-6.43,2.29-6.19,6l.36,5.62s-4.62,1.23-5.31,5a7.39,7.39,0,0,0,2.29,6.42s-2.63,3-1.51,5.74a30.17,30.17,0,0,0,4.16,6.31s-2.56,3.92-.57,5.67l3,2.63s-2.38,6.73,1.48,8.36,15.85-2,9.75-9.08c3.56-3,2.51-4.86,1.39-7.61a14.91,14.91,0,0,1-1.17-3.68,3.32,3.32,0,0,0,2.68-2.05c.82-1.93-.3-4.68-.3-4.68s2.69-2.05,2.51-4.86a7.88,7.88,0,0,0-4.17-6.31c1.7-2.92,2.63-3,2.45-5.79a20.27,20.27,0,0,0-1.3-5.55s3.69-1.18,4.44-4.05A4.72,4.72,0,0,0,995.35,269.83Z"/><ellipse class="cls-15" cx="1056.54" cy="398.94" rx="49.19" ry="18.45"/><path class="cls-16" d="M1076.11,382v14.32H1061.5V380.58c-1.63-.06-3.29-.09-5-.09h-1.33v13.34H1043V381.21c-20.56,2.21-35.62,9.31-35.62,17.73,0,5.65,6.77,10.7,17.41,14.09V401.67h11v14c2.4.42,4.91.77,7.5,1V403.07h13.08V417.4h.15c1.28,0,2.55,0,3.8-.06v-15h11.05v14.17c2.84-.34,5.56-.77,8.14-1.28V402.11h11v10.15c9.33-3.36,15.14-8.08,15.14-13.32C1105.72,391.36,1093.53,384.85,1076.11,382Z"/><path class="cls-17" d="M978.06,482.58l-17.62.94-1.85,97.63s-8.73,39.24-7.56,64.58-1.23,55.84,8.79,72.93,32.92,30.64,32.92,30.64l147.65-.19s24.64-15,29.35-25.05,6.93-42.28,5.17-67.62-12-62-15.51-73.81-3.32-100.4-3.32-100.4L1139,481.4s2.36,34.18-7.07,50.09-37.13,36.54-64.24,37.13-58.85-8-70.72-20c-9.51-9.67-17.47-24.64-18.27-39.48C978.27,502,978.06,482.58,978.06,482.58Z"/><path class="cls-18" d="M1012.68,540.66l-1.32,6.34,2.38,2.11-1.32,5.55,1.32,3.17-1.32,2.11L1010,602.21l.79.79s0,6.87-1.06,8.19-7.66,6.6-7.92,20.87l-.79.52V697.3l.79,1.32.26,9.25s.53,3.43,6.61,5.81h33.55s5.81-.79,7.66-5.28v-8.72l1-1.58V632.85l-1-.79a25.66,25.66,0,0,0-6.87-20.87l-1.85-8.19.79-1.06-2.37-41.47-1.59-2.38,1.85-2.38-1.59-6.6,2.38-1.85-1.85-6.6Z"/><polygon class="cls-19" points="1001.85 632.06 1049.93 632.06 1050.98 632.85 1050.98 698.1 1049.93 699.68 1001.85 699.68 1001.85 698.63 1001.06 697.3 1001.06 632.58 1001.85 632.06"/><polyline class="cls-19" points="1010.04 602.21 1010.83 603 1041.21 603 1042 601.94 1039.63 560.47 1038.04 558.09 1013.74 557.83 1012.42 559.94"/><polyline class="cls-20" points="1013.74 549.11 1038.3 549.11 1040.68 547.26 1038.83 540.66 1012.68 540.66 1011.1 547.52"/><path class="cls-21" d="M988.51,344.49s-3.66-4.18-6.8-5.75-10.46-4.19-9.94,1.57,2.58,9.27,6.28,14.12c4.1,5.38,7.66,13.63,7.66,13.63l3.85,8.35Z"/><path class="cls-21" d="M1133.42,344.49s3.55-4.18,6.59-5.75,10.15-4.19,9.64,1.57-2.1,11-5.85,15.68a60.8,60.8,0,0,0-7.66,12.07l-3.22,8.39Z"/><path class="cls-13" d="M1081.56,354c-5.63-1.87-8.44-1.87-10.31,0a13.75,13.75,0,0,0-2.82,4.69s-7.5,0-9.37,3.75,0,10.31,5.62,11.25,5.63,0,5.63,0-3.75,4.69,0,8.44,3.75,3.75,10.31,2.81c.94,6.56.94,9.38,3.75,10.31s5.63.94,9.38-1.87c-.94,9.37-.94,7.5,1.87,10.31s3.75,2.81,3.75,2.81-1.87,3.75,0,5.63,6.56,2.81,6.56,2.81-3.75,7.5,2.82,11.25a13.53,13.53,0,0,0,12.18.94s-2.81,7.5,2.82,10.31,7.5.94,11.25,0c.93,1.88.93,2.81,3.75,2.81a4.07,4.07,0,0,0,3.75-1.87s-1.88,8.44,4.68,9.37A11.59,11.59,0,0,0,1157.5,444s-.94.94,1.87,2.82,4.69,0,4.69,0-2.81,7.5,2.81,9.37,8.44.94,10.31-.94,2.82-6.56,2.82-6.56,1.87,1.88,4.68,0a6,6,0,0,0,2.82-4.69,2.9,2.9,0,0,0,3.75,1.88c2.81-.94,3.75-.94,3.75-7.5s-.94-7.5-.94-7.5a20.94,20.94,0,0,0,1.87-8.44,11.23,11.23,0,0,0-2.81-7.5s3.75-1.87,3.75-5.62-6.56-7.5-6.56-7.5,2.81-4.69.94-6.57-9.38-3.75-9.38-3.75-.94-4.68-3.75-5.62-9.37.94-9.37.94a13.26,13.26,0,0,0-4.69-2.82,6.55,6.55,0,0,0-4.69,0s0-6.56-4.69-7.5a8.59,8.59,0,0,0-7.5,1.88,7.35,7.35,0,0,0-1.87-4.69c-1.88-1.87-9.38-3.75-11.25,0-.94-3.75,0-4.69-2.81-5.62s-3.75,0-3.75,0,.93-3.75-.94-4.69a12.54,12.54,0,0,0-4.69-.94s2.81-3.75,0-5.62-13.12-1.88-15.94,0c-2.81-2.82-.93-2.82-5.62-3.75s-6.56,0-6.56,0-.94-5.63-6.57-4.69S1081.56,354,1081.56,354Z"/><path class="cls-13" d="M1035.23,354c5.61-1.87,8.41-1.87,10.28,0a13.71,13.71,0,0,1,2.8,4.69s7.48,0,9.34,3.75,0,10.31-5.6,11.25-5.61,0-5.61,0,3.74,4.69,0,8.44-3.73,3.75-10.27,2.81c-.94,6.56-.94,9.38-3.74,10.31s-5.61.94-9.35-1.87c.94,9.37.94,7.5-1.86,10.31s-3.74,2.81-3.74,2.81,1.87,3.75,0,5.63-6.54,2.81-6.54,2.81,3.74,7.5-2.8,11.25a13.47,13.47,0,0,1-12.15.94s2.8,7.5-2.8,10.31-7.48.94-11.22,0c-.93,1.88-.93,2.81-3.73,2.81a4,4,0,0,1-3.74-1.87s1.87,8.44-4.67,9.37A11.54,11.54,0,0,1,959.55,444s.93.94-1.87,2.82-4.67,0-4.67,0,2.8,7.5-2.8,9.37-8.41.94-10.28-.94-2.8-6.56-2.8-6.56-1.87,1.88-4.68,0a6.06,6.06,0,0,1-2.8-4.69,2.89,2.89,0,0,1-3.74,1.88c-2.8-.94-3.73-.94-3.73-7.5s.93-7.5.93-7.5a20.94,20.94,0,0,1-1.87-8.44,11.23,11.23,0,0,1,2.81-7.5s-3.74-1.87-3.74-5.62,6.54-7.5,6.54-7.5-2.8-4.69-.94-6.57,9.35-3.75,9.35-3.75.93-4.68,3.74-5.62,9.34.94,9.34.94A13.18,13.18,0,0,1,953,384a6.5,6.5,0,0,1,4.67,0s0-6.56,4.67-7.5a8.54,8.54,0,0,1,7.48,1.88,7.35,7.35,0,0,1,1.87-4.69c1.87-1.87,9.34-3.75,11.21,0,.93-3.75,0-4.69,2.8-5.62s3.74,0,3.74,0-.94-3.75.93-4.69a12.43,12.43,0,0,1,4.67-.94s-2.8-3.75,0-5.62,13.09-1.88,15.89,0c2.8-2.82.93-2.82,5.6-3.75s6.54,0,6.54,0,.94-5.63,6.55-4.69S1035.23,354,1035.23,354Z"/><circle class="cls-14" cx="1022.18" cy="318.46" r="19.15"/><circle class="cls-15" cx="1022.18" cy="314.62" r="17.34"/><circle cx="1022.5" cy="314.62" r="6.09"/><path class="cls-22" d="M1024.37,298.68c-1.87.94-3.53,1.7-2.81,2.81,1,1.59,2.69,1.59,3,3.43.16.92-.19,2.2-1.13,2.2s-.9,1.19,0,.94c1.62-.46,2.3-2.65,1.58-4.3-.61-1.41-2.6-1.76-2.6-2.69s1.26-1.35,1.26-1.35C1025.54,298.79,1024.37,298.68,1024.37,298.68Z"/><circle class="cls-14" cx="1095.12" cy="318.46" r="19.15"/><circle class="cls-15" cx="1095.05" cy="315.09" r="17.34"/><circle cx="1095.05" cy="315.09" r="6.09"/><path class="cls-22" d="M1099.85,321.51c1.35,1.61,2.47,3.05,3.39,2.09,1.3-1.37.92-3,2.64-3.71.86-.37,2.18-.32,2.4.59s1.36.6.91-.22c-.81-1.47-3.1-1.62-4.54-.54-1.23.92-1.11,2.93-2,3.14S1101,322,1101,322C1099.68,320.34,1099.85,321.51,1099.85,321.51Z"/><path class="cls-22" d="M1094.15,307.43c-1.63,1.7-3,3.23-4.07,2.1-1.53-1.61-1-3.37-3.07-4.29-1-.46-2.6-.5-2.88.5s-1.64.58-1.08-.3c1-1.58,3.73-1.6,5.42-.31,1.45,1.1,1.27,3.33,2.35,3.63s1.92-.91,1.92-.91C1094.37,306.15,1094.15,307.43,1094.15,307.43Z"/><path class="cls-22" d="M1091,303.5c-.23-.59-1.84-.25-2.17.25a7,7,0,0,0-.35,2.23l.5.45a7.26,7.26,0,0,1,.27-1.74c.25-.6.42-1.05,1.06-.92S1091,303.5,1091,303.5Z"/><ellipse class="cls-23" cx="1059.06" cy="341.81" rx="22.5" ry="18.75"/><path class="cls-2" d="M1141.42,609.78c-20,11.23-52.48,12.31-57,10.3-14.24-6.38,2.72,6.86,21,6.37S1141.42,609.78,1141.42,609.78Z"/><path class="cls-2" d="M1145.22,708.85c-53,25-70.63,34.33-155,8.83-1.48-.45,34.4,21,79,20.11S1145.22,708.85,1145.22,708.85Z"/><path class="cls-2" d="M956.88,513.65s5.39,12.75,10.79,37.27,9.81,43.65,2.94,62.29-14.71,25-15.69,37.28A200,200,0,0,1,951.48,674l-22.56-81.42Z"/><path class="cls-12" d="M960.44,484.44s-20.91,2.46-32.11,15.43-29.44,24.75-31.21,46.56,4.1,30.06,5.87,50.69-4.13,53,2.35,70.13,6.49,25.93,24.76,31.24,22.86,10.2,36,8c14.19-2.42,17.81-8.76,26.27-6.34,6.1,1.74,22.62.72,27.34-1.63s10-2.36,17.68-3.54,14.8-2.48,15.36-6.61c.9-6.64-12.41-4.59-12.41-4.59s10.72-1.5,11.78-5.3c2.14-7.62-15.91-4.13-15.91-4.13s15.32-7.66,17.09-10.61.59-6.48-5.3-6.48-18.27,2.36-18.27,2.36,20-6.49,20.63-10.61.28-6.23-9.43-5.89c-13.55.46-35.37,5.89-37.13,4.12s-2.36-10-1.77-16.5-1.18-9.43-7.07-15.91-17-7.21-14.07-.73,9.32,11.42,7.55,21.44.62,25.26-14.11,27.61-20.63,13-21.81-4.71,4.5-34.38,10-45.24c9.86-19.66,1.79-60.78,1.79-60.78Z"/><path class="cls-2" d="M1154.05,535.72s-10.22,32.86-10.22,48.06-1.47,20.6,3.93,30.9,15.6,23.05,18.55,35.32,5.39,25,5.39,34.82-5.39,28.94-5.39,28.94l1,16.18,19.62-48.55L1183,595.55Z"/><path class="cls-12" d="M1212.19,596.45c1.66-20.63,7.45-28.88,5.79-50.69s-20.94-33.59-31.45-46.56-30.45-15.13-30.45-15.13l-5.47,74.21s-5.38,34.56,3.89,54.22c5.12,10.86,15.51,28.28,17.69,51.23,1,10.3,3,26.89-2.94,42.67-.3,3.8-19.4,32.13-21.92,38.94-1.63,4.4-6.64,13-.3,16.31,3.38,1.77,6.34-2.42,7.85-6s7.85-14.49,7.85-14.49-5.11,36-5.13,40.45c0,5.24.49,8.62,4.83,9.36,8.75,1.51,9-43.17,10.26-43.78s-3.88,40.35-.56,43.37,6.6,1.62,7.81-.49,3.92-45.59,3.92-45.59,1.81,41.66,3.63,45.28,2.87,3.72,5.13,3c7.22-2.22.3-48.91.3-48.91S1195,771,1199.56,777s7,3.33,7.85.31-4.53-30.5-4.53-34.42c0-3.15,3.69-43.92,5.46-77.08C1211.55,636.28,1210.55,616.79,1212.19,596.45Z"/><path class="cls-14" d="M1043,476.77s2.9,10.64,13.22,11,14.19-5.16,15.16-8.71-2.26-4.51-3.23-2.9-5.8,7.42-11.29,6.45-7.73-2.58-10.31-5.16S1043,476.77,1043,476.77Z"/></g><g id="Layer_2" data-name="Layer 2"><rect class="cls-3" x="1412" y="159.29" width="76.96" height="173.42"/><rect class="cls-15" x="586.2" y="336.03" width="14.08" height="297.16" transform="translate(63.48 -68.68) rotate(7)"/><rect class="cls-4" x="603" y="336.28" width="14.08" height="22.95" transform="translate(46.93 -71.75) rotate(7)"/><polygon class="cls-24" points="396.65 311.94 810.45 362.75 898.47 305.82 826.11 235.26 412.3 184.45 396.65 311.94"/><polygon class="cls-15" points="413.06 299.69 808.18 348.91 879.05 304.67 820.36 249.73 425.24 200.51 413.06 299.69"/><path d="M432.52,272.92l45-42.94,5.64,5.58-45,42.94Zm3.22-21.61c1.87-15.15,11.55-22.59,24.3-21s20.34,11.2,18.49,26.29-11.6,23-24.35,21.45S433.88,266.47,435.74,251.31ZM466.06,255c1-8.36-1.78-13.6-7.31-14.27s-9.51,3.72-10.54,12.08,1.73,14,7.26,14.69S465,263.4,466.06,255Z"/><path d="M489.55,234.77l12.18,1.49-4.4,35.85,17.42,2.13-1.25,10.21-29.61-3.64Z"/><path d="M542.56,240.82l26.8,3.29-.62,5-20.88-2.56-1.78,14.56,17.61,2.17-.62,5-17.61-2.16L543.39,283,565,285.68l-.61,5-27.51-3.38Z"/><path d="M579.89,245.41l5.92.72-5.09,41.49L601,290.11l-.62,5-26.2-3.21Z"/><path d="M614.32,249.63l5.91.73-5.09,41.48,20.29,2.49-.61,5-26.21-3.22Z"/><path d="M648.74,253.86l26.8,3.29-.62,5L654,259.59l-1.78,14.57,17.61,2.16-.61,5-17.62-2.16-2.07,16.9,21.58,2.65-.61,5L643,300.35Z"/><path d="M686.07,258.44l14.56,1.79c9.47,1.16,15.85,5.4,14.67,15.08-1.14,9.29-8.49,12.92-18,11.76L688.69,286l-2.41,19.65-5.92-.73Zm11,23.73c7.23.89,11.57-1.55,12.31-7.58s-3-8.78-10.2-9.66l-7.79-1-2.12,17.24Zm-.71,3.14,5-2.49,11.2,26.07-6.71-.82Z"/><path d="M731.23,309.6l45-42.94,5.64,5.58-45,42.94ZM734.45,288c1.87-15.16,11.55-22.6,24.3-21s20.34,11.2,18.49,26.28-11.6,23-24.35,21.46S732.59,303.15,734.45,288Zm30.32,3.72c1-8.35-1.78-13.59-7.31-14.27s-9.51,3.72-10.54,12.08,1.73,14,7.26,14.7S763.74,300.07,764.77,291.71Z"/><path d="M781.74,270.64l12.89,1.59L797,292.94c.67,5,.94,9.89,1.6,15l.29,0c1.88-4.8,3.38-9.43,5.19-14.17l7.14-19.55,12.47,1.53-19.25,44.38-14.74-1.81Z"/><path class="cls-18" d="M471.58,602.32l-2.19,10.52,3.95,3.51-2.2,9.2,2.2,5.26-2.2,3.51-3.94,70.14,1.31,1.32s0,11.4-1.75,13.59-12.71,11-13.15,34.63l-1.32.88v107.4l1.32,2.2.44,15.34s.87,5.7,11,9.64h55.67s9.65-1.31,12.72-8.76V866.23l1.75-2.63V755.32L533.4,754A42.58,42.58,0,0,0,522,719.37l-3.07-13.59,1.31-1.75L516.3,635.2l-2.63-4,3.07-3.94-2.63-11,3.94-3.07-3.07-11Z"/><polyline class="cls-19" points="467.2 704.46 468.51 705.78 518.93 705.78 520.24 704.02 516.3 635.2 513.67 631.25 473.34 630.82 471.14 634.32"/><polyline class="cls-25" points="473.34 616.35 514.11 616.35 518.05 613.28 514.98 602.32 471.58 602.32 468.95 613.72"/><path class="cls-18" d="M554.52,601l-2.2,10.59,4,3.52-2.21,9.27,2.21,5.29-2.21,3.53-4,70.59,1.32,1.32s0,11.47-1.76,13.68-12.79,11-13.23,34.85l-1.33.88V862.6l1.33,2.21.44,15.44s.88,5.73,11,9.7h56s9.71-1.32,12.79-8.82V866.57l1.77-2.65V755l-1.77-1.32a42.84,42.84,0,0,0-11.46-34.85l-3.09-13.68,1.32-1.77-4-69.26-2.65-4,3.09-4-2.65-11,4-3.08-3.08-11Z"/><polyline class="cls-19" points="550.11 703.79 551.43 705.11 602.17 705.11 603.49 703.35 599.52 634.08 596.87 630.11 556.29 629.67 554.08 633.2"/><polyline class="cls-25" points="556.29 615.12 597.31 615.12 601.28 612.03 598.2 601 554.52 601 551.88 612.47"/><path class="cls-18" d="M635,601l-2.21,10.57,4,3.52-2.21,9.25,2.21,5.28-2.21,3.53-4,70.46,1.32,1.32s0,11.45-1.76,13.66-12.77,11-13.21,34.79l-1.32.88v107.9l1.32,2.2.44,15.41s.88,5.73,11,9.69H684.3s9.69-1.32,12.77-8.8V866.12l1.76-2.64V754.7l-1.76-1.32a42.72,42.72,0,0,0-11.45-34.79l-3.08-13.66,1.32-1.76-4-69.14-2.65-4,3.09-4-2.65-11,4-3.08-3.08-11Z"/><polyline class="cls-19" points="630.57 703.61 631.89 704.93 682.54 704.93 683.86 703.17 679.9 634.03 677.25 630.07 636.74 629.62 634.53 633.15"/><polyline class="cls-25" points="636.74 615.09 677.7 615.09 681.66 612.01 678.58 601 634.98 601 632.33 612.45"/><path class="cls-18" d="M718.32,601l-2.2,10.59,4,3.52-2.21,9.27,2.21,5.29-2.21,3.53-4,70.59,1.32,1.32s0,11.47-1.76,13.68-12.8,11-13.24,34.85l-1.33.88V862.6l1.33,2.21.44,15.44s.88,5.73,11,9.7h56s9.71-1.32,12.8-8.82V866.57l1.76-2.65V755l-1.76-1.32a42.81,42.81,0,0,0-11.48-34.85L766,705.11l1.33-1.77-4-69.26-2.65-4,3.09-4-2.65-11,4-3.08L762,601Z"/><polyline class="cls-19" points="713.91 703.79 715.23 705.11 765.99 705.11 767.31 703.35 763.34 634.08 760.69 630.11 720.09 629.67 717.88 633.2"/><polyline class="cls-25" points="720.09 615.12 761.13 615.12 765.1 612.03 762.01 601 718.32 601 715.67 612.47"/><path class="cls-8" d="M799.13,634.88H439.38v31.2L450.1,669V871.3l-10.72,3.9v24.38H799.13V874.72l-10.24-2.93-1-203.76,11.21-1.95ZM751.36,752.36l-263.48.24L487.64,668H751.36Z"/><rect x="439.86" y="661.2" width="358.78" height="3.9"/><rect x="439.86" y="890.8" width="358.78" height="3.9"/><rect x="449.86" y="668.27" width="9.26" height="202.79"/><rect x="779.39" y="667.78" width="9.26" height="204.25"/><ellipse class="cls-26" cx="615.55" cy="819.15" rx="152.3" ry="62.12"/><path class="cls-15" d="M525.61,835.7l7.65-9.21c3.59,2.89,8.11,4.92,11.86,4.92,4.06,0,5.78-1.33,5.78-3.6s-2.58-3.2-6.87-4.91l-6.33-2.66c-5.46-2.18-10.22-6.79-10.22-14.13,0-8.66,7.8-15.77,18.89-15.77a24.37,24.37,0,0,1,16.86,6.8l-6.71,8.43c-3.44-2.42-6.4-3.67-10.15-3.67-3.28,0-5.31,1.17-5.31,3.43,0,2.42,2.89,3.28,7.5,5.08l6.16,2.42c6.33,2.49,9.92,6.87,9.92,13.89,0,8.59-7.19,16.24-19.83,16.24A29.36,29.36,0,0,1,525.61,835.7Z"/><path class="cls-15" d="M571,827V813.45h-5.15v-10l5.94-.47,1.56-10.15h11.08V803h8.9v10.46h-8.9V826.8c0,4.29,2.19,5.7,4.69,5.7a11,11,0,0,0,3.43-.63l2,9.68A29.3,29.3,0,0,1,585.4,843C575.25,843,571,836.56,571,827Z"/><path class="cls-15" d="M597.42,830.94c0-8.12,6.24-12.65,21.23-14.21-.31-2.81-2-4.06-5.46-4.06-2.81,0-5.78,1.09-9.84,3.28l-4.68-8.74a32.86,32.86,0,0,1,17.17-5.16c10.15,0,16.24,5.47,16.24,18.27V842H621.15l-.94-3.74h-.31c-3.12,2.81-6.56,4.68-10.77,4.68C601.79,843,597.42,837.34,597.42,830.94Zm21.23-.94v-5.31c-6.4.94-8.43,3-8.43,5.15,0,1.8,1.25,2.81,3.59,2.81S617.25,831.56,618.65,830Z"/><path class="cls-15" d="M640.82,803h10.93l.93,6.71H653c2.88-5.3,7.26-7.65,11.08-7.65a11.73,11.73,0,0,1,4.84.78l-2.18,11.56a18.63,18.63,0,0,0-4.38-.63c-2.81,0-6.24,1.72-8.11,6.56V842H640.82Z"/><path class="cls-15" d="M675.16,827V813.45H670v-10l5.93-.47,1.57-10.15h11.08V803h8.9v10.46h-8.9V826.8c0,4.29,2.19,5.7,4.69,5.7a11,11,0,0,0,3.43-.63l2,9.68a29.3,29.3,0,0,1-9.21,1.41C679.38,843,675.16,836.56,675.16,827Z"/><polygon class="cls-27" points="43.03 26.18 48.92 23.75 53.59 10.96 65.96 10.96 70.02 23.75 76.31 26.18 88.28 20.91 96.6 29.02 91.73 41.8 93.96 47.49 106.34 52.36 106.34 64.13 94.78 68.79 91.73 75.69 96.6 87.26 88.69 95.58 76.31 90.71 70.22 93.34 65.96 105.72 53.38 105.72 49.12 93.34 43.03 90.91 30.25 96.19 21.93 87.46 27.21 75.89 24.37 69.2 11.99 64.53 11.99 52.97 24.57 47.49 27.41 42.01 21.93 29.83 30.86 21.31 43.03 26.18"/><circle class="cls-4" cx="59.47" cy="58.44" r="27.39"/><circle class="cls-28" cx="59.67" cy="58.65" r="17.45"/><ellipse class="cls-17" cx="59.67" cy="58.04" rx="10.15" ry="9.3"/></g></svg>
