<svg xmlns="http://www.w3.org/2000/svg" width="1600" height="900" viewBox="0 0 1600 900"><defs><style>.cls-1{fill:#8abcd3;}.cls-2{fill:#bdbdbd;}.cls-3{fill:#a4a4a4;}.cls-4{fill:#8a8a8a;}.cls-5{fill:#a8cd67;}.cls-6{fill:#80c34a;}.cls-7{fill:#936239;}.cls-8{fill:#1a6a00;}.cls-9{fill:#806239;}.cls-10{fill:#666;}.cls-11{fill:none;}.cls-12{fill:#e3e3e3;}</style></defs><title>titelscreenbaggrund</title><g id="Layer_1" data-name="Layer 1"><rect class="cls-1" width="1599.98" height="424.24"/><polygon class="cls-2" points="1412.31 379.72 1257.82 379.72 1257.82 152.15 1328.73 152.15 1328.73 252.13 1414 250.69 1412.31 379.72"/><rect class="cls-3" x="1538.39" y="165.58" width="61.61" height="189.94"/><polyline class="cls-4" points="1515.57 238.52 1553.57 238.52 1553.57 363.46 1465.78 363.46 1465.78 278.38"/><rect class="cls-3" x="869.72" y="91.63" width="86.95" height="291.58"/><polygon class="cls-4" points="1041.51 267.22 961.75 269.13 924.59 301.6 924.59 383.72 1041.51 383.72 1041.51 267.22"/><polygon class="cls-2" points="1147.88 383.72 993.39 383.72 993.39 156.15 1064.31 156.15 1064.31 256.13 1149.57 254.69 1147.88 383.72"/><rect class="cls-3" x="235.22" y="140.56" width="132.09" height="350.41"/><rect class="cls-4" x="358.26" y="326.43" width="100.42" height="164.54"/><polygon class="cls-4" points="246.53 488.94 0.45 488.94 0 160.87 105.28 160.36 185.01 252.17 246.53 324.65 246.53 488.94"/><path class="cls-5" d="M1600,539.45c0-35.45,0-77.66-.51-189.52,0,0-138.61-78.26-1127.48,75.54-7.89,12.12-12.21,32.21-6.82,50.31C511.34,630.54,1599.81,765.64,1600,539.45Z"/><path class="cls-6" d="M-10.45,373.1S79.3,271.49,543,442.9c0,0,418.81,123.69,608.28,116.62S1600,451.73,1600,451.73V902.34L-10.45,914.71Z"/><rect class="cls-7" x="1212.04" y="158.32" width="27.86" height="303.06"/><rect class="cls-7" x="1122.38" y="180.48" width="117.09" height="25.08" transform="translate(413.83 -725.35) rotate(40.85)"/><path class="cls-8" d="M1326.63,91.08c.07-.3.16-.6.22-.9,4.25-20.55-14.88-41.87-42.73-47.64-21.73-4.49-42.34,1.81-52.37,14.56a59.16,59.16,0,0,0-22-9.25c-14.33-3-27.89-.86-36.56,4.75a21,21,0,0,0-14.31-11c-9.09-1.88-18.09,2.61-22.82,10.52a30.79,30.79,0,0,0-18.4-11.29c-15.3-3.16-29.88,4.82-32.57,17.83a20.7,20.7,0,0,0-.15,7.56,38.1,38.1,0,0,0-4.2-1.13c-16.66-3.45-32.51,5-35.39,19a23.19,23.19,0,0,0,3.3,17,23.33,23.33,0,0,0-9.88,14.8c-2.55,12.33,4.82,24.27,16.46,26.68.45.09.9.16,1.34.23A25.33,25.33,0,0,0,1088,179.9a23.77,23.77,0,0,0,16.84,12.61c12.17,2.52,23.81-3.91,26.24-14.41,9.49,1.83,17,8.5,23.81,5.81,5.38,5.31,15.56,2.35,25.8,4.47,18.72,3.87,35.66-1.5,37.83-12a13.36,13.36,0,0,0-2.25-9.95c7.3,1.44,14.25,1,19.6-.78A31.67,31.67,0,0,0,1255.9,179c16.43,3.4,32.28-6.06,35.4-21.13a25.74,25.74,0,0,0-.86-13.6q4.85,1.49,10,2.57c31.5,6.52,59.8-1.52,63.2-18C1366.56,114.92,1350.68,99.46,1326.63,91.08Zm-92.6,48a44.14,44.14,0,0,0-11.7-4.16c-14.84-3.07-28.32,1.48-30.11,10.15a10.48,10.48,0,0,0,.77,6.37c-1.45-.41-2.93-.78-4.45-1.1-8.94-1.85-17.47-1.58-24.18.34-5.12-6.39-14.36-11.76-25.57-14.08-17.3-3.58-33.2,1.38-37.37,11.17a25.26,25.26,0,0,0-23-16.35,24,24,0,0,0,2.74-15.28c12.22-1.2,22.31-8.74,24.55-19.57.64-3.09-35.64,20-36.29,17.06-18.41,60.93,22.92,47.84,23.69,48,11.88,2.46,14.06,12.24,19.84,4.11,3,4.12,12.54-12.06,17.79-11,6.76,1.4-3.09-.34,1.85-4.79,5.92,8.22,27.71,21.25,41.56,24.12,12.93,2.67,46.8-17.72,55.45-22.15,4.07,5.34,15.75-12,22.4-8.29.35,4.79,7.71-14.16,10.86-15C1253.28,130,1238.16,130.94,1234,139.09Z"/><rect class="cls-9" x="76.99" y="252.98" width="48.75" height="413" transform="translate(202.72 918.95) rotate(-180)"/><polygon class="cls-9" points="117.03 365.36 272.03 261 243.33 235.15 88.34 339.51 117.03 365.36"/><path class="cls-8" d="M-10.44,257.94C-5,278.47,20.23,285.71,49,281.08c15.12-2.44,27.51-9.24,35.07-18.12,9.37,2.48,21.53,3,34.3,1.06-3.63,4.42-5.12,9.07-3.93,13.56,3.8,14.31,33.44,21.63,66.19,16.36,17.93-2.89,35.73,1.14,45.15-6.1,11.94,3.66,25-5.43,41.66-7.91,4.25,14.3,24.63,23.07,45.93,19.64,13.64-2.2,24.39-8.88,29.46-17.2a55.85,55.85,0,0,0,29.47,1.77c21.2-4.43,35.18-20.62,32.43-37.58a30.13,30.13,0,0,0-7-14.7c.79-.09,1.57-.18,2.36-.31,20.37-3.28,33.26-19.56,28.8-36.36-2.3-8.67-8.78-15.77-17.3-20.17,5.6-7,7.92-15.13,5.78-23.2-5-19-32.77-30.55-61.93-25.86q-3.78.62-7.34,1.55a22.23,22.23,0,0,0-.27-10.31c-4.71-17.73-30.22-28.61-57-24.29-13.66,2.2-25,7.94-32.2,15.38-8.28-10.79-24-16.9-39.92-14.34-11.11,1.79-20,7.46-25,15-15.18-7.65-38.9-10.52-64-6.48-14.9,2.4-28.11,6.9-38.5,12.61C73.69,97.66,37.62,89.07-.4,95.2c-3.42.55-10.13-.69-10,2m3.26,119.41,44-4c-4.53-2.73,18.4,27,19,20.44,11.65-5.12,32.07,18.57,39.21,11.3,15.13,6,74.39,33.83,97,30.18,24.23-3.9,62.37-21.66,72.72-32.86,8.65,6.06-8.6,8.43,3.24,6.53,9.19-1.48,25.89,20.57,31.13,14.95,10.11,11.08,13.92-2.24,34.72-5.59,1.35-.22,73.66,17.62,41.45-65.42-1.13,4.06-64.62-27.45-63.5-23.25,3.92,14.77,21.58,25,43,26.67a25.45,25.45,0,0,0,.39,11.58,28.51,28.51,0,0,0,4.4,9.24,57.36,57.36,0,0,0-7.79.7c-15.41,2.48-27.27,10.92-32.47,21.58-7.3-13.33-35.12-20.09-65.4-15.21-19.61,3.16-35.78,10.48-44.73,19.18-11.75-2.62-26.67-3-42.31-.45-2.67.42-5.26.93-7.79,1.49a11.5,11.5,0,0,0,1.35-8.68c-3.14-11.82-26.73-18-52.7-13.83a91.47,91.47,0,0,0-20.47,5.67C80,215.66,53.57,214.38,36.82,212.55Z"/></g><g id="Layer_2" data-name="Layer 2"><rect class="cls-3" x="1412" y="159.29" width="76.96" height="173.42"/><polygon class="cls-10" points="43.03 26.18 48.92 23.75 53.59 10.96 65.96 10.96 70.02 23.75 76.31 26.18 88.28 20.91 96.6 29.02 91.73 41.8 93.96 47.49 106.34 52.36 106.34 64.13 94.78 68.79 91.73 75.69 96.6 87.26 88.69 95.58 76.31 90.71 70.22 93.34 65.96 105.72 53.38 105.72 49.12 93.34 43.03 90.91 30.25 96.19 21.93 87.46 27.21 75.89 24.37 69.2 11.99 64.53 11.99 52.97 24.57 47.49 27.41 42.01 21.93 29.83 30.86 21.31 43.03 26.18"/><circle class="cls-4" cx="59.47" cy="58.44" r="27.39"/><circle class="cls-11" cx="59.67" cy="58.65" r="17.45"/><ellipse class="cls-12" cx="59.67" cy="58.04" rx="10.15" ry="9.3"/></g></svg>
