<svg xmlns="http://www.w3.org/2000/svg" width="1650" height="1220" viewBox="0 0 1650 1220"><defs><style>.cls-1{fill:#fff;}.cls-2{fill:#8a8a8a;}.cls-3{fill:#cc3500;}</style></defs><title>Vinderskilt</title><g id="Layer_2" data-name="Layer 2"><rect class="cls-1" x="569.27" y="418.79" width="37.06" height="781.95" transform="translate(103.06 -65.6) rotate(7)"/><rect class="cls-2" x="613.49" y="419.42" width="37.06" height="60.38" transform="translate(59.5 -73.67) rotate(7)"/><polygon class="cls-3" points="70.48 355.38 1159.39 489.08 1391 339.29 1200.58 153.61 111.67 19.91 70.48 355.38"/><polygon class="cls-1" points="113.67 323.15 1153.41 452.67 1339.9 336.26 1185.45 191.69 145.72 62.18 113.67 323.15"/><path d="M196.91,194.22c5-40.64,35.78-60.32,68.22-56.34,17.89,2.2,30,11.26,37.55,20.88l-19.3,18.45c-5.32-6-10.83-10.41-20.52-11.6-16.4-2-30.31,9.52-33,31.52-2.79,22.74,5.72,36.65,27.34,39.31,3.36.41,7.18.12,9.6-1.1l2.06-16.77-17.9-2.2,3.2-26.1L300.38,196l-7.09,57.78c-9.58,7.15-25.69,12-42.84,9.88C216.52,259.45,191.82,235.6,196.91,194.22Z"/><path d="M349.85,150.55l38.77,4.77,22,125.69-33.93-4.16-6.56-60.6c-1.57-11.93-2.74-27-4.23-39.5l-.75-.09c-4.12,12-8.89,26.15-13.29,37.34l-21,57.22-32.8-4Zm-19.11,69.37L390,227.2,387,252l-59.28-7.28Z"/><path d="M435.22,161l34.3,4.21,12.18,51.83c1.41,7,2.36,14.67,3.73,22l.75.1c3.1-6.81,5.88-14,8.94-20.48l23.61-47.43L553,175.5,538.15,296.67l-29.08-3.57,4.4-35.79c1.51-12.31,6.43-30.81,9.41-42.75l-.75-.09L508.5,242.32l-19.84,38.24-17.14-2.1-10-41.91-6.12-30.27-.74-.09c0,12.3.3,31.44-1.21,43.75l-4.4,35.79-28.7-3.53Z"/><path d="M579.87,178.8l78.29,9.61-3.3,26.84-46.23-5.67-2.33,19,39.52,4.85-3.3,26.84L603,255.43l-2.65,21.63,48.09,5.9-3.3,26.84L565,300Z"/><path d="M708.19,255.48c4.9-39.89,30.39-59.47,63.94-55.35s53.53,29.47,48.65,69.18c-4.89,39.89-30.52,60.58-64.07,56.46S703.3,295.37,708.19,255.48Zm79.79,9.8c2.7-22-4.69-35.77-19.23-37.56s-25,9.79-27.75,31.79,4.56,36.89,19.1,38.67S785.28,287.27,788,265.28Z"/><path d="M832.62,209.83,866.55,214l6.17,54.49c1.78,13.28,2.48,26,4.24,39.5l.74.09c5-12.63,8.92-24.83,13.66-37.3l18.81-51.43,32.81,4L892.31,340.15l-38.77-4.76Z"/><path d="M952.66,224.57l78.3,9.61-3.3,26.85-46.23-5.68-2.33,19,39.51,4.86-3.29,26.84-39.52-4.85-2.65,21.62,48.09,5.91-3.3,26.84-80.15-9.84Z"/><path d="M1056.3,237.3l45.86,5.63c26.1,3.2,47.37,14.9,43.66,45.09-3.59,29.27-27.45,38.64-53.55,35.43l-13.79-1.69-5,40.64-32.06-3.94Zm36.85,60.53c12.67,1.55,20.07-3.21,21.35-13.65s-5-14.62-17.69-16.18l-11.56-1.42-3.66,29.83Zm-5.63,16.53,24.24-18.6,30.7,75.11-35.79-4.4Z"/><polygon class="cls-3" points="70.48 355.38 1159.39 489.08 1391 339.29 1200.58 153.61 111.67 19.91 70.48 355.38"/><polygon class="cls-1" points="113.67 323.15 1153.41 452.67 1339.9 336.26 1185.45 191.69 145.72 62.18 113.67 323.15"/><path d="M209.68,133.34l35.79,4.4c36.91,4.53,60.15,24.79,54.89,67.67s-32.86,58-67.91,53.72l-37.65-4.62ZM231.88,233c17.53,2.15,32.19-3.24,35.67-31.57s-9.58-36-27.11-38.15l-1.86-.23L230,232.72Z"/><path d="M320.91,210.58,328.6,148l32.06,3.93-8.14,66.36c-2.66,21.63,2,30.14,14.65,31.7s19.6-5.54,22.25-27.17l8.15-66.36,30.95,3.8-7.7,62.64c-5.08,41.38-23.11,58.84-57,54.68S315.83,252,320.91,210.58Z"/><path d="M476.6,166.12l33.93,4.16,6.17,54.5c1.78,13.27,2.48,26,4.24,39.5l.74.09c5-12.64,8.92-24.83,13.66-37.3l18.81-51.43,32.8,4L536.29,296.44l-38.78-4.76Z"/><path d="M616.4,183.28,655.18,188l22,125.7-33.93-4.17L636.72,249c-1.56-11.93-2.74-27-4.23-39.5l-.75-.09c-4.12,12-8.89,26.15-13.29,37.34l-21,57.21-32.81-4Zm-19.11,69.37,59.28,7.28-3.05,24.79-59.27-7.28Z"/><path d="M701.77,193.77l32.81,4,20.21,57.36L763,283.78l.75.09c.11-13.23-.26-31.82,1.57-46.73l4.31-35,30.57,3.75L785.32,327l-32.81-4-20.18-57.54L724.09,237l-.74-.09c-.21,14,.25,31.82-1.58,46.73l-4.3,35-30.57-3.75Z"/><path d="M827,209.15l35.78,4.39c36.91,4.53,60.16,24.79,54.89,67.67s-32.85,58-67.9,53.72l-37.65-4.62Zm22.2,99.6c17.52,2.15,32.19-3.24,35.67-31.57s-9.59-36-27.11-38.15l-1.86-.22-8.56,69.71Z"/><path d="M960.93,252.83l-32.06-3.93,3.29-26.85,96.19,11.81-3.3,26.85L993,256.77l-11.58,94.32-32.06-3.93Z"/><path d="M1035,340.26c1.33-10.81,10.21-18.43,21-17.1s17.59,10.87,16.26,21.68-10.21,18.42-21,17.09S1033.63,351.07,1035,340.26Zm13.57-79.7,2.27-27.72,32.06,3.93-4.5,27.45-10.84,51.28-20.88-2.57Z"/><path d="M597.57,589c-13.81-1.65-25.47-8.52-31.58-16l5.56-46.52,37.22,4.46-2.52,21-14.4-1.72-1.62,13.5a14.68,14.68,0,0,0,7.29,2.7c17.41,2.09,26.73-7.15,28.92-25.45,2.12-17.71-6.53-29.4-19.73-31-7.81-.93-13,1.49-18.27,5.12L576.91,497a44.3,44.3,0,0,1,33.35-9.1c26.11,3.12,46.39,24.42,42.48,57.13C648.76,578.34,624.88,592.22,597.57,589Z"/><path d="M559.67,582.59l-26.41-3.15-5.43-48.75c-1.29-9.59-2.29-21.58-3.2-31.74l-.61-.07c-3.56,9.47-7.38,21-10.9,30L496.35,575,469,571.75l41.38-94,31.21,3.74Zm-18.83-23.25-47.72-5.71,2.39-20,47.72,5.71Z"/><path d="M461.24,570.82l-23.11-2.76,3.45-28.81c1.18-9.91,5.1-24.81,7.46-34.42l-.6-.07-10.6,22.47L422,558.06l-13.81-1.65L400,522.71l-5.31-24.38-.6-.07c0,9.9.32,25.3-.86,35.21l-3.45,28.81-23.4-2.8,11.66-97.54,27.61,3.3L415,506.85c1.16,5.61,1.94,11.79,3.06,17.71l.6.08c2.48-5.49,4.7-11.31,7.15-16.5L445.3,470l27.61,3.31Z"/><path d="M344.81,556.89l-64.53-7.71,2.59-21.61,38.71,4.63,2.08-17.41L291.85,511l2.59-21.61,31.81,3.8,1.83-15.3-37.21-4.45,2.58-21.61,63,7.54Z"/><polygon class="cls-3" points="1073.44 768.78 197.08 662.44 45.17 500.61 229.84 392.45 1106.2 498.79 1073.44 768.78"/><polygon class="cls-1" points="1045.94 735.24 208.8 635.15 85.67 508.14 234.29 425.12 1071.43 525.21 1045.94 735.24"/><path d="M294.64,571.58l16.82-16c6.24,6.38,14.48,11.32,21.68,12.18,7.8.93,11.41-1.22,11.93-5.58.56-4.65-4.22-6.74-12.08-11l-11.54-6.55c-10-5.46-18.09-15.41-16.41-29.51,2-16.66,18.63-28.52,39.94-26a47.23,47.23,0,0,1,30.85,16.93L361,520.76c-6.05-5.44-11.46-8.52-18.67-9.38-6.3-.76-10.47,1-11,5.38-.56,4.65,4.8,7,13.24,11.47l11.3,6.07c11.58,6.26,17.47,15.49,15.86,29-2,16.51-17.54,29.56-41.85,26.66A56.92,56.92,0,0,1,294.64,571.58Z"/><path d="M395.48,497l35.71,4.27c21.31,2.55,38.68,12.54,35.74,37.15-2.86,23.86-22.7,32-43.11,29.54l-10.5-1.25-3.7,30.91-25.81-3.09Zm29.58,50.41c10.21,1.22,15.62-3.31,16.66-12s-4.27-12.68-14.17-13.87l-8.7-1-3.09,25.81Z"/><path d="M486.7,508,512.51,511l-11.66,97.53L475,605.48Z"/><path d="M534.12,513.62l25.81,3.09-9.08,75.92,36.91,4.42-2.58,21.61-62.73-7.51Z"/><path d="M643.65,526.72l25.81,3.09L657.8,627.34,632,624.26Z"/><path d="M680.94,581.41c3.92-32.71,28.65-48.63,54.76-45.51A44.34,44.34,0,0,1,766,552.61l-15.47,14.9c-4.3-4.78-8.75-8.36-16.55-9.29-13.2-1.58-24.36,7.74-26.48,25.45-2.19,18.3,4.69,29.48,22.1,31.56a14.72,14.72,0,0,0,7.72-.91l1.61-13.5-14.4-1.72,2.51-21,37.21,4.45-5.56,46.52c-7.69,5.77-20.65,9.7-34.45,8.05C696.89,633.85,677,614.72,680.94,581.41Z"/><path d="M788,544l63,7.54-2.59,21.6-37.21-4.45L809.39,584l31.81,3.8-2.59,21.61-31.81-3.81L804.72,623l38.72,4.63-2.59,21.61-64.52-7.72Z"/><path d="M871.42,554l26.41,3.16,16.4,46.09,6.68,23,.61.08c.05-10.65-.29-25.61,1.15-37.61L926,560.5l24.61,2.94L939,661l-26.41-3.16-16.38-46.25-6.7-22.87-.6-.07c-.13,11.24.28,25.6-1.15,37.6l-3.38,28.21-24.61-2.94Z"/></g></svg>
