<svg xmlns="http://www.w3.org/2000/svg" width="590" height="460" viewBox="0 0 590 460"><defs><style>.cls-1{fill:#fff;}.cls-2{fill:#8a8a8a;}.cls-3{fill:#cc3500;}</style></defs><title>Ølellerøvskilt</title><g id="Layer_2" data-name="Layer 2"><rect class="cls-1" x="193.62" y="157.34" width="14.08" height="297.16" transform="translate(38.78 -22.17) rotate(7)"/><rect class="cls-2" x="210.43" y="157.58" width="14.08" height="22.95" transform="translate(22.22 -25.24) rotate(7)"/><polygon class="cls-3" points="4.08 133.24 417.88 184.05 505.9 127.12 433.53 56.56 19.73 5.76 4.08 133.24"/><polygon class="cls-1" points="20.49 120.99 415.61 170.21 486.48 125.97 427.78 71.03 32.67 21.82 20.49 120.99"/><path d="M40,94.22l45-42.94,5.64,5.58-45,42.94Zm3.22-21.6C45,57.46,54.72,50,67.47,51.58S87.81,62.78,86,77.87s-11.6,23-24.35,21.46S41.31,87.78,43.17,72.62Zm30.32,3.72c1-8.36-1.78-13.59-7.31-14.27s-9.51,3.72-10.54,12.08,1.73,14,7.26,14.69S72.46,84.7,73.49,76.34Z"/><path d="M97,56.07l12.19,1.5-4.4,35.84,17.42,2.14-1.25,10.2-29.61-3.64Z"/><path d="M150,62.13l26.8,3.29-.62,5-20.88-2.56L153.5,82.43l17.62,2.16-.62,5-17.61-2.17-2.08,16.9L172.4,107l-.61,5-27.51-3.37Z"/><path d="M187.32,66.71l5.92.73-5.1,41.48,20.29,2.49-.61,5-26.21-3.22Z"/><path d="M221.75,70.94l5.91.72-5.09,41.49,20.29,2.49-.61,5L216,117.43Z"/><path d="M256.17,75.16,283,78.45l-.62,5L261.47,80.9l-1.78,14.56,17.61,2.17-.62,5-17.61-2.16L257,117.37,278.58,120l-.61,5-27.51-3.38Z"/><path d="M293.5,79.75l14.56,1.78c9.47,1.17,15.85,5.4,14.66,15.09-1.14,9.28-8.48,12.92-18,11.75l-8.65-1.06L293.71,127l-5.92-.72Zm11,23.72c7.23.89,11.57-1.55,12.31-7.58s-3-8.77-10.2-9.66l-7.79-1-2.12,17.24Zm-.71,3.14,5-2.49L320,130.19l-6.71-.82Z"/><path d="M338.65,130.9l45-42.94,5.64,5.58-45,42.94Zm3.23-21.61c1.86-15.15,11.55-22.59,24.3-21s20.34,11.2,18.49,26.29-11.6,23-24.35,21.45S340,124.45,341.88,109.29ZM372.2,113c1-8.36-1.78-13.6-7.31-14.27s-9.52,3.72-10.54,12.08,1.73,14,7.25,14.69S371.17,121.37,372.2,113Z"/><path d="M389.17,92l12.89,1.58,2.35,20.71c.67,5,.94,9.89,1.6,15l.29,0c1.88-4.8,3.38-9.43,5.19-14.17l7.14-19.54L431.1,97.1l-19.25,44.37-14.74-1.81Z"/></g></svg>
