<svg xmlns="http://www.w3.org/2000/svg" width="300" height="250" viewBox="0 0 300 250"><defs><style>.cls-1{fill:#1f3900;}.cls-2{fill:#f1f0d8;}.cls-3{fill:#333;}.cls-4{fill:#8a8a8a;}.cls-4,.cls-5,.cls-6,.cls-7,.cls-8,.cls-9{stroke:#000;stroke-miterlimit:10;}.cls-5{fill:#a4a4a4;}.cls-6{fill:#ffede8;}.cls-11,.cls-7{fill:none;}.cls-8{fill:#fff;}.cls-10{fill:#1a6a00;}</style></defs><title>Ølkasse</title><g id="Layer_2" data-name="Layer 2"><path class="cls-1" d="M30.76,5.52,29,14l3.18,2.84L30.4,24.28l1.77,4.25L30.4,31.36,27.22,88l1.06,1.06s0,9.2-1.42,11-10.26,8.85-10.62,28l-1.06.71v86.73l1.06,1.77.36,12.39s.71,4.6,8.85,7.78h45s7.79-1.06,10.27-7.08V218.62l1.42-2.12V129.06L80.67,128a34.39,34.39,0,0,0-9.2-28L69,89.06l1.06-1.42L66.86,32.07l-2.12-3.19,2.48-3.19-2.13-8.84,3.19-2.48L65.8,5.52Z"/><polygon class="cls-2" points="16.24 128 80.67 128 82.09 129.06 82.09 216.5 80.67 218.62 16.24 218.62 16.24 217.21 15.18 215.44 15.18 128.71 16.24 128"/><polyline class="cls-2" points="27.22 88 28.28 89.06 68.99 89.06 70.05 87.64 66.86 32.07 64.74 28.88 32.17 28.53 30.4 31.36"/><polyline class="cls-3" points="32.17 16.84 65.09 16.84 68.28 14.37 65.8 5.52 30.76 5.52 28.63 14.72"/><path d="M24.53,179.83c0,.69.07,1.11.21,1.23a.69.69,0,0,0,.41.2c.18,0,.56,0,1.16,0h1.56A2.8,2.8,0,0,0,29.5,181a1.61,1.61,0,0,0,.41-1.3c0-.17,0-.38,0-.61,0-.46,0-.73,0-.82,0-.51.21-.77.62-.77s.75.24.75.71a2.63,2.63,0,0,1,0,.33l-.13.91a7,7,0,0,0-.05.81c0,.17,0,.41.05.74s0,.57,0,.73c0,.53-.3.8-.9.8-.12,0-.39,0-.82-.07l-1.31-.06H23.92c-.28,0-.75,0-1.41.07l-.49,0-.54,0c-.49,0-.74-.22-.74-.64s.18-.57.55-.57a2.28,2.28,0,0,1,.42.06,3.14,3.14,0,0,0,.43.05c.6,0,.9-.44.9-1.33V173c0-.87-.3-1.31-.9-1.31a1.69,1.69,0,0,0-.38,0,2.15,2.15,0,0,1-.47.05.5.5,0,0,1-.39-.16.6.6,0,0,1-.16-.42c0-.41.25-.62.76-.62l.26,0,.94.1a11.29,11.29,0,0,0,1.15.09,8.86,8.86,0,0,0,1.14-.09l.81-.1.23,0c.53,0,.8.21.8.62a.65.65,0,0,1-.16.42.53.53,0,0,1-.39.16,2.43,2.43,0,0,1-.48-.05,1.59,1.59,0,0,0-.37,0c-.6,0-.9.44-.9,1.31Z"/><path d="M34.3,173c0-.87-.31-1.31-.91-1.31a1.59,1.59,0,0,0-.37,0,2.3,2.3,0,0,1-.48.05.53.53,0,0,1-.39-.16.65.65,0,0,1-.16-.42c0-.41.26-.62.78-.62l.25,0,.94.12a7.82,7.82,0,0,0,1.1.07,9,9,0,0,0,1.2-.09l.8-.1.24,0c.52,0,.78.21.78.62a.6.6,0,0,1-.16.42.5.5,0,0,1-.39.16,2.41,2.41,0,0,1-.47-.05,1.69,1.69,0,0,0-.38,0c-.6,0-.9.44-.9,1.31v7.1c0,.89.3,1.33.9,1.33a2,2,0,0,0,.38,0l.47-.05c.37,0,.55.19.55.57s-.26.63-.78.63h-.24l-.92-.14a6.17,6.17,0,0,0-1-.08,8.88,8.88,0,0,0-1.33.09l-.81.13h-.26c-.51,0-.77-.21-.77-.63a.5.5,0,0,1,.55-.57l.48,0a1.64,1.64,0,0,0,.37.05c.6,0,.91-.44.91-1.33Z"/><path d="M44.37,170.23a4.61,4.61,0,0,1,3.22,1.33,1.91,1.91,0,0,1-.07-.28c0-.24,0-.37,0-.39a.52.52,0,0,1,.59-.59c.42,0,.63.26.63.76a1.79,1.79,0,0,1,0,.37l-.13.85a5.1,5.1,0,0,0-.06.8c0,.23,0,.7.07,1.43v.16c0,.53-.22.8-.65.8s-.62-.29-.62-.87v-.53a2.43,2.43,0,0,0-.81-1.93,3.48,3.48,0,0,0-4.84.62,6.06,6.06,0,0,0-1,3.65,6.42,6.42,0,0,0,1,3.84,3.22,3.22,0,0,0,2.77,1.38,2.72,2.72,0,0,0,2.1-.8,3.19,3.19,0,0,0,.75-2.27,1.3,1.3,0,0,0-.21-.85.88.88,0,0,0-.71-.24l-.41,0-.41,0c-.56,0-.85-.2-.85-.61s.24-.62.73-.62c.15,0,.32,0,.51,0a12.67,12.67,0,0,0,1.79.16,11,11,0,0,0,1.84-.16,3.32,3.32,0,0,1,.48,0c.47,0,.71.2.71.59a.57.57,0,0,1-.19.42.6.6,0,0,1-.43.18h-.59c-.52,0-.78.57-.78,1.72v1.41c0,.3,0,.58,0,.83s0,.44,0,.58q0,.72-.63.72a.55.55,0,0,1-.62-.62l0-.43c0-.1,0-.29,0-.55a5.64,5.64,0,0,1-.64.76,4.08,4.08,0,0,1-2.85.93,4.54,4.54,0,0,1-3.68-1.7,6.81,6.81,0,0,1-1.4-4.45A7.23,7.23,0,0,1,40.52,172,4.72,4.72,0,0,1,44.37,170.23Z"/><path d="M55.07,175.61h5.67V173c0-.88-.3-1.33-.91-1.33a2.44,2.44,0,0,0-.37,0l-.47,0a.5.5,0,0,1-.57-.57c0-.42.25-.63.76-.63a6.88,6.88,0,0,1,.9.11,6.78,6.78,0,0,0,1.21.12,10.57,10.57,0,0,0,1.77-.15,6.33,6.33,0,0,1,.67-.08q.78,0,.78.63c0,.38-.18.57-.55.57l-.43,0a2.71,2.71,0,0,0-.42,0c-.6,0-.9.45-.9,1.33v7.06c0,.89.29,1.33.88,1.33a2.23,2.23,0,0,0,.44-.05l.43,0c.37,0,.55.19.55.57s-.26.63-.78.63a4.33,4.33,0,0,1-.69-.1,7,7,0,0,0-1.35-.13,10.75,10.75,0,0,0-1.64.11l-.85.12c-.52,0-.78-.2-.78-.62a.51.51,0,0,1,.57-.58,2.82,2.82,0,0,1,.42,0l.42,0c.5,0,.8-.32.89-1,0-.08,0-.61,0-1.59v-2H55.07v2c0,1,0,1.51,0,1.6.1.65.39,1,.89,1a2.15,2.15,0,0,0,.43-.05l.43,0c.37,0,.55.19.55.57s-.26.63-.78.63a7.25,7.25,0,0,1-.76-.1,8.5,8.5,0,0,0-1.48-.14,9.2,9.2,0,0,0-1.6.14l-.42.07-.23,0c-.54,0-.82-.2-.82-.62a.56.56,0,0,1,.17-.4.53.53,0,0,1,.4-.18l.48,0a1.22,1.22,0,0,0,.37.05c.6,0,.9-.44.9-1.33V173q0-1.32-.9-1.32a1.84,1.84,0,0,0-.39,0,2.07,2.07,0,0,1-.46.05.56.56,0,0,1-.4-.17.6.6,0,0,1-.17-.41c0-.41.28-.62.82-.62a4.78,4.78,0,0,1,.65.09,9.62,9.62,0,0,0,1.65.12,8.37,8.37,0,0,0,1.11-.1,8.6,8.6,0,0,1,1.08-.11q.78,0,.78.63a.56.56,0,0,1-.16.41.5.5,0,0,1-.39.16,2.88,2.88,0,0,1-.47,0l-.39-.05c-.58,0-.88.45-.89,1.33Z"/><path d="M71.16,180.09c0,.88.3,1.33.91,1.33a3.21,3.21,0,0,0,.42,0,2.82,2.82,0,0,1,.42,0,.54.54,0,0,1,.4.17.54.54,0,0,1,.17.39c0,.42-.26.62-.8.62h-.22l-.87-.13a9.33,9.33,0,0,0-1.12-.07,10,10,0,0,0-1.18.07l-.89.13h-.25c-.52,0-.78-.2-.78-.62a.5.5,0,0,1,.57-.56,2.82,2.82,0,0,1,.43,0,3,3,0,0,0,.42,0c.59,0,.89-.45.89-1.33V172.9c0-.83-.43-1.25-1.3-1.25h-.55a1.11,1.11,0,0,0-1.27,1.24c0,.29,0,.49,0,.6l.07.65c0,.11,0,.26,0,.45q0,1.11-.69,1.11t-.66-.81c0-.16,0-.42,0-.8,0-.57,0-.93,0-1.08s0-.6,0-.92c0-.63-.06-.89-.06-.8,0-.49.22-.74.67-.74l1.15,0,1.45.07h2l1.9,0c.22,0,.6,0,1.14,0s.86,0,1.13,0c.59,0,.89.24.89.73v0c0,.12,0,.34,0,.66s-.06.66-.09,1v.2a8.14,8.14,0,0,0,0,.83c.05.49.07.8.07.92q0,.72-.69.72c-.45,0-.67-.29-.67-.88,0-.22,0-.53,0-1s0-.73,0-.95c0-.81-.46-1.22-1.39-1.22h-.5a1.34,1.34,0,0,0-.94.27,1.37,1.37,0,0,0-.32.91l-.07,1.24Z"/><path class="cls-1" d="M97.73,4.45,96,13l3.21,2.85-1.79,7.48,1.79,4.27-1.79,2.85-3.2,57,1.07,1.07s0,9.26-1.43,11-10.33,8.91-10.68,28.14l-1.07.72v87.27l1.07,1.78.35,12.47s.71,4.63,8.91,7.84h45.24s7.83-1.07,10.33-7.13V218.9l1.42-2.14v-88L148,127.7a34.59,34.59,0,0,0-9.26-28.14l-2.5-11,1.07-1.43-3.2-55.92L131.93,28l2.49-3.2-2.14-8.91,3.21-2.49L133,4.45Z"/><polygon class="cls-2" points="83.13 127.7 147.96 127.7 149.38 128.77 149.38 216.76 147.96 218.9 83.13 218.9 83.13 217.47 82.06 215.69 82.06 128.42 83.13 127.7"/><polyline class="cls-2" points="94.17 87.45 95.24 88.52 136.2 88.52 137.27 87.09 134.06 31.17 131.93 27.96 99.16 27.61 97.37 30.45"/><polyline class="cls-3" points="99.16 15.85 132.28 15.85 135.49 13.36 133 4.45 97.73 4.45 95.59 13.71"/><path class="cls-4" d="M118.07,196.53s-3.07,1.18-4.49-.24c0,0-.47-1.89-1.18-6.14a28.89,28.89,0,0,0-7.07-8.26,19.3,19.3,0,0,1,1.18-3.53c.47-.71.7-4.25.7-4.72s-5.19-2.36-4.95-3.31-.71-8,7.08-11.8a28.58,28.58,0,0,1,5.9.24,6.71,6.71,0,0,0,2.36,0c1.18-.24,3.77-.94,6.13.94s5.9,7.79,5.19,10.62c0,0-3.8,2.58-4.26,3.06s2.38,8.5,1.67,9.21-3.78,2.13-4.49,3.07a19.55,19.55,0,0,0-2.36,4s-1.41,5.67-1.18,6.61Z"/><path class="cls-5" d="M109.34,158.53a14.22,14.22,0,0,0-1.65-3.3,2.29,2.29,0,0,0-1.89-.47,9.41,9.41,0,0,1-1.42,1.18c-.47.23-2.83,1.65-3.07,1.65s-14.15,5.43-14.39,5.9a5.39,5.39,0,0,0-.94,2.36c0,.94.94,15.1,9.67,19.35,0,0,5.43,1.41,9,.71l1.65-3.54s-.71,0-.24-1.42a40.78,40.78,0,0,0,1.18-6.84c0-1,0-.71-1.18-1.42l-1.18-.71s-.23.24-1.18-1.65S105.09,161.36,109.34,158.53Z"/><path class="cls-5" d="M123.73,159.71l-1.65-.94s.94-3.07,2.6-4a3.06,3.06,0,0,1,2.36,1.41l2.83,1.42s5.19,1.89,6.13,2.12,7.79,2.6,8.26,3.78c0,0,1.42.23,1.18,2.59,0,0,.24,6.85-2.12,10.86,0,0-1.65,4.48-3.78,5.9,0,0-2.36,3.54-12.74,3.3l-1.42-3.54s.71,0,.48-1.65-1.66-5.9-1.66-7.08,3.78-3.3,3.78-3.3.47-.95-.24-4S126.09,162.54,123.73,159.71Z"/><path class="cls-6" d="M106.27,182.37s3.1,2.06,3.32,3-4,8.52.93,14c0,0,.23,0,0,.47s-3.78.24-5.19-2.83S103,189,106.27,182.37Z"/><path class="cls-6" d="M121.84,185.67l3.54-3.07s3.54,7.79,2.13,11.57-2.83,6.37-6.37,5.42c0,0,3.06-3.77,2.36-6.6A15.33,15.33,0,0,0,121.84,185.67Z"/><path class="cls-7" d="M104.4,171.25s2.81,1.91,2.81,2.39"/><path class="cls-5" d="M121.14,172.69a8.86,8.86,0,0,0-10.86.47s-2.36,2.84.24,14.4c0,0,.7,2.36,2.83,8.49,0,0,1.65,2.13,5,.48l2.67-9.41.87-5.46S122.55,173.4,121.14,172.69Z"/><ellipse class="cls-8" cx="123.97" cy="171.28" rx="1.18" ry="1.42"/><ellipse class="cls-8" cx="107.21" cy="171.28" rx="1.18" ry="1.42"/><ellipse class="cls-9" cx="124.09" cy="171.51" rx="0.35" ry="0.71"/><ellipse class="cls-9" cx="107.1" cy="171.51" rx="0.35" ry="0.71"/><path class="cls-1" d="M162.7,4.45,160.92,13l3.2,2.84-1.78,7.47,1.78,4.27-1.78,2.84-3.2,56.9,1.07,1.07s0,9.24-1.43,11-10.31,8.89-10.67,28.1l-1.06.71v87.12l1.06,1.78.36,12.45s.71,4.62,8.89,7.82h45.16s7.83-1.06,10.32-7.11V218.54l1.42-2.14V128.56l-1.42-1.06a34.55,34.55,0,0,0-9.25-28.1l-2.49-11L202.17,87,199,31.12l-2.14-3.2,2.49-3.2-2.13-8.89,3.2-2.49L197.9,4.45Z"/><polygon class="cls-2" points="148.12 127.5 212.84 127.5 214.26 128.56 214.26 216.4 212.84 218.53 148.12 218.53 148.12 217.11 147.05 215.34 147.05 128.21 148.12 127.5"/><polyline class="cls-2" points="159.14 87.31 160.21 88.38 201.1 88.38 202.17 86.95 198.97 31.12 196.84 27.92 164.12 27.57 162.34 30.41"/><polyline class="cls-3" points="164.12 15.83 197.19 15.83 200.39 13.34 197.9 4.45 162.69 4.45 160.56 13.7"/><path d="M156.44,179.57c0,.69.07,1.11.21,1.23a.69.69,0,0,0,.42.2c.17,0,.56,0,1.16,0h1.57a2.8,2.8,0,0,0,1.63-.32,1.64,1.64,0,0,0,.41-1.31c0-.17,0-.38,0-.61,0-.46,0-.73,0-.82,0-.52.2-.78.62-.78s.75.24.75.71a2.68,2.68,0,0,1,0,.34l-.13.91a7.08,7.08,0,0,0,0,.82c0,.16,0,.41,0,.74a6,6,0,0,1,.05.73c0,.54-.3.8-.91.8l-.81-.06-1.32-.06h-4.18c-.28,0-.76,0-1.42.07l-.49,0-.54,0c-.5,0-.75-.21-.75-.64s.18-.57.55-.57a2.26,2.26,0,0,1,.43.06,3.14,3.14,0,0,0,.43,0c.6,0,.9-.44.9-1.33v-7.13q0-1.32-.9-1.32a1.21,1.21,0,0,0-.38,0,3.26,3.26,0,0,1-.48,0,.54.54,0,0,1-.39-.17.57.57,0,0,1-.16-.42c0-.41.25-.62.76-.62l.27,0,.94.11a10.59,10.59,0,0,0,1.16.08,8.63,8.63,0,0,0,1.14-.08l.82-.11.23,0c.53,0,.8.21.8.62a.61.61,0,0,1-.16.42.54.54,0,0,1-.39.17,3.55,3.55,0,0,1-.48,0,1.25,1.25,0,0,0-.38,0c-.6,0-.9.44-.9,1.31Z"/><path d="M166.25,172.68c0-.88-.3-1.32-.91-1.32a1.18,1.18,0,0,0-.37,0,3.26,3.26,0,0,1-.48,0,.52.52,0,0,1-.39-.17.57.57,0,0,1-.16-.42c0-.41.26-.62.78-.62l.25,0,.94.12a7.92,7.92,0,0,0,1.1.07,8.76,8.76,0,0,0,1.21-.08l.8-.11.25,0c.52,0,.78.21.78.62a.6.6,0,0,1-.15.42.54.54,0,0,1-.4.17,3.89,3.89,0,0,1-.48,0,1.14,1.14,0,0,0-.37,0c-.6,0-.91.44-.91,1.32v7.13c0,.89.31,1.33.91,1.33l.37,0a3.32,3.32,0,0,1,.48-.06c.37,0,.55.19.55.57s-.26.64-.78.64h-.12l-.13,0-.92-.14a6.19,6.19,0,0,0-1-.07,8.78,8.78,0,0,0-1.33.09l-.82.12-.12,0h-.15c-.51,0-.76-.21-.76-.64s.18-.57.55-.57l.48,0a1.64,1.64,0,0,0,.37,0c.61,0,.91-.44.91-1.33Z"/><path d="M176.37,169.92a4.68,4.68,0,0,1,3.23,1.33c0-.16-.07-.26-.07-.28q0-.36,0-.39a.52.52,0,0,1,.58-.59c.43,0,.64.26.64.77a1.84,1.84,0,0,1,0,.37l-.13.85a5.1,5.1,0,0,0-.06.8c0,.23,0,.71.07,1.44v.16c0,.54-.22.8-.66.8s-.62-.29-.62-.87v-.53a2.46,2.46,0,0,0-.81-1.94,3.17,3.17,0,0,0-2.17-.71,3.14,3.14,0,0,0-2.69,1.33,6.1,6.1,0,0,0-1,3.67,6.45,6.45,0,0,0,1,3.85,3.22,3.22,0,0,0,2.78,1.39,2.74,2.74,0,0,0,2.11-.8,3.24,3.24,0,0,0,.75-2.29,1.41,1.41,0,0,0-.2-.85.92.92,0,0,0-.72-.24l-.41,0-.41,0c-.57,0-.85-.2-.85-.61s.24-.62.72-.62a3.28,3.28,0,0,1,.52,0,12.79,12.79,0,0,0,1.8.16,12.16,12.16,0,0,0,1.84-.16,2.49,2.49,0,0,1,.49,0c.47,0,.71.2.71.59a.59.59,0,0,1-.19.43.66.66,0,0,1-.44.17h-.58c-.53,0-.79.58-.79,1.73v1.42c0,.3,0,.58,0,.83s0,.44,0,.58c0,.48-.22.72-.64.72a.55.55,0,0,1-.63-.62l0-.42c0-.11,0-.29,0-.56a5.18,5.18,0,0,1-.64.77,4.1,4.1,0,0,1-2.86.92,4.58,4.58,0,0,1-3.7-1.7,6.85,6.85,0,0,1-1.4-4.47,7.22,7.22,0,0,1,1.44-4.71A4.72,4.72,0,0,1,176.37,169.92Z"/><path d="M187.12,175.33h5.69v-2.62c0-.89-.3-1.33-.9-1.33l-.39,0a2.88,2.88,0,0,1-.47,0,.51.51,0,0,1-.57-.58c0-.42.26-.63.77-.63a6.22,6.22,0,0,1,.91.12,7.65,7.65,0,0,0,1.21.11,11.73,11.73,0,0,0,1.77-.14,5.2,5.2,0,0,1,.68-.09q.78,0,.78.63c0,.39-.18.58-.55.58a2.93,2.93,0,0,1-.43,0l-.42,0c-.61,0-.91.44-.91,1.33v7.1c0,.89.3,1.33.89,1.33a2.93,2.93,0,0,0,.43,0,3.63,3.63,0,0,1,.44,0c.37,0,.55.19.55.57s-.26.64-.78.64a3.67,3.67,0,0,1-.69-.11,7.25,7.25,0,0,0-1.36-.12,10.89,10.89,0,0,0-1.65.11l-.85.12c-.52,0-.79-.21-.79-.63a.51.51,0,0,1,.57-.58,2.82,2.82,0,0,1,.43,0l.43,0c.5,0,.79-.32.89-1,0-.08,0-.61,0-1.59v-2h-5.69v2c0,1,0,1.52,0,1.6.1.65.39,1,.89,1a3,3,0,0,0,.44,0,3.32,3.32,0,0,1,.43,0c.37,0,.55.19.55.57s-.26.64-.78.64a5.71,5.71,0,0,1-.76-.11,9.84,9.84,0,0,0-1.5-.14,10.29,10.29,0,0,0-1.6.14l-.42.08-.24,0q-.81,0-.81-.63a.6.6,0,0,1,.57-.58,4.3,4.3,0,0,1,.48,0,1.61,1.61,0,0,0,.37,0c.6,0,.91-.44.91-1.33v-7.13c0-.89-.31-1.34-.91-1.34a2.05,2.05,0,0,0-.39.06,2.91,2.91,0,0,1-.46,0,.52.52,0,0,1-.4-.18.54.54,0,0,1-.17-.41c0-.41.27-.62.81-.62a4.66,4.66,0,0,1,.66.09,9.66,9.66,0,0,0,1.66.12,8.65,8.65,0,0,0,1.11-.1,8.71,8.71,0,0,1,1.09-.11q.78,0,.78.63a.54.54,0,0,1-.16.41.51.51,0,0,1-.39.17,3.08,3.08,0,0,1-.48,0l-.39,0c-.58,0-.88.45-.89,1.33Z"/><path d="M203.29,179.83c0,.88.3,1.33.9,1.33a3.14,3.14,0,0,0,.43,0,2.82,2.82,0,0,1,.43,0,.58.58,0,0,1,.4.17.54.54,0,0,1,.17.4c0,.41-.27.62-.8.62h-.11l-.13,0-.87-.12a7.55,7.55,0,0,0-1.12-.07,8.47,8.47,0,0,0-1.19.07l-.89.12-.12,0h-.13c-.52,0-.78-.21-.78-.62a.5.5,0,0,1,.57-.57,2.82,2.82,0,0,1,.43,0,3.21,3.21,0,0,0,.42,0c.6,0,.89-.45.89-1.33v-7.22a1.13,1.13,0,0,0-1.29-1.27h-.56a1.12,1.12,0,0,0-1.28,1.25c0,.3,0,.5,0,.6l.07.66c0,.11,0,.26,0,.45,0,.74-.23,1.12-.69,1.12s-.66-.28-.66-.82c0-.16,0-.42,0-.8,0-.57,0-.93,0-1.09s0-.6,0-.92a7.78,7.78,0,0,0-.06-.8c0-.5.22-.75.67-.75l1.16,0,1.45.08h2l1.9,0c.22,0,.61,0,1.15,0s.86,0,1.14,0c.59,0,.88.24.88.73v0c0,.11,0,.33,0,.65s-.06.67-.1,1v.2c0,.18,0,.46.05.84s.08.8.08.92c0,.49-.24.73-.7.73s-.67-.3-.67-.89c0-.22,0-.54.05-1s.05-.74.05-.95c0-.83-.47-1.24-1.4-1.24h-.5a1.34,1.34,0,0,0-.94.28,1.32,1.32,0,0,0-.32.91l-.07,1.25Z"/><path class="cls-1" d="M230,4.45,228.22,13l3.2,2.85-1.78,7.48,1.78,4.27-1.78,2.85-3.21,57,1.07,1.07s0,9.26-1.42,11-10.34,8.91-10.69,28.14l-1.07.72v87.27l1.07,1.78.35,12.47s.72,4.63,8.91,7.84h45.26s7.84-1.07,10.33-7.13V218.9l1.43-2.14v-88l-1.43-1.07A34.54,34.54,0,0,0,271,99.56l-2.5-11,1.07-1.43-3.2-55.92L264.21,28l2.49-3.2-2.14-8.91,3.21-2.49-2.49-8.91Z"/><polygon class="cls-2" points="215.39 127.7 280.24 127.7 281.67 128.77 281.67 216.76 280.24 218.9 215.39 218.9 215.39 217.47 214.32 215.69 214.32 128.42 215.39 127.7"/><polyline class="cls-2" points="226.43 87.45 227.5 88.52 268.48 88.52 269.55 87.09 266.35 31.17 264.21 27.96 231.42 27.61 229.64 30.45"/><polyline class="cls-3" points="231.42 15.85 264.56 15.85 267.77 13.36 265.28 4.45 230 4.45 227.86 13.71"/><path class="cls-4" d="M250.34,196.53s-3.07,1.18-4.48-.24c0,0-.48-1.89-1.18-6.14a29,29,0,0,0-7.09-8.26,20.12,20.12,0,0,1,1.18-3.53c.48-.71.71-4.25.71-4.72s-5.19-2.36-4.95-3.31-.71-8,7.08-11.8a28.58,28.58,0,0,1,5.9.24,6.71,6.71,0,0,0,2.36,0c1.18-.24,3.78-.94,6.14.94s5.9,7.79,5.19,10.62c0,0-3.8,2.58-4.26,3.06s2.37,8.5,1.66,9.21-3.77,2.13-4.48,3.07a19.1,19.1,0,0,0-2.36,4s-1.42,5.67-1.18,6.61Z"/><path class="cls-5" d="M241.61,158.53a14.22,14.22,0,0,0-1.65-3.3,2.29,2.29,0,0,0-1.89-.47,9.41,9.41,0,0,1-1.42,1.18c-.47.23-2.83,1.65-3.07,1.65s-14.16,5.43-14.4,5.9a5.51,5.51,0,0,0-.94,2.36c0,.94.94,15.1,9.68,19.35,0,0,5.43,1.41,9,.71l1.65-3.54s-.71,0-.24-1.42a41.83,41.83,0,0,0,1.18-6.84c0-1,0-.71-1.18-1.42l-1.18-.71s-.23.24-1.18-1.65S237.36,161.36,241.61,158.53Z"/><path class="cls-5" d="M256,159.71l-1.65-.94s.94-3.07,2.59-4a3,3,0,0,1,2.36,1.41l2.84,1.42s5.19,1.89,6.13,2.12,7.79,2.6,8.27,3.78c0,0,1.41.23,1.18,2.59,0,0,.23,6.85-2.13,10.86,0,0-1.65,4.48-3.78,5.9,0,0-2.36,3.54-12.74,3.3l-1.42-3.54s.71,0,.47-1.65-1.65-5.9-1.65-7.08,3.78-3.3,3.78-3.3.47-.95-.24-4S258.37,162.54,256,159.71Z"/><path class="cls-6" d="M238.54,182.37s3.1,2.06,3.32,3-4,8.52.93,14c0,0,.23,0,0,.47s-3.78.24-5.2-2.83S235.23,189,238.54,182.37Z"/><path class="cls-6" d="M254.12,185.67l3.54-3.07s3.54,7.79,2.13,11.57-2.84,6.37-6.38,5.42c0,0,3.07-3.77,2.36-6.6A15.25,15.25,0,0,0,254.12,185.67Z"/><path class="cls-7" d="M236.67,171.25s2.81,1.91,2.81,2.39"/><path class="cls-5" d="M253.41,172.69a8.86,8.86,0,0,0-10.86.47s-2.36,2.84.24,14.4c0,0,.71,2.36,2.83,8.49,0,0,1.65,2.13,5,.48l2.67-9.41.87-5.46S254.83,173.4,253.41,172.69Z"/><ellipse class="cls-8" cx="256.24" cy="171.28" rx="1.18" ry="1.42"/><ellipse class="cls-8" cx="239.48" cy="171.28" rx="1.18" ry="1.42"/><ellipse class="cls-9" cx="256.36" cy="171.51" rx="0.35" ry="0.71"/><ellipse class="cls-9" cx="239.37" cy="171.51" rx="0.35" ry="0.71"/><path class="cls-10" d="M295.25,31.81H4.75V57l8.66,2.36V222.72l-8.66,3.15v19.68h290.5V225.47L287,223.11,286.2,58.57,295.25,57Zm-38.58,94.86-212.75.2-.2-68.3h213Z"/><rect x="5.14" y="53.06" width="289.71" height="3.15"/><rect x="5.14" y="238.46" width="289.71" height="3.15"/><rect x="13.21" y="58.77" width="7.48" height="163.75"/><rect x="279.31" y="58.38" width="7.48" height="164.93"/><line class="cls-1" x1="248.47" y1="6.05" x2="241.9" y2="10.48"/><line class="cls-2" x1="241.9" y1="10.48" x2="248.47" y2="6.05"/><path class="cls-11" d="M85.33,228.94s23.18,15.92,23.18,19.85"/></g></svg>
