<svg xmlns="http://www.w3.org/2000/svg" width="840" height="880" viewBox="0 0 840 880"><defs><style>.cls-1{fill:#80b73f;}.cls-2{fill:#1a6a00;}.cls-3{fill:#1f3900;}.cls-4{fill:#f1f0d8;}.cls-5{fill:gray;}.cls-6{fill:#4d4d4d;}.cls-7{fill:#8a8a8a;}.cls-8{fill:#1a4b00;}</style></defs><title>Ølkasseperspektiv</title><g id="Layer_2" data-name="Layer 2"><polygon class="cls-1" points="709.21 421.3 723.51 437.86 740.5 366 703.87 382.95 709.21 421.3"/><path class="cls-2" d="M87.65,291.82l69.1-36.73c-25.13-27.79-49.18-54.43-69.1-76.56Z"/><path class="cls-1" d="M796.5,259c-15.5-11.07-380-243-380-243-1.5-.89-5.84-5.75-21-5l-353,96s-15.23,1.77-6,14c2.34,3.11-3.71-4.9,25,27l5.68,6.58L381.4,54.36l-7.75,85.46L156.75,255.09c81.19,89.79,173.56,191.5,173.56,191.5s10.43,14.54,34.12,13.76c30.34-1,431.43-181.6,431.43-181.6S812,270.07,796.5,259Z"/><polygon points="411.42 2.94 407.55 0.21 408.05 388.45 413.05 385.45 411.42 2.94"/><polygon points="407.78 0.33 403.39 1.57 404.39 382.57 408.39 388.57 407.78 0.33"/><path class="cls-3" d="M326.78,185.29c-3.67-1.35-12.48,11.76-16.9,20.86-4.5,9.29-10.95,27.84-5.19,57.15L313,399.72s-3.64,56.85,64.71,53.49c62.13-3.06,53.71-55.13,53.71-55.13l8.87-154.76a92.47,92.47,0,0,0-4.95-36c-6.37-18.09-13.84-23.9-17.31-23.31-3.7.63-3.33,7-10,14.74C396.47,212,378.08,213,373.81,213.26c-14.4.83-28.66-4-35.76-10.85-6.28-6-8.55-11.22-8.55-11.22C327.93,187.61,328,185.75,326.78,185.29Z"/><path class="cls-4" d="M326.78,185.29s11.11,33.19,47,28,44.5-28.73,44.5-28.73l-15-111.65s-1.12,19.47-31.43,20.41-34.42-20.74-34.42-20.74Z"/><path class="cls-4" d="M304.4,261.75s32.13,34,69.59,28.5,51.18-17.75,65.57-34.92l-8.18,142.75s-10.7,19.68-54.36,26.37-65.32-22.89-65.32-22.89Z"/><path class="cls-5" d="M347.92,77l3.1-.58,3.68,2.5.55,2.91,5.94-2.53L363,80.53l1.36,2.25L368,81.2l6.2-1.18,2.13,2.8,2.51-3.68,4.65-.88,1.84,1.25,2.51-3.69,8,.08L395,71.26l5.75-1.35,1.11-4.77,3.09-.59-1.17-6.19,2.8-2.14-2.73-5.9-3-7.45s-11.27-17.11-32.95-13S342.7,41.07,342.7,41.07s-5.61,4.28-6.64,15.7l-1,3.4,1.84,1.25-.67,4.94,4.65-.88L340.55,72l3.09-.59,3.4,1Z"/><path class="cls-6" d="M400.8,42.87s6.63,18-25.89,24.17-35.68-18.89-35.68-18.89-.8-12.68,26.3-17.83C391.08,25.46,400.8,42.87,400.8,42.87Z"/><path class="cls-3" d="M337.45,72.55s4.12,21.69,34.42,20.74S403.3,72.88,403.3,72.88l-1.47-7.74-1,3.39L395,71.26l.88,4.64-8-.08-2.51,3.69-1.84-1.25-4.65.88-2.51,3.68L374.17,80,368,81.2l-3.09.59-3.69-2.51L355,80.45l-.3-1.55L351,76.4l-3.1.58L347,72.34l-3.4-1-3.09.59.37-6.49-3,.57Z"/><path class="cls-3" d="M391,239.39c-3.67-1.35-12.48,11.76-16.9,20.86-4.5,9.29-10.95,27.84-5.19,57.15l8.27,136.41s-3.64,56.85,64.71,53.5c62.13-3.06,53.71-55.13,53.71-55.13l8.87-154.76a92.45,92.45,0,0,0-5-36c-6.37-18.09-13.84-23.9-17.31-23.31-3.7.63-3.33,7-10,14.74-11.48,13.2-29.87,14.27-34.14,14.51-14.4.83-28.66-4-35.76-10.85-6.28-6-8.55-11.22-8.55-11.22C392.16,241.7,392.25,239.85,391,239.39Z"/><path class="cls-4" d="M391,239.39s11.11,33.19,47,28,44.5-28.73,44.5-28.73L467.53,127s-1.12,19.47-31.43,20.41-34.42-20.74-34.42-20.74Z"/><path class="cls-4" d="M368.63,315.85s32.13,34,69.59,28.49,51.18-17.74,65.57-34.92l-8.18,142.76s-10.7,19.68-54.36,26.37-65.32-22.89-65.32-22.89Z"/><path class="cls-5" d="M412.15,131.08l3.1-.59,3.68,2.51.55,2.91,5.94-2.53,1.84,1.25,1.36,2.25,3.58-1.58,6.2-1.18,2.13,2.8,2.51-3.68,4.65-.89,1.84,1.26,2.51-3.69,8,.08-.88-4.65L465,124l1.11-4.77,3.09-.59-1.17-6.2,2.8-2.13-2.73-5.9L465,97s-11.27-17.11-32.95-13-25.15,11.2-25.15,11.2-5.61,4.27-6.64,15.7l-1,3.39,1.84,1.26-.67,4.94,4.65-.88-.37,6.49,3.09-.59,3.4,1Z"/><path class="cls-6" d="M465,97s6.63,18-25.89,24.17-35.68-18.89-35.68-18.89-.8-12.69,26.3-17.83C455.31,79.56,465,97,465,97Z"/><path class="cls-3" d="M401.68,126.65s4.12,21.68,34.42,20.74S467.53,127,467.53,127l-1.47-7.74-1,3.39-5.9,2.72.88,4.65-8-.08-2.51,3.69-1.84-1.26-4.65.89-2.51,3.68-2.13-2.8-6.2,1.18-3.09.58-3.69-2.5-6.19,1.17-.3-1.55-3.68-2.51-3.1.59-.88-4.64-3.4-1-3.09.59.37-6.49-3,.57Z"/><path class="cls-3" d="M460,296.33c-3.66-1.35-12.48,11.75-16.89,20.86-4.51,9.28-11,27.84-5.19,57.14l8.26,136.42s-3.64,56.85,64.72,53.49c62.12-3,53.71-55.13,53.71-55.13l8.87-154.76a92.61,92.61,0,0,0-5-36c-6.37-18.09-13.84-23.91-17.31-23.32-3.7.64-3.34,7-10,14.75C529.66,323,511.28,324.05,507,324.3c-14.39.83-28.66-4.05-35.75-10.86-6.28-6-8.55-11.21-8.55-11.21C461.13,298.64,461.22,296.79,460,296.33Z"/><path class="cls-4" d="M460,296.33s11.12,33.18,47,28,44.5-28.74,44.5-28.74l-15-111.64s-1.11,19.46-31.42,20.4-34.42-20.73-34.42-20.73Z"/><path class="cls-4" d="M437.59,372.78s32.14,34,69.6,28.5,51.18-17.75,65.57-34.92l-8.18,142.75s-10.71,19.68-54.36,26.37-65.32-22.89-65.32-22.89Z"/><path class="cls-5" d="M481.12,188l3.09-.59,3.69,2.51.55,2.9,5.94-2.53,1.84,1.25,1.36,2.25,3.58-1.58,6.19-1.18,2.14,2.81,2.51-3.69,4.65-.88,1.84,1.25,2.51-3.68,8,.07-.89-4.64,5.75-1.35,1.11-4.77,3.1-.59-1.18-6.19,2.81-2.14-2.73-5.9-3-7.45s-11.27-17.11-32.95-13S475.9,152.1,475.9,152.1s-5.61,4.28-6.65,15.71l-1,3.39,1.85,1.25-.67,4.94,4.65-.88-.38,6.49,3.1-.59,3.39,1Z"/><path class="cls-6" d="M534,153.9s6.63,18-25.89,24.18-35.68-18.9-35.68-18.9-.81-12.68,26.29-17.83C524.28,136.5,534,153.9,534,153.9Z"/><path class="cls-3" d="M470.65,183.59s4.12,21.68,34.42,20.73,31.42-20.4,31.42-20.4L535,176.17l-1,3.39-5.9,2.73.89,4.64-8-.07-2.51,3.68-1.84-1.25-4.65.88-2.51,3.69-2.14-2.81-6.19,1.18-3.1.59-3.68-2.51-6.2,1.18-.29-1.55-3.69-2.51-3.09.59-.89-4.65-3.39-1-3.1.59.38-6.49-3,.57Z"/><path class="cls-3" d="M533.94,359.33c-3.66-1.35-12.48,11.75-16.9,20.86-4.5,9.28-10.95,27.84-5.19,57.14l8.27,136.42s-3.64,56.85,64.72,53.49c62.12-3,53.7-55.13,53.7-55.13l8.87-154.76a92.41,92.41,0,0,0-4.94-36c-6.37-18.09-13.84-23.91-17.32-23.32-3.69.64-3.33,7-10,14.75C603.63,386,585.24,387.05,581,387.3c-14.4.83-28.66-4.05-35.76-10.86-6.27-6-8.54-11.21-8.54-11.21C535.09,361.64,535.18,359.79,533.94,359.33Z"/><path class="cls-4" d="M533.94,359.33s11.12,33.18,47,28,44.5-28.74,44.5-28.74l-15-111.64s-1.11,19.46-31.42,20.4-34.43-20.73-34.43-20.73Z"/><path class="cls-4" d="M511.56,435.78s32.13,34,69.59,28.5,51.19-17.75,65.57-34.92l-8.18,142.75s-10.7,19.68-54.35,26.37-65.32-22.89-65.32-22.89Z"/><path class="cls-5" d="M555.08,251l3.1-.59,3.69,2.51.55,2.9,5.93-2.53,1.85,1.25,1.35,2.25,3.59-1.58,6.19-1.18,2.14,2.81,2.51-3.69,4.64-.88,1.85,1.25,2.5-3.68,8,.07-.88-4.64,5.75-1.35,1.11-4.77,3.1-.59-1.18-6.19,2.8-2.14-2.72-5.9-3-7.45s-11.27-17.11-33-13-25.15,11.19-25.15,11.19-5.6,4.28-6.64,15.71l-1,3.39,1.84,1.25-.66,4.94,4.64-.88-.37,6.49,3.1-.59,3.39,1Z"/><path class="cls-6" d="M608,216.9s6.63,18-25.89,24.18-35.68-18.9-35.68-18.9-.81-12.68,26.29-17.83C598.24,199.5,608,216.9,608,216.9Z"/><path class="cls-3" d="M544.61,246.59s4.12,21.68,34.43,20.73,31.42-20.4,31.42-20.4L609,239.17l-1,3.39-5.9,2.73.88,4.64-8-.07-2.5,3.68-1.85-1.25-4.64.88-2.51,3.69-2.14-2.81-6.19,1.18-3.1.59-3.69-2.51-6.19,1.18-.29-1.55-3.69-2.51-3.1.59-.88-4.65-3.39-1-3.1.59.37-6.49-3,.57Z"/><path class="cls-3" d="M617.68,422.06c-3.66-1.35-12.48,11.76-16.9,20.86-4.5,9.29-10.95,27.84-5.19,57.15l8.27,136.42s-26.32,20.44,42,17.08c62.13-3.05,76.39-18.72,76.39-18.72l8.87-154.76a92.47,92.47,0,0,0-4.95-36c-6.37-18.09-13.84-23.9-17.31-23.31-3.7.63-3.33,7-10,14.74C687.37,448.73,669,449.79,664.71,450c-14.4.83-28.66-4-35.76-10.85-6.27-6-8.55-11.22-8.55-11.22C618.83,424.38,618.92,422.52,617.68,422.06Z"/><path class="cls-4" d="M617.68,422.06s11.12,33.19,47,28,44.5-28.73,44.5-28.73l-15-111.65s-1.12,19.47-31.42,20.41-34.43-20.74-34.43-20.74Z"/><path class="cls-4" d="M595.3,498.52s32.13,34,69.59,28.5,51.18-17.75,65.57-34.92l-8.18,142.75s-10.7,19.68-54.36,26.37-65.32-22.89-65.32-22.89Z"/><path class="cls-7" d="M638.82,313.75l3.1-.58,3.68,2.5.55,2.91,5.94-2.53,1.84,1.25,1.36,2.25,3.58-1.58,6.2-1.18,2.14,2.8,2.5-3.68,4.65-.88,1.84,1.25,2.51-3.69,8,.08-.88-4.64,5.75-1.35,1.11-4.77,3.09-.59-1.17-6.19,2.8-2.14-2.72-5.9-3-7.45s-11.28-17.11-33-13-25.15,11.19-25.15,11.19-5.6,4.28-6.64,15.7l-1,3.4,1.84,1.25-.67,4.94,4.65-.88-.37,6.49,3.1-.59,3.39,1Z"/><path class="cls-6" d="M691.71,279.64s6.62,18-25.9,24.17-35.68-18.89-35.68-18.89-.8-12.68,26.3-17.83C682,262.23,691.71,279.64,691.71,279.64Z"/><path class="cls-3" d="M628.35,309.32s4.12,21.69,34.43,20.74,31.42-20.41,31.42-20.41l-1.47-7.74-1,3.39-5.9,2.73.88,4.64-8-.08-2.51,3.69L674.36,315l-4.65.88-2.5,3.68-2.14-2.8-6.2,1.18-3.09.59-3.69-2.51-6.19,1.17-.3-1.55-3.68-2.5-3.1.58-.88-4.64-3.39-1-3.1.59.37-6.49-3,.57Z"/><path class="cls-3" d="M246.93,216.34c-3.66-1.35-12.48,11.75-16.9,20.86-4.5,9.28-10.95,27.84-5.19,57.14l8.27,136.42s-3.64,56.85,64.71,53.49c62.13-3.05,53.71-55.13,53.71-55.13l8.87-154.76a92.42,92.42,0,0,0-4.95-36c-6.37-18.09-13.84-23.91-17.31-23.32-3.7.64-3.33,7-10,14.75C316.62,243,298.23,244.06,294,244.31c-14.4.83-28.66-4.05-35.76-10.86-6.27-6-8.55-11.21-8.55-11.21C248.08,218.65,248.17,216.8,246.93,216.34Z"/><path class="cls-4" d="M246.93,216.34s11.12,33.18,47,28,44.5-28.74,44.5-28.74l-15-111.65s-1.12,19.47-31.42,20.41S257.6,103.6,257.6,103.6Z"/><path class="cls-4" d="M224.55,292.79s32.13,34,69.59,28.5,51.18-17.75,65.57-34.92l-8.18,142.75s-10.7,19.68-54.36,26.37-65.32-22.89-65.32-22.89Z"/><path class="cls-5" d="M268.07,108l3.1-.59,3.68,2.51.55,2.9,5.94-2.53,1.84,1.25,1.36,2.25,3.58-1.58,6.2-1.18,2.14,2.81,2.5-3.69,4.65-.88,1.84,1.25,2.51-3.68,8,.07-.88-4.64,5.75-1.35L322,96.18l3.09-.59L323.9,89.4l2.8-2.14L324,81.36l-3-7.45s-11.28-17.11-33-13-25.15,11.19-25.15,11.19-5.6,4.28-6.64,15.71l-1,3.39,1.84,1.25-.67,4.94,4.65-.88L260.7,103l3.1-.59,3.39,1Z"/><path class="cls-6" d="M321,73.91s6.62,18-25.9,24.18-35.68-18.9-35.68-18.9-.8-12.68,26.3-17.83C311.23,56.51,321,73.91,321,73.91Z"/><path class="cls-3" d="M257.6,103.6s4.12,21.68,34.43,20.73,31.42-20.41,31.42-20.41L322,96.18l-1,3.39-5.9,2.73.88,4.64-8-.07-2.51,3.68-1.84-1.25-4.65.88-2.5,3.69-2.14-2.81-6.2,1.18-3.09.59-3.69-2.51-6.19,1.18-.3-1.55-3.68-2.51-3.1.59-.88-4.65-3.39-1-3.1.59.37-6.49-3,.57Z"/><path class="cls-3" d="M303.93,267.34c-3.66-1.35-12.48,11.75-16.9,20.86-4.5,9.28-10.95,27.84-5.19,57.14l8.27,136.42s-3.64,56.85,64.71,53.49c62.13-3,53.71-55.13,53.71-55.13l8.87-154.76a92.42,92.42,0,0,0-4.95-36c-6.37-18.09-13.84-23.91-17.31-23.32-3.7.64-3.33,7.05-10,14.75C373.62,294,355.23,295.06,351,295.31c-14.4.83-28.66-4.05-35.76-10.86-6.27-6-8.55-11.21-8.55-11.21C305.08,269.65,305.17,267.8,303.93,267.34Z"/><path class="cls-4" d="M303.93,267.34s11.12,33.18,47,28,44.5-28.74,44.5-28.74l-15-111.65s-1.12,19.47-31.42,20.41S314.6,154.6,314.6,154.6Z"/><path class="cls-4" d="M281.55,343.79s32.13,34,69.59,28.5,51.18-17.75,65.57-34.92l-8.18,142.75s-10.7,19.68-54.36,26.37-65.32-22.89-65.32-22.89Z"/><path class="cls-5" d="M325.07,159l3.1-.59,3.68,2.51.55,2.9,5.94-2.53,1.84,1.25,1.36,2.25,3.58-1.58,6.2-1.18,2.14,2.81,2.5-3.69,4.65-.88,1.84,1.25,2.51-3.68,8,.07-.88-4.64,5.75-1.35,1.11-4.77,3.09-.59-1.17-6.19,2.8-2.14-2.72-5.9-3-7.45s-11.28-17.11-33-13-25.15,11.19-25.15,11.19-5.6,4.28-6.64,15.71l-1,3.39,1.84,1.25-.67,4.94,4.65-.88L317.7,154l3.1-.59,3.39,1Z"/><path class="cls-6" d="M378,124.91s6.62,18-25.9,24.18-35.68-18.9-35.68-18.9-.8-12.68,26.3-17.83C368.23,107.51,378,124.91,378,124.91Z"/><path class="cls-3" d="M314.6,154.6s4.12,21.68,34.43,20.73,31.42-20.41,31.42-20.41L379,147.18l-1,3.39-5.9,2.73.88,4.64-8-.07-2.51,3.68-1.84-1.25-4.65.88-2.5,3.69-2.14-2.81-6.2,1.18-3.09.59-3.69-2.51-6.19,1.18-.3-1.55-3.68-2.51-3.1.59-.88-4.65-3.39-1-3.1.59.37-6.49-3,.57Z"/><path class="cls-3" d="M373.93,326.34c-3.66-1.35-12.48,11.75-16.9,20.86-4.5,9.28-10.95,27.84-5.19,57.14l8.27,136.42s-3.64,56.85,64.71,53.49c62.13-3,53.71-55.13,53.71-55.13l8.87-154.76a92.42,92.42,0,0,0-4.95-36c-6.37-18.09-13.84-23.91-17.31-23.32-3.7.64-3.33,7.05-10,14.75C443.62,353,425.23,354.06,421,354.31c-14.4.83-28.66-4.05-35.76-10.86-6.27-6-8.55-11.21-8.55-11.21C375.08,328.65,375.17,326.8,373.93,326.34Z"/><path class="cls-4" d="M373.93,326.34s11.12,33.18,47,28,44.5-28.74,44.5-28.74l-15-111.65s-1.12,19.47-31.42,20.41S384.6,213.6,384.6,213.6Z"/><path class="cls-4" d="M351.55,402.79s32.13,34,69.59,28.5,51.18-17.75,65.57-34.92l-8.18,142.75s-10.7,19.68-54.36,26.37-65.32-22.89-65.32-22.89Z"/><path class="cls-5" d="M395.07,218l3.1-.59,3.68,2.51.55,2.9,5.94-2.53,1.84,1.25,1.36,2.25,3.58-1.58,6.2-1.18,2.14,2.81,2.5-3.69,4.65-.88,1.84,1.25,2.51-3.68,8,.07-.88-4.64,5.75-1.35,1.11-4.77,3.09-.59-1.17-6.19,2.8-2.14-2.72-5.9-3-7.45s-11.28-17.11-33-13-25.15,11.19-25.15,11.19-5.6,4.28-6.64,15.71l-1,3.39,1.84,1.25-.67,4.94,4.65-.88L387.7,213l3.1-.59,3.39,1Z"/><path class="cls-6" d="M448,183.91s6.62,18-25.9,24.18-35.68-18.9-35.68-18.9-.8-12.68,26.3-17.83C438.23,166.51,448,183.91,448,183.91Z"/><path class="cls-3" d="M384.6,213.6s4.12,21.68,34.43,20.73,31.42-20.41,31.42-20.41L449,206.18l-1,3.39-5.9,2.73.88,4.64-8-.07-2.51,3.68-1.84-1.25-4.65.88-2.5,3.69-2.14-2.81-6.2,1.18-3.09.59-3.69-2.51-6.19,1.18-.3-1.55-3.68-2.51-3.1.59-.88-4.65-3.39-1-3.1.59.37-6.49-3,.57Z"/><path class="cls-3" d="M448.93,389.34c-3.66-1.35-12.48,11.75-16.9,20.86-4.5,9.28-10.95,27.84-5.19,57.14l8.27,136.42s-3.64,56.85,64.71,53.49c62.13-3,53.71-55.13,53.71-55.13l8.87-154.76a92.42,92.42,0,0,0-4.95-36c-6.37-18.09-13.84-23.91-17.31-23.32-3.7.64-3.33,7.05-10,14.75C518.62,416,500.23,417.06,496,417.31c-14.4.83-28.66-4.05-35.76-10.86-6.27-6-8.55-11.21-8.55-11.21C450.08,391.65,450.17,389.8,448.93,389.34Z"/><path class="cls-4" d="M448.93,389.34s11.12,33.18,47,28,44.5-28.74,44.5-28.74l-15-111.65s-1.12,19.47-31.42,20.41S459.6,276.6,459.6,276.6Z"/><path class="cls-4" d="M426.55,465.79s32.13,34,69.59,28.5,51.18-17.75,65.57-34.92l-8.18,142.75s-10.7,19.68-54.36,26.37-65.32-22.89-65.32-22.89Z"/><path class="cls-5" d="M470.07,281l3.1-.59,3.68,2.51.55,2.9,5.94-2.53,1.84,1.25,1.36,2.25,3.58-1.58,6.2-1.18,2.14,2.81,2.5-3.69,4.65-.88,1.84,1.25,2.51-3.68,8,.07-.88-4.64,5.75-1.35,1.11-4.77,3.09-.59-1.17-6.19,2.8-2.14-2.72-5.9-3-7.45s-11.28-17.11-33-13-25.15,11.19-25.15,11.19-5.6,4.28-6.64,15.71l-1,3.39,1.84,1.25-.67,4.94,4.65-.88L462.7,276l3.1-.59,3.39,1Z"/><path class="cls-6" d="M523,246.91s6.62,18-25.9,24.18-35.68-18.9-35.68-18.9-.8-12.68,26.3-17.83C513.23,229.51,523,246.91,523,246.91Z"/><path class="cls-3" d="M459.6,276.6s4.12,21.68,34.43,20.73,31.42-20.41,31.42-20.41L524,269.18l-1,3.39-5.9,2.73.88,4.64-8-.07-2.51,3.68-1.84-1.25-4.65.88-2.5,3.69-2.14-2.81-6.2,1.18-3.09.59-3.69-2.51-6.19,1.18-.3-1.55-3.68-2.51-3.1.59-.88-4.65-3.39-1-3.1.59.37-6.49-3,.57Z"/><path class="cls-3" d="M540.93,460.34c-3.66-1.35-12.48,11.75-16.9,20.86-4.5,9.28-10.95,27.84-5.19,57.14l8.27,136.42S507.57,698.19,576,700s71.45-25.35,69.55-26.83l8.87-154.76a92.42,92.42,0,0,0-4.95-36c-6.37-18.09-13.84-23.91-17.31-23.32-3.7.64-3.33,7.05-10,14.75C610.62,487,592.23,488.06,588,488.31c-14.4.83-28.66-4.05-35.76-10.86-6.27-6-8.55-11.21-8.55-11.21C542.08,462.65,542.17,460.8,540.93,460.34Z"/><path class="cls-4" d="M540.93,460.34s11.12,33.18,47,28,44.5-28.74,44.5-28.74l-15-111.65s-1.12,19.47-31.42,20.41S551.6,347.6,551.6,347.6Z"/><path class="cls-4" d="M518.55,536.79s32.13,34,69.59,28.5,51.18-17.75,65.57-34.92l-8.18,142.75s-10.7,19.68-54.36,26.37-65.32-22.89-65.32-22.89Z"/><path class="cls-7" d="M562.07,352l3.1-.59,3.68,2.51.55,2.9,5.94-2.53,1.84,1.25,1.36,2.25,3.58-1.58,6.2-1.18,2.14,2.81,2.5-3.69,4.65-.88,1.84,1.25,2.51-3.68,8,.07-.88-4.64,5.75-1.35,1.11-4.77,3.09-.59-1.17-6.19,2.8-2.14-2.72-5.9-3-7.45s-11.28-17.11-33-13-25.15,11.19-25.15,11.19-5.6,4.28-6.64,15.71l-1,3.39,1.84,1.25-.67,4.94,4.65-.88L554.7,347l3.1-.59,3.39,1Z"/><path class="cls-6" d="M615,317.91s6.62,18-25.9,24.18-35.68-18.9-35.68-18.9-.8-12.68,26.3-17.83C605.23,300.51,615,317.91,615,317.91Z"/><path class="cls-3" d="M551.6,347.6s4.12,21.68,34.43,20.73,31.42-20.41,31.42-20.41L616,340.18l-1,3.39-5.9,2.73.88,4.64-8-.07-2.51,3.68-1.84-1.25-4.65.88-2.5,3.69-2.14-2.81-6.2,1.18-3.09.59-3.69-2.51-6.19,1.18-.3-1.55-3.68-2.51-3.1.59-.88-4.65-3.39-1-3.1.59.37-6.49-3,.57Z"/><path class="cls-3" d="M156.61,251.39c-3.66-1.35-12.48,11.76-16.9,20.86-4.5,9.29-11,27.84-5.19,57.15l8.27,136.42s-3.64,56.84,64.71,53.49c62.13-3.06,53.71-55.13,53.71-55.13l8.87-154.76a92.47,92.47,0,0,0-4.95-36c-6.36-18.09-13.83-23.9-17.31-23.31-3.69.63-3.33,7-10,14.74-11.49,13.21-29.88,14.27-34.15,14.51-14.4.83-28.66-4-35.76-10.85-6.27-6-8.55-11.22-8.55-11.22C157.76,253.71,157.85,251.85,156.61,251.39Z"/><path class="cls-4" d="M156.61,251.39s11.12,33.19,47,28,44.5-28.73,44.5-28.73L233.13,139s-1.12,19.47-31.42,20.41-34.43-20.74-34.43-20.74Z"/><path class="cls-4" d="M134.23,327.85s32.13,34,69.59,28.5S255,338.6,269.39,321.43l-8.18,142.75s-10.7,19.68-54.36,26.37-65.32-22.89-65.32-22.89Z"/><path class="cls-5" d="M177.75,143.08l3.1-.58,3.68,2.5.56,2.91,5.93-2.53,1.85,1.25,1.35,2.25,3.59-1.58,6.19-1.18,2.14,2.8,2.51-3.68,4.64-.88,1.84,1.25,2.51-3.69,8,.08-.88-4.64,5.75-1.35,1.11-4.77,3.1-.59-1.18-6.19,2.8-2.14-2.72-5.9-3-7.45s-11.28-17.11-33-13-25.15,11.19-25.15,11.19-5.6,4.28-6.64,15.7l-1,3.4,1.84,1.25-.66,4.94,4.64-.88-.37,6.49,3.1-.59,3.39,1Z"/><path class="cls-6" d="M230.64,109s6.62,18-25.9,24.17-35.68-18.89-35.68-18.89-.8-12.68,26.3-17.83C220.91,91.56,230.64,109,230.64,109Z"/><path class="cls-3" d="M167.28,138.65s4.12,21.69,34.43,20.74S233.13,139,233.13,139l-1.47-7.74-1,3.39-5.9,2.73.88,4.64-8-.08-2.51,3.69-1.84-1.25-4.64.88-2.51,3.68-2.14-2.8-6.19,1.18-3.1.59L191,145.38l-6.19,1.17-.3-1.55-3.68-2.5-3.1.58-.88-4.64-3.39-1-3.1.59.37-6.49-3,.57Z"/><path class="cls-3" d="M213.61,302.39c-3.66-1.35-12.48,11.76-16.9,20.86-4.5,9.29-11,27.84-5.19,57.15l8.27,136.42s-3.64,56.84,64.71,53.49c62.13-3.06,53.71-55.13,53.71-55.13l8.87-154.76a92.47,92.47,0,0,0-4.95-36c-6.36-18.09-13.83-23.9-17.31-23.31-3.69.63-3.33,7-10,14.74-11.49,13.21-29.88,14.27-34.15,14.51-14.4.83-28.66-4-35.76-10.85-6.27-6-8.55-11.22-8.55-11.22C214.76,304.71,214.85,302.85,213.61,302.39Z"/><path class="cls-4" d="M213.61,302.39s11.12,33.19,47,28,44.5-28.73,44.5-28.73L290.13,190s-1.12,19.47-31.42,20.41-34.43-20.74-34.43-20.74Z"/><path class="cls-4" d="M191.23,378.85s32.13,34,69.59,28.5S312,389.6,326.39,372.43l-8.18,142.75s-10.7,19.68-54.36,26.37-65.32-22.89-65.32-22.89Z"/><path class="cls-5" d="M234.75,194.08l3.1-.58,3.68,2.5.56,2.91,5.93-2.53,1.85,1.25,1.35,2.25,3.59-1.58,6.19-1.18,2.14,2.8,2.51-3.68,4.64-.88,1.84,1.25,2.51-3.69,8,.08-.88-4.64,5.75-1.35,1.11-4.77,3.1-.59-1.18-6.19,2.8-2.14-2.72-5.9-3-7.45s-11.28-17.11-33-13-25.15,11.19-25.15,11.19-5.6,4.28-6.64,15.7l-1,3.4,1.84,1.25-.66,4.94,4.64-.88-.37,6.49,3.1-.59,3.39,1Z"/><path class="cls-6" d="M287.64,160s6.62,18-25.9,24.17-35.68-18.89-35.68-18.89-.8-12.68,26.3-17.83C277.91,142.56,287.64,160,287.64,160Z"/><path class="cls-3" d="M224.28,189.65s4.12,21.69,34.43,20.74S290.13,190,290.13,190l-1.47-7.74-1,3.39-5.9,2.73.88,4.64-8-.08-2.51,3.69-1.84-1.25-4.64.88-2.51,3.68-2.14-2.8-6.19,1.18-3.1.59L248,196.38l-6.19,1.17-.3-1.55-3.68-2.5-3.1.58-.88-4.64-3.39-1-3.1.59.37-6.49-3,.57Z"/><path class="cls-3" d="M76.61,281.39C73,280,64.13,293.15,59.71,302.25c-4.5,9.29-11,27.84-5.19,57.15l77,86.6s-43.36,41.36,25,38c62.12-3.05,24.71,10.18,24.71,10.18l8.87-154.76a92.47,92.47,0,0,0-5-36c-6.36-18.09-13.83-23.9-17.31-23.31-3.69.63-3.33,7-10,14.74-11.49,13.21-29.88,14.27-34.15,14.51-14.4.83-28.66-4-35.76-10.85-6.27-6-8.55-11.22-8.55-11.22C77.76,283.71,77.85,281.85,76.61,281.39Z"/><path class="cls-4" d="M76.61,281.39s11.12,33.19,47,28,44.5-28.73,44.5-28.73L153.13,169s-1.12,19.47-31.42,20.41-34.43-20.74-34.43-20.74Z"/><path class="cls-4" d="M54.23,357.85s32.13,34,69.59,28.5S175,368.6,189.39,351.43l-8.18,142.75S177.16,464.31,133.5,471s1-35,1-35Z"/><path class="cls-5" d="M97.75,173.08l3.1-.58,3.68,2.5.56,2.91,5.93-2.53,1.85,1.25,1.35,2.25,3.59-1.58,6.19-1.18,2.14,2.8,2.51-3.68,4.64-.88,1.84,1.25,2.51-3.69,8,.08-.88-4.64,5.75-1.35,1.11-4.77,3.1-.59-1.18-6.19,2.8-2.14-2.72-5.9-3-7.45s-11.28-17.11-33-13-25.15,11.19-25.15,11.19-5.6,4.28-6.64,15.7l-1,3.4,1.84,1.25-.66,4.94,4.64-.88-.37,6.49,3.1-.59,3.39,1Z"/><path class="cls-6" d="M150.64,139s6.62,18-25.9,24.17-35.68-18.89-35.68-18.89-.8-12.68,26.3-17.83C140.91,121.56,150.64,139,150.64,139Z"/><path class="cls-3" d="M87.28,168.65s4.12,21.69,34.43,20.74S153.13,169,153.13,169l-1.47-7.74-1,3.39-5.9,2.73.88,4.64-8-.08-2.51,3.69-1.84-1.25-4.64.88-2.51,3.68-2.14-2.8-6.19,1.18-3.1.59L111,175.38l-6.19,1.17-.3-1.55-3.68-2.5-3.1.58-.88-4.64-3.39-1-3.1.59.37-6.49-3,.57Z"/><path class="cls-3" d="M133.61,341.39c-3.66-1.35-12.48,11.76-16.9,20.86-4.5,9.29-10.95,27.84-5.19,57.15l34,100.6s-18.36,53.36,50,50c62.12-3,42.71-15.82,42.71-15.82l8.87-154.76a92.47,92.47,0,0,0-5-36c-6.36-18.09-13.83-23.9-17.31-23.31-3.69.63-3.33,7-10,14.74-11.49,13.21-29.88,14.27-34.15,14.51-14.4.83-28.66-4-35.76-10.85-6.27-6-8.55-11.22-8.55-11.22C134.76,343.71,134.85,341.85,133.61,341.39Z"/><path class="cls-4" d="M133.61,341.39s11.12,33.19,47,28,44.5-28.73,44.5-28.73L210.13,229s-1.12,19.47-31.42,20.41-34.43-20.74-34.43-20.74Z"/><path class="cls-4" d="M111.23,417.85s32.13,34,69.59,28.5S232,428.6,246.39,411.43l-8.18,142.75s-10.7,19.68-54.36,26.37S138.5,520,138.5,520Z"/><path class="cls-5" d="M154.75,233.08l3.1-.58,3.68,2.5.56,2.91,5.93-2.53,1.85,1.25,1.35,2.25,3.59-1.58,6.19-1.18,2.14,2.8,2.51-3.68,4.64-.88,1.84,1.25,2.51-3.69,8,.08-.88-4.64,5.75-1.35,1.11-4.77,3.1-.59-1.18-6.19,2.8-2.14-2.72-5.9-3-7.45s-11.28-17.11-33-13-25.15,11.19-25.15,11.19-5.6,4.28-6.64,15.7l-1,3.4,1.84,1.25-.66,4.94,4.64-.88-.37,6.49,3.1-.59,3.39,1Z"/><path class="cls-6" d="M207.64,199s6.62,18-25.9,24.17-35.68-18.89-35.68-18.89-.8-12.68,26.3-17.83C197.91,181.56,207.64,199,207.64,199Z"/><path class="cls-3" d="M144.28,228.65s4.12,21.69,34.43,20.74S210.13,229,210.13,229l-1.47-7.74-1,3.39-5.9,2.73.88,4.64-8-.08-2.51,3.69-1.84-1.25-4.64.88-2.51,3.68-2.14-2.8-6.19,1.18-3.1.59L168,235.38l-6.19,1.17-.3-1.55-3.68-2.5-3.1.58-.88-4.64-3.39-1-3.1.59.37-6.49-3,.57Z"/><path class="cls-3" d="M190.61,404.39c-3.66-1.35-12.48,11.76-16.9,20.86-4.5,9.29-11,27.84-5.19,57.15l15,125.6s-5.36,34.36,63,31c62.12-3,48.71-21.82,48.71-21.82l8.87-154.76a92.47,92.47,0,0,0-4.95-36c-6.36-18.09-13.83-23.9-17.31-23.31-3.69.63-3.33,7-10,14.74-11.49,13.21-29.88,14.27-34.15,14.51-14.4.83-28.66-4-35.76-10.85-6.27-6-8.55-11.22-8.55-11.22C191.76,406.71,191.85,404.85,190.61,404.39Z"/><path class="cls-4" d="M190.61,404.39s11.12,33.19,47,28,44.5-28.73,44.5-28.73L267.13,292s-1.12,19.47-31.42,20.41-34.43-20.74-34.43-20.74Z"/><path class="cls-4" d="M168.23,480.85s32.13,34,69.59,28.5S289,491.6,303.39,474.43l-8.18,142.75s-10.7,19.68-54.36,26.37-65.32-22.89-65.32-22.89Z"/><path class="cls-5" d="M211.75,296.08l3.1-.58,3.68,2.5.56,2.91,5.93-2.53,1.85,1.25,1.35,2.25,3.59-1.58,6.19-1.18,2.14,2.8,2.51-3.68,4.64-.88,1.84,1.25,2.51-3.69,8,.08-.88-4.64,5.75-1.35,1.11-4.77,3.1-.59-1.18-6.19,2.8-2.14-2.72-5.9-3-7.45s-11.28-17.11-33-13-25.15,11.19-25.15,11.19-5.6,4.28-6.64,15.7l-1,3.4,1.84,1.25-.66,4.94,4.64-.88-.37,6.49,3.1-.59,3.39,1Z"/><path class="cls-6" d="M264.64,262s6.62,18-25.9,24.17-35.68-18.89-35.68-18.89-.8-12.68,26.3-17.83C254.91,244.56,264.64,262,264.64,262Z"/><path class="cls-3" d="M201.28,291.65s4.12,21.69,34.43,20.74S267.13,292,267.13,292l-1.47-7.74-1,3.39-5.9,2.73.88,4.64-8-.08-2.51,3.69-1.84-1.25-4.64.88-2.51,3.68-2.14-2.8-6.19,1.18-3.1.59L225,298.38l-6.19,1.17-.3-1.55-3.68-2.5-3.1.58-.88-4.64-3.39-1-3.1.59.37-6.49-3,.57Z"/><path class="cls-3" d="M283.61,361.39c-3.66-1.35-12.48,11.76-16.9,20.86-4.5,9.29-10.95,27.84-5.19,57.15l8.27,136.42s-3.64,56.84,64.71,53.49c62.13-3.06,53.71-55.13,53.71-55.13l8.87-154.76a92.47,92.47,0,0,0-4.95-36c-6.36-18.09-13.83-23.9-17.31-23.31-3.69.63-3.33,7-10,14.74-11.49,13.21-29.88,14.27-34.15,14.51-14.4.83-28.66-4-35.76-10.85-6.27-6-8.55-11.22-8.55-11.22C284.76,363.71,284.85,361.85,283.61,361.39Z"/><path class="cls-4" d="M283.61,361.39s11.12,33.19,47,28,44.5-28.73,44.5-28.73L360.13,249s-1.12,19.47-31.42,20.41-34.43-20.74-34.43-20.74Z"/><path class="cls-4" d="M261.23,437.85s32.13,34,69.59,28.5S382,448.6,396.39,431.43l-8.18,142.75s-10.7,19.68-54.36,26.37-65.32-22.89-65.32-22.89Z"/><path class="cls-5" d="M304.75,253.08l3.1-.58,3.68,2.5.56,2.91,5.93-2.53,1.85,1.25,1.35,2.25,3.59-1.58,6.19-1.18,2.14,2.8,2.51-3.68,4.64-.88,1.84,1.25,2.51-3.69,8,.08-.88-4.64,5.75-1.35,1.11-4.77,3.1-.59-1.18-6.19,2.8-2.14-2.72-5.9-3-7.45s-11.28-17.11-33-13-25.15,11.19-25.15,11.19-5.6,4.28-6.64,15.7l-1,3.4,1.84,1.25-.66,4.94,4.64-.88-.37,6.49,3.1-.59,3.39,1Z"/><path class="cls-6" d="M357.64,219s6.62,18-25.9,24.17-35.68-18.89-35.68-18.89-.8-12.68,26.3-17.83C347.91,201.56,357.64,219,357.64,219Z"/><path class="cls-3" d="M294.28,248.65s4.12,21.69,34.43,20.74S360.13,249,360.13,249l-1.47-7.74-1,3.39-5.9,2.73.88,4.64-8-.08-2.51,3.69-1.84-1.25-4.64.88-2.51,3.68-2.14-2.8-6.19,1.18-3.1.59L318,255.38l-6.19,1.17-.3-1.55-3.68-2.5-3.1.58-.88-4.64-3.39-1-3.1.59.37-6.49-3,.57Z"/><path class="cls-3" d="M358.61,424.39c-3.66-1.35-12.48,11.76-16.9,20.86-4.5,9.29-10.95,27.84-5.19,57.15l8.27,136.42s-3.64,56.84,64.71,53.49c62.13-3.06,53.71-55.13,53.71-55.13l8.87-154.76a92.47,92.47,0,0,0-4.95-36c-6.36-18.09-13.83-23.9-17.31-23.31-3.69.63-3.33,7-10,14.74-11.49,13.21-29.88,14.27-34.15,14.51-14.4.83-28.66-4-35.76-10.85-6.27-6-8.55-11.22-8.55-11.22C359.76,426.71,359.85,424.85,358.61,424.39Z"/><path class="cls-4" d="M358.61,424.39s11.12,33.19,47,28,44.5-28.73,44.5-28.73L435.13,312s-1.12,19.47-31.42,20.41-34.43-20.74-34.43-20.74Z"/><path class="cls-4" d="M336.23,500.85s32.13,34,69.59,28.5S457,511.6,471.39,494.43l-8.18,142.75s-10.7,19.68-54.36,26.37-65.32-22.89-65.32-22.89Z"/><path class="cls-5" d="M379.75,316.08l3.1-.58,3.68,2.5.56,2.91,5.93-2.53,1.85,1.25,1.35,2.25,3.59-1.58,6.19-1.18,2.14,2.8,2.51-3.68,4.64-.88,1.84,1.25,2.51-3.69,8,.08-.88-4.64,5.75-1.35,1.11-4.77,3.1-.59-1.18-6.19,2.8-2.14-2.72-5.9-3-7.45s-11.28-17.11-33-13-25.15,11.19-25.15,11.19-5.6,4.28-6.64,15.7l-1,3.4,1.84,1.25-.66,4.94,4.64-.88-.37,6.49,3.1-.59,3.39,1Z"/><path class="cls-6" d="M432.64,282s6.62,18-25.9,24.17-35.68-18.89-35.68-18.89-.8-12.68,26.3-17.83C422.91,264.56,432.64,282,432.64,282Z"/><path class="cls-3" d="M369.28,311.65s4.12,21.69,34.43,20.74S435.13,312,435.13,312l-1.47-7.74-1,3.39-5.9,2.73.88,4.64-8-.08-2.51,3.69-1.84-1.25-4.64.88-2.51,3.68-2.14-2.8-6.19,1.18-3.1.59L393,318.38l-6.19,1.17-.3-1.55-3.68-2.5-3.1.58-.88-4.64-3.39-1-3.1.59.37-6.49-3,.57Z"/><path class="cls-3" d="M450.61,495.39c-3.66-1.35-12.48,11.76-16.9,20.86-4.5,9.29-10.95,27.84-5.19,57.15l8.27,136.42s-3.64,56.84,64.71,53.49c62.13-3.06,53.71-55.13,53.71-55.13l8.87-154.76a92.47,92.47,0,0,0-5-36c-6.36-18.09-13.83-23.9-17.31-23.31-3.69.63-3.33,7-10,14.74-11.49,13.21-29.88,14.27-34.15,14.51-14.4.83-28.66-4-35.76-10.85-6.27-6-8.55-11.22-8.55-11.22C451.76,497.71,451.85,495.85,450.61,495.39Z"/><path class="cls-4" d="M450.61,495.39s11.12,33.19,47,28,44.5-28.73,44.5-28.73L527.13,383s-1.12,19.47-31.42,20.41-34.43-20.74-34.43-20.74Z"/><path class="cls-4" d="M428.23,571.85s32.13,34,69.59,28.5S549,582.6,563.39,565.43l-8.18,142.75s-10.7,19.68-54.36,26.37-65.32-22.89-65.32-22.89Z"/><path class="cls-7" d="M471.75,387.08l3.1-.58,3.68,2.5.56,2.91,5.93-2.53,1.85,1.25,1.35,2.25,3.59-1.58,6.19-1.18,2.14,2.8,2.51-3.68,4.64-.88,1.84,1.25,2.51-3.69,8,.08-.88-4.64,5.75-1.35,1.11-4.77,3.1-.59-1.18-6.19,2.8-2.14-2.72-5.9-3-7.45s-11.28-17.11-33-13-25.15,11.19-25.15,11.19-5.6,4.28-6.64,15.7l-1,3.4,1.84,1.25-.66,4.94,4.64-.88-.37,6.49,3.1-.59,3.39,1Z"/><path class="cls-6" d="M524.64,353s6.62,18-25.9,24.17-35.68-18.89-35.68-18.89-.8-12.68,26.3-17.83C514.91,335.56,524.64,353,524.64,353Z"/><path class="cls-3" d="M461.28,382.65s4.12,21.69,34.43,20.74S527.13,383,527.13,383l-1.47-7.74-1,3.39-5.9,2.73.88,4.64-8-.08-2.51,3.69-1.84-1.25-4.64.88-2.51,3.68-2.14-2.8-6.19,1.18-3.1.59L485,389.38l-6.19,1.17-.3-1.55-3.68-2.5-3.1.58-.88-4.64-3.39-1-3.1.59.37-6.49-3,.57Z"/><path class="cls-3" d="M249.61,474.39c-3.66-1.35-12.48,11.76-16.9,20.86-4.5,9.29-11,27.84-5.19,57.15l8.27,136.42s-3.64,56.84,64.71,53.49c62.13-3.06,53.71-55.13,53.71-55.13l8.87-154.76a92.47,92.47,0,0,0-4.95-36c-6.36-18.09-13.83-23.9-17.31-23.31-3.69.63-3.33,7-10,14.74-11.49,13.21-29.88,14.27-34.15,14.51-14.4.83-28.66-4-35.76-10.85-6.27-6-8.55-11.22-8.55-11.22C250.76,476.71,250.85,474.85,249.61,474.39Z"/><path class="cls-4" d="M249.61,474.39s11.12,33.19,47,28,44.5-28.73,44.5-28.73L326.13,362s-1.12,19.47-31.42,20.41-34.43-20.74-34.43-20.74Z"/><path class="cls-4" d="M227.23,550.85s32.13,34,69.59,28.5S348,561.6,362.39,544.43l-8.18,142.75s-10.7,19.68-54.36,26.37-65.32-22.89-65.32-22.89Z"/><path class="cls-5" d="M270.75,366.08l3.1-.58,3.68,2.5.56,2.91,5.93-2.53,1.85,1.25,1.35,2.25,3.59-1.58,6.19-1.18,2.14,2.8,2.51-3.68,4.64-.88,1.84,1.25,2.51-3.69,8,.08-.88-4.64,5.75-1.35,1.11-4.77,3.1-.59-1.18-6.19,2.8-2.14-2.72-5.9-3-7.45s-11.28-17.11-33-13-25.15,11.19-25.15,11.19-5.6,4.28-6.64,15.7l-1,3.4,1.84,1.25-.66,4.94,4.64-.88-.37,6.49,3.1-.59,3.39,1Z"/><path class="cls-6" d="M323.64,332s6.62,18-25.9,24.17-35.68-18.89-35.68-18.89-.8-12.68,26.3-17.83C313.91,314.56,323.64,332,323.64,332Z"/><path class="cls-3" d="M260.28,361.65s4.12,21.69,34.43,20.74S326.13,362,326.13,362l-1.47-7.74-1,3.39-5.9,2.73.88,4.64-8-.08-2.51,3.69-1.84-1.25-4.64.88-2.51,3.68-2.14-2.8-6.19,1.18-3.1.59L284,368.38l-6.19,1.17-.3-1.55-3.68-2.5-3.1.58-.88-4.64-3.39-1-3.1.59.37-6.49-3,.57Z"/><path class="cls-3" d="M328.61,548.39c-3.66-1.35-12.48,11.76-16.9,20.86-4.5,9.29-10.95,27.84-5.19,57.15l8.27,136.42s-3.64,56.84,64.71,53.49c62.13-3.06,53.71-55.13,53.71-55.13l8.87-154.76a92.47,92.47,0,0,0-4.95-36c-6.36-18.09-13.83-23.9-17.31-23.31-3.69.63-3.33,7-10,14.74-11.49,13.21-29.88,14.27-34.15,14.51-14.4.83-28.66-4-35.76-10.85-6.27-6-8.55-11.22-8.55-11.22C329.76,550.71,329.85,548.85,328.61,548.39Z"/><path class="cls-4" d="M328.61,548.39s11.12,33.19,47,28,44.5-28.73,44.5-28.73L405.13,436s-1.12,19.47-31.42,20.41-34.43-20.74-34.43-20.74Z"/><path class="cls-4" d="M306.23,624.85s32.13,34,69.59,28.5S427,635.6,441.39,618.43l-8.18,142.75s-10.7,19.68-54.36,26.37-65.32-22.89-65.32-22.89Z"/><path class="cls-7" d="M349.75,440.08l3.1-.58,3.68,2.5.56,2.91,5.93-2.53,1.85,1.25,1.35,2.25,3.59-1.58,6.19-1.18,2.14,2.8,2.51-3.68,4.64-.88,1.84,1.25,2.51-3.69,8,.08-.88-4.64,5.75-1.35,1.11-4.77,3.1-.59-1.18-6.19,2.8-2.14-2.72-5.9-3-7.45s-11.28-17.11-33-13-25.15,11.19-25.15,11.19-5.6,4.28-6.64,15.7l-1,3.4,1.84,1.25-.66,4.94,4.64-.88-.37,6.49,3.1-.59,3.39,1Z"/><path class="cls-6" d="M402.64,406s6.62,18-25.9,24.17-35.68-18.89-35.68-18.89-.8-12.68,26.3-17.83C392.91,388.56,402.64,406,402.64,406Z"/><path class="cls-3" d="M339.28,435.65s4.12,21.69,34.43,20.74S405.13,436,405.13,436l-1.47-7.74-1,3.39-5.9,2.73.88,4.64-8-.08-2.51,3.69-1.84-1.25-4.64.88-2.51,3.68-2.14-2.8-6.19,1.18-3.1.59L363,442.38l-6.19,1.17-.3-1.55-3.68-2.5-3.1.58-.88-4.64-3.39-1-3.1.59.37-6.49-3,.57Z"/><polygon class="cls-8" points="357.5 494 357.5 880 58.5 453 1.5 105 357.5 494"/><path class="cls-2" d="M363.5,460s-28,5-86-82L36.5,121s-10-11,6-14,353-96,353-96,14.65-.36,21.24,5.21L796.5,259s20,12-9,23-395,170-395,170l-29,8v35l475-220L407.5,0,1.5,105l355,392,7-2Z"/><path class="cls-8" d="M356.5,497l1,383,382-237,98-369Zm70,132V515l314-149-28,111Z"/><polygon points="360.5 495 356.5 497 357.5 880 362.5 877 360.5 495"/><polygon points="356.53 497.06 352.5 493 353.5 874 357.5 880 356.53 497.06"/></g></svg>
