<svg xmlns="http://www.w3.org/2000/svg" width="840" height="880" viewBox="0 0 840 880"><defs><style>.cls-1{fill:#1a4b00;}.cls-2{fill:#1a6a00;}</style></defs><title>Ølkasseforgrund</title><g id="Layer_2" data-name="Layer 2"><polygon class="cls-1" points="357.5 494 357.5 880 58.5 453 1.5 105 357.5 494"/><path class="cls-2" d="M363.5,460s-28,5-86-82L36.5,121s-10-11,6-14,353-96,353-96,14.65-.36,21.24,5.21L796.5,259s20,12-9,23-395,170-395,170l-29,8v35l475-220L407.5,0,1.5,105l355,392,7-2Z"/><path class="cls-1" d="M356.5,497l1,383,382-237,98-369Zm70,132V515l314-149-28,111Z"/><polygon points="360.5 495 356.5 497 357.5 880 362.5 877 360.5 495"/><polygon points="356.53 497.06 352.5 493 353.5 874 357.5 880 356.53 497.06"/></g></svg>
