<svg xmlns="http://www.w3.org/2000/svg" width="780" height="460" viewBox="0 0 780 460"><defs><style>.cls-1{fill:#80b73f;}.cls-2{fill:#1a6a00;}</style></defs><title>Ølkassebaggrund</title><g id="Layer_2" data-name="Layer 2"><polygon class="cls-1" points="680.83 415.65 695.13 432.21 712.12 360.35 675.49 377.31 680.83 415.65"/><path class="cls-2" d="M59.27,286.17l69.1-36.73c-25.13-27.78-49.18-54.43-69.1-76.56Z"/><path class="cls-1" d="M768.12,253.35c-15.5-11.07-380-243-380-243-1.5-.89-5.84-5.75-21-5l-353,96s-15.23,1.77-6,14c2.35,3.11-3.71-4.89,25,27l5.67,6.58L353,48.72l-7.75,85.45L128.37,249.44c81.2,89.79,173.56,191.5,173.56,191.5s10.43,14.54,34.12,13.76c30.34-1,431.43-181.6,431.43-181.6S783.62,264.42,768.12,253.35Z"/><polygon points="383.04 -2.71 379.17 -5.44 379.67 382.81 384.67 379.81 383.04 -2.71"/><polygon points="379.4 -5.33 375.01 -4.08 376.01 376.92 380.01 382.92 379.4 -5.33"/></g></svg>
