<svg xmlns="http://www.w3.org/2000/svg" width="150" height="430" viewBox="0 0 150 430"><defs><style>.cls-1{fill:#1f3900;}.cls-2{fill:#f1f0d8;}.cls-3{fill:#8a8a8a;}.cls-4{fill:#4d4d4d;}</style></defs><title>Ølperspektiv</title><g id="Layer_2" data-name="Layer 2"><path class="cls-1" d="M30.37,159c-3.67-1.35-12.48,11.76-16.9,20.86C9,189.14,2.52,207.7,8.28,237l8.27,136.42s-3.64,56.85,64.71,53.49c62.13-3.05,53.71-55.13,53.71-55.13L143.84,217a92.45,92.45,0,0,0-5-36c-6.37-18.09-13.84-23.9-17.31-23.31-3.7.63-3.33,7-10,14.74C100.06,185.66,81.67,186.72,77.4,187c-14.4.83-28.66-4-35.76-10.86-6.28-6-8.55-11.21-8.55-11.21C31.52,161.31,31.61,159.46,30.37,159Z"/><path class="cls-2" d="M30.37,159s11.12,33.19,47,28,44.5-28.73,44.5-28.73l-15-111.65S105.77,66.06,75.47,67,41,46.26,41,46.26Z"/><path class="cls-2" d="M8,235.46s32.13,34,69.59,28.49,51.18-17.74,65.57-34.92L135,371.78s-10.7,19.69-54.36,26.38-65.32-22.89-65.32-22.89Z"/><path class="cls-3" d="M51.51,50.69l3.1-.59,3.68,2.51.55,2.91L64.78,53l1.84,1.26L68,56.49l3.58-1.59,6.2-1.17,2.13,2.8,2.51-3.69L87.05,52l1.84,1.26,2.51-3.69,8,.08L98.56,45l5.75-1.35,1.11-4.76,3.09-.59-1.17-6.2,2.8-2.13L107.41,24l-3-7.45s-11.28-17.12-33-13-25.15,11.2-25.15,11.2-5.6,4.27-6.64,15.7l-1,3.39,1.84,1.26-.67,4.94,4.65-.89-.37,6.49,3.09-.58,3.4,1Z"/><path class="cls-4" d="M104.4,16.58s6.62,18-25.9,24.17S42.82,21.86,42.82,21.86,42,9.17,69.12,4C94.67-.83,104.4,16.58,104.4,16.58Z"/><path class="cls-1" d="M41,46.26S45.16,67.94,75.47,67s31.42-20.41,31.42-20.41l-1.47-7.74-1,3.39L98.56,45l.88,4.65-8-.08-2.51,3.69L87.05,52l-4.65.88-2.51,3.69-2.13-2.8-6.2,1.17-3.09.59L64.78,53l-6.19,1.18-.3-1.55L54.61,50.1l-3.1.59-.88-4.64-3.4-1-3.09.58.37-6.49-3,.58Z"/></g></svg>
